<svg width="452" height="144" viewBox="0 0 452 144" fill="none" xmlns="http://www.w3.org/2000/svg">
<path fill-rule="evenodd" clip-rule="evenodd" d="M280 62.74C296.22 62.74 310.26 47.72 310.26 31.36C310.26 15 296.28 0 280 0C263.72 0 249.74 15 249.74 31.36C249.74 47.72 263.84 62.74 280 62.74ZM280 18.64C282.52 18.6202 284.989 19.3493 287.094 20.7349C289.199 22.1205 290.845 24.1001 291.823 26.4225C292.801 28.745 293.067 31.3057 292.588 33.7797C292.108 36.2537 290.905 38.5295 289.13 40.3184C287.355 42.1074 285.089 43.3288 282.619 43.8278C280.148 44.3267 277.586 44.0808 275.256 43.121C272.926 42.1613 270.933 40.531 269.531 38.4371C268.129 36.3432 267.38 33.88 267.38 31.36C267.369 29.695 267.688 28.0444 268.317 26.5029C268.946 24.9614 269.874 23.5595 271.047 22.3775C272.219 21.1955 273.614 20.2569 275.15 19.6155C276.687 18.9741 278.335 18.6426 280 18.64ZM2.76001 61.04V3.40002L19.56 1.70001V44.08H44.78V61.04H2.76001ZM92.7 81.26L76.38 82.96L55.38 142.3H72.18L76.64 127.46H93.02L97.4 142.3H114.2L93.2 82.96L92.7 81.26ZM80.42 114.76L84.8 100L89.24 114.84L80.42 114.76ZM41.02 119.24C39.931 121.335 38.2889 123.091 36.2721 124.318C34.2552 125.545 31.9408 126.196 29.58 126.2C25.9837 126.2 22.5346 124.771 19.9916 122.228C17.4486 119.685 16.02 116.236 16.02 112.64C16.02 109.044 17.4486 105.595 19.9916 103.052C22.5346 100.509 25.9837 99.08 29.58 99.08C31.899 99.0645 34.1774 99.6892 36.1641 100.885C38.1508 102.082 39.7689 103.803 40.84 105.86L55.8 97.38C53.1689 92.7454 49.356 88.8913 44.7499 86.2106C40.1439 83.5298 34.9094 82.1184 29.58 82.12C12.94 82.12 0 95.76 0 112.64C0 129.52 12.94 143.16 29.58 143.16C34.9876 143.156 40.2943 141.696 44.9431 138.933C49.5918 136.171 53.4111 132.208 56 127.46L41.02 119.24ZM136.88 82.96L153.7 112.64V84.6599L170.5 82.96V142.3H153.7L136.88 113.48V142.3H120.08V84.6599L136.88 82.96ZM205.8 81.26C189.58 81.26 175.54 96.28 175.54 112.64C175.54 129 189.58 144 205.8 144C222.02 144 236 129 236 112.64C236 96.28 222 81.26 205.8 81.26ZM205.8 125.36C203.279 125.384 200.808 124.658 198.701 123.275C196.593 121.892 194.944 119.914 193.963 117.591C192.982 115.269 192.713 112.708 193.19 110.233C193.667 107.758 194.869 105.48 196.643 103.689C198.417 101.898 200.683 100.674 203.154 100.174C205.625 99.6733 208.188 99.9181 210.52 100.877C212.851 101.836 214.845 103.467 216.248 105.561C217.651 107.655 218.4 110.119 218.4 112.64C218.408 114.303 218.088 115.95 217.459 117.489C216.83 119.028 215.904 120.428 214.734 121.61C213.564 122.791 212.173 123.73 210.64 124.373C209.107 125.017 207.463 125.352 205.8 125.36ZM257.88 82.96L274.7 112.64V84.6599L291.5 82.96V142.3H274.7L257.88 113.48V142.3H241.08V84.6599L257.88 82.96ZM297.38 142.3H339.4V125.36H312.5V120.26H333.52L335.2 105H312.5V99.9199H339.4V82.96H297.38V142.3ZM394 100H364.18C363.618 100 363.079 100.223 362.681 100.621C362.283 101.019 362.06 101.558 362.06 102.12C362.06 102.682 362.283 103.222 362.681 103.619C363.079 104.017 363.618 104.24 364.18 104.24L376.8 105.94C389.82 107.72 395.7 113.64 395.7 124.16C395.691 126.608 395.19 129.029 394.229 131.28C393.267 133.531 391.863 135.566 390.101 137.265C388.339 138.964 386.254 140.292 383.969 141.17C381.684 142.049 379.246 142.46 376.8 142.38H346.96L345.28 125.44H376.8C377.343 125.414 377.855 125.179 378.228 124.783C378.601 124.388 378.806 123.864 378.8 123.32C378.816 123.047 378.777 122.774 378.684 122.518C378.591 122.261 378.446 122.026 378.258 121.828C378.071 121.629 377.845 121.471 377.594 121.363C377.343 121.255 377.073 121.2 376.8 121.2L364.18 119.5C352 117.72 345.28 111.78 345.28 101.26C345.289 98.8122 345.79 96.3912 346.751 94.1403C347.713 91.8893 349.117 89.8542 350.879 88.1553C352.641 86.4564 354.726 85.1283 357.011 84.2497C359.296 83.3711 361.734 82.9597 364.18 83.04H395.68L394 100ZM420.48 100H450.32L452 83.04H420.48C418.034 82.9597 415.596 83.3711 413.311 84.2497C411.026 85.1283 408.941 86.4564 407.179 88.1553C405.417 89.8542 404.013 91.8893 403.051 94.1403C402.09 96.3912 401.589 98.8122 401.58 101.26C401.58 111.78 408.3 117.72 420.48 119.5L433.08 121.2C433.363 121.182 433.646 121.225 433.912 121.326C434.177 121.426 434.418 121.581 434.618 121.782C434.818 121.982 434.974 122.223 435.074 122.488C435.175 122.754 435.218 123.037 435.2 123.32C435.203 123.599 435.15 123.876 435.044 124.134C434.938 124.393 434.782 124.628 434.585 124.825C434.388 125.022 434.153 125.178 433.894 125.284C433.636 125.39 433.359 125.443 433.08 125.44H401.58L403.26 142.38H433.08C435.542 142.464 437.995 142.049 440.292 141.162C442.59 140.275 444.685 138.933 446.452 137.217C448.218 135.5 449.62 133.445 450.574 131.174C451.527 128.903 452.012 126.463 452 124C452 113.48 446.12 107.56 433.08 105.78L420.48 104.08C419.918 104.08 419.378 103.857 418.981 103.459C418.583 103.061 418.36 102.522 418.36 101.96C418.36 101.398 418.583 100.859 418.981 100.461C419.378 100.063 419.918 99.84 420.48 99.84V100ZM50.66 3.40002V35.6C50.5651 38.9703 51.1469 42.3256 52.3712 45.4672C53.5954 48.6088 55.4371 51.473 57.7875 53.8905C60.1378 56.308 62.9491 58.2297 66.0549 59.5419C69.1608 60.8541 72.4983 61.5302 75.87 61.5302C79.2417 61.5302 82.5792 60.8541 85.6851 59.5419C88.791 58.2297 91.6022 56.308 93.9526 53.8905C96.3029 51.473 98.1447 48.6088 99.3689 45.4672C100.593 42.3256 101.175 38.9703 101.08 35.6V1.70001L84.26 3.40002V35.6C84.26 37.8278 83.375 39.9644 81.7997 41.5397C80.2244 43.115 78.0878 44 75.86 44C73.6322 44 71.4956 43.115 69.9203 41.5397C68.345 39.9644 67.46 37.8278 67.46 35.6V1.70001L50.66 3.40002ZM165.78 1.70001V61.04H148.98V27.12L143.94 35.6L139.56 43.06H133.34L128.8 35.6L123.76 27.12V61.04H106.96V3.40002L123.76 1.70001L136.54 23.22L148.98 3.40002L165.78 1.70001ZM188.46 1.70001L171.66 3.40002V61.04H188.46V1.70001ZM227.96 61.04L211.16 32.22V61.04H194.34V3.40002L211.16 1.70001L227.96 31.36V3.40002L244.78 1.70001V61.04H227.96ZM365.76 61.04H348.96L332.16 32.22V61.04H315.34V3.40002L332.16 1.70001L348.96 31.36V3.40002L365.76 1.70001V61.04Z" fill="white"/>
</svg>
