<svg fill="none" height="24" viewBox="0 0 24 24" width="24" xmlns="http://www.w3.org/2000/svg"><g fill="#3b66ff"><path d="m0 12c0-6.62742 5.37258-12 12-12 6.6274 0 12 5.37258 12 12 0 6.6274-5.3726 12-12 12-6.62742 0-12-5.3726-12-12z" opacity=".2"/><path d="m10.6667 7.83333c0-.73638.5969-1.33333 1.3333-1.33333s1.3333.59695 1.3333 1.33333-.5969 1.33334-1.3333 1.33334-1.3333-.59696-1.3333-1.33334z"/><path d="m6.19526 8.36193c.26035-.26035.68246-.26035.94281 0 .77973.77973 1.83691 1.31896 3.01383 1.59431.5982.13996 1.2224.21046 1.8481.21046s1.2499-.0705 1.8481-.21046c1.1769-.27535 2.2341-.81458 3.0138-1.59431.2604-.26035.6825-.26035.9428 0 .2604.26035.2604.68246 0 .94281-.8622.86226-1.9594 1.46136-3.138 1.81296v6.7156c0 .3682-.2985.6667-.6667.6667s-.6667-.2985-.6667-.6667v-1.0632c0-.3957-.1757-.771-.4797-1.0243-.4945-.4121-1.2127-.4121-1.7072 0-.304.2533-.4797.6286-.4797 1.0243v1.0632c0 .3682-.2985.6667-.6667.6667-.36819 0-.66667-.2985-.66667-.6667v-6.7156c-1.17868-.3516-2.27582-.9507-3.13807-1.81296-.26035-.26035-.26035-.68246 0-.94281z"/></g></svg>