<svg xmlns="http://www.w3.org/2000/svg" viewBox="0 0 240 240"><defs><style>.cls-1{fill:#a5a5a5;}</style></defs><title>ic_footer_luminon</title><g id="레이어_2" data-name="레이어 2"><g id="레이어_1-2" data-name="레이어 1"><path class="cls-1" d="M210.27,29.73C185.34,4.8,152.67,0,120,0S54.66,4.8,29.73,29.73,0,87.33,0,120s4.8,65.34,29.73,90.27S87.33,240,120,240s65.34-4.8,90.27-29.73S240,152.67,240,120,235.2,54.66,210.27,29.73ZM111.72,114.4a1.66,1.66,0,0,1-.83,1.43L24.66,165.62a1.66,1.66,0,0,1-2.41-.94c-4.49-14.15-5.7-29.35-5.7-44.55,0-28.16,4.14-56.33,25.63-77.82C61.13,23.37,85.26,17.91,110,16.88a1.65,1.65,0,0,1,1.72,1.66Zm16.55-95.86A1.65,1.65,0,0,1,130,16.88c24.75,1,48.88,6.49,67.82,25.43A78.34,78.34,0,0,1,209.39,57a1.66,1.66,0,0,1-.58,2.3l-78,45.06a1.66,1.66,0,0,1-2.48-1.43ZM197.82,198c-18.94,18.94-43.08,24.41-67.82,25.43a1.65,1.65,0,0,1-1.72-1.66V125.87a1.66,1.66,0,0,1,.83-1.43l86.24-49.79a1.66,1.66,0,0,1,2.41.94c4.49,14.15,5.7,29.35,5.7,44.55C223.45,148.3,219.31,176.46,197.82,198Z"/></g></g></svg>