<svg xmlns="http://www.w3.org/2000/svg" viewBox="0 0 484.81 60"><defs><style>.cls-1{fill:#fff;}</style></defs><title>pic_logo</title><g id="레이어_2" data-name="레이어 2"><g id="레이어_1-2" data-name="레이어 1"><path class="cls-1" d="M80,29.9A13.78,13.78,0,0,1,94.13,16a13.53,13.53,0,0,1,13.06,10.14h-5.59a7.79,7.79,0,0,0-7.73-5.07,8.81,8.81,0,0,0,0,17.61,7.85,7.85,0,0,0,7.58-4.85h5.7A13.87,13.87,0,0,1,80,29.9Z"/><path class="cls-1" d="M109.34,34.16a9.58,9.58,0,1,1,9.58,9.62A9.57,9.57,0,0,1,109.34,34.16Zm14.24,0a4.75,4.75,0,0,0-4.66-4.81,4.81,4.81,0,0,0,0,9.62A4.75,4.75,0,0,0,123.58,34.16Z"/><path class="cls-1" d="M131.28,24.91h5v2a6.13,6.13,0,0,1,4.92-2.33,6.19,6.19,0,0,1,5.7,2.92,7,7,0,0,1,5.77-2.92c4.7,0,7,2.81,7,7.58V43.41h-5.14V32.79c0-2.48-1-3.92-3.22-3.92-1.92,0-3.33,1.33-3.33,4.44v10.1H142.9V32.79c0-2.48-1-3.92-3.22-3.92-1.92,0-3.33,1.33-3.33,4.44v10.1h-5.07Z"/><path class="cls-1" d="M163.06,24.91h5v2A6.13,6.13,0,0,1,173,24.54a6.19,6.19,0,0,1,5.7,2.92,7,7,0,0,1,5.77-2.92c4.7,0,7,2.81,7,7.58V43.41h-5.14V32.79c0-2.48-1-3.92-3.22-3.92-1.92,0-3.33,1.33-3.33,4.44v10.1h-5.14V32.79c0-2.48-1-3.92-3.22-3.92-1.92,0-3.33,1.33-3.33,4.44v10.1h-5.07Z"/><path class="cls-1" d="M197.36,17A2.93,2.93,0,0,1,200.43,20a2.9,2.9,0,0,1-3.07,3,2.87,2.87,0,0,1-3-3A2.9,2.9,0,0,1,197.36,17Zm-2.52,8h5.07v18.5h-5.07Z"/><path class="cls-1" d="M202.54,37.15h5.11v.15c0,1.52,1,2.07,2.26,2.07,1.44,0,2-.59,2-1.63s-2.26-1.33-4.55-2.11-4.55-2.07-4.55-5.48c0-3.22,2.55-5.62,6.77-5.62s7.18,2.07,7.18,6.33h-4.92v-.07c0-1.55-.85-2.07-2.11-2.07s-1.85.7-1.85,1.48c0,1.07,2.22,1.26,4.48,2s4.44,2.11,4.44,5.44-2.33,6.1-6.88,6.1C205,43.78,202.54,41.59,202.54,37.15Z"/><path class="cls-1" d="M219.08,37.15h5.11v.15c0,1.52,1,2.07,2.26,2.07,1.44,0,2-.59,2-1.63s-2.26-1.33-4.55-2.11-4.55-2.07-4.55-5.48c0-3.22,2.55-5.62,6.77-5.62s7.18,2.07,7.18,6.33h-4.92v-.07c0-1.55-.85-2.07-2.11-2.07s-1.85.7-1.85,1.48c0,1.07,2.22,1.26,4.48,2s4.44,2.11,4.44,5.44-2.33,6.1-6.88,6.1C221.56,43.78,219.08,41.59,219.08,37.15Z"/><path class="cls-1" d="M238.47,17A2.93,2.93,0,0,1,241.54,20a2.9,2.9,0,0,1-3.07,3,2.87,2.87,0,0,1-3-3A2.9,2.9,0,0,1,238.47,17Zm-2.52,8H241v18.5H236Z"/><path class="cls-1" d="M243.8,34.16a9.58,9.58,0,1,1,9.58,9.62A9.57,9.57,0,0,1,243.8,34.16Zm14.24,0a4.75,4.75,0,0,0-4.66-4.81,4.81,4.81,0,0,0,0,9.62A4.75,4.75,0,0,0,258,34.16Z"/><path class="cls-1" d="M265.74,24.91h5V27a6.37,6.37,0,0,1,5.11-2.44c4.37,0,7,2.81,7,7.58V43.41h-5.14V32.79c0-2.48-1.15-3.92-3.4-3.92-1.92,0-3.51,1.33-3.51,4.44v10.1h-5.07Z"/><path class="cls-1" d="M301.07,41.41v2H296v-27h5.07V26.94a6.94,6.94,0,0,1,5.55-2.41c4.18,0,9,3.07,9,9.62s-5,9.62-8.88,9.62A7.13,7.13,0,0,1,301.07,41.41Zm9.55-7.29a4.84,4.84,0,0,0-5-5,4.77,4.77,0,0,0-4.74,5,4.81,4.81,0,0,0,4.74,5A4.88,4.88,0,0,0,310.62,34.12Z"/><path class="cls-1" d="M323.42,42.59l-7.36-17.69h5.33l4.55,11.4,4.25-11.4h5.25L324.71,52h-5.07Z"/><path class="cls-1" d="M348,16.4h5.14V38.49h9.77v4.92H348Z"/><path class="cls-1" d="M365.52,36.19V24.91h5.14V35.53c0,2.59,1.07,3.92,3.22,3.92,1.92,0,3.18-1.33,3.18-4.33V24.91h5.07v18.5h-5V41.26a5.65,5.65,0,0,1-4.85,2.52C368,43.78,365.52,41.08,365.52,36.19Z"/><path class="cls-1" d="M385.65,24.91h5v2a6.13,6.13,0,0,1,4.92-2.33,6.19,6.19,0,0,1,5.7,2.92,7,7,0,0,1,5.77-2.92c4.7,0,7,2.81,7,7.58V43.41H409V32.79c0-2.48-1-3.92-3.22-3.92-1.92,0-3.33,1.33-3.33,4.44v10.1h-5.14V32.79c0-2.48-1-3.92-3.22-3.92-1.92,0-3.33,1.33-3.33,4.44v10.1h-5.07Z"/><path class="cls-1" d="M420,17A2.93,2.93,0,0,1,423,20a2.9,2.9,0,0,1-3.07,3,2.87,2.87,0,0,1-3-3A2.9,2.9,0,0,1,420,17Zm-2.52,8h5.07v18.5h-5.07Z"/><path class="cls-1" d="M425.83,24.91h5V27A6.37,6.37,0,0,1,436,24.54c4.37,0,7,2.81,7,7.58V43.41h-5.14V32.79c0-2.48-1.15-3.92-3.4-3.92-1.92,0-3.51,1.33-3.51,4.44v10.1h-5.07Z"/><path class="cls-1" d="M445.74,34.16a9.58,9.58,0,1,1,9.58,9.62A9.57,9.57,0,0,1,445.74,34.16Zm14.24,0a4.75,4.75,0,0,0-4.66-4.81,4.81,4.81,0,0,0,0,9.62A4.75,4.75,0,0,0,460,34.16Z"/><path class="cls-1" d="M467.68,24.91h5V27a6.37,6.37,0,0,1,5.11-2.44c4.37,0,7,2.81,7,7.58V43.41h-5.14V32.79c0-2.48-1.15-3.92-3.4-3.92-1.92,0-3.51,1.33-3.51,4.44v10.1h-5.07Z"/><path class="cls-1" d="M52.57,7.43C46.34,1.2,38.17,0,30,0S13.66,1.2,7.43,7.43,0,21.83,0,30,1.2,46.34,7.43,52.57,21.83,60,30,60s16.34-1.2,22.57-7.43S60,38.17,60,30,58.8,13.66,52.57,7.43ZM27.93,28.6a.41.41,0,0,1-.21.36L6.16,41.41a.41.41,0,0,1-.6-.23A36.87,36.87,0,0,1,4.14,30c0-7,1-14.08,6.41-19.45,4.74-4.74,10.77-6.1,17-6.36a.41.41,0,0,1,.43.41Zm4.14-24a.41.41,0,0,1,.43-.41c6.19.26,12.22,1.62,17,6.36a19.59,19.59,0,0,1,2.89,3.67.41.41,0,0,1-.15.58L32.69,26.09a.41.41,0,0,1-.62-.36ZM49.45,49.49c-4.74,4.74-10.77,6.1-17,6.36a.41.41,0,0,1-.43-.41v-24a.41.41,0,0,1,.21-.36L53.84,18.66a.41.41,0,0,1,.6.23A36.87,36.87,0,0,1,55.86,30C55.86,37.07,54.83,44.12,49.45,49.49Z"/></g></g></svg>