<svg xmlns="http://www.w3.org/2000/svg" viewBox="0 0 1024.75 39.82"><defs><style>.cls-1{fill:#242424;}.cls-2{fill:#fc5e75;}</style></defs><title>pic_stepper</title><g id="레이어_2" data-name="레이어 2"><g id="레이어_1-2" data-name="레이어 1"><path class="cls-1" d="M21.47,23.31a14.45,14.45,0,0,1-8.82-7.23A14.79,14.79,0,0,1,3.44,24L0,18.57C7,16.38,9.16,11,9.16,6.26V2.52h6.93V6.26c0,4.75,2,9.66,8.78,11.72ZM34.4,33.86v5.33H6.68V26.25h6.81v7.6ZM33.48,29H26.67V.38h6.81Z"/><path class="cls-1" d="M59.94,23.1a14.21,14.21,0,0,1-9-6,13.79,13.79,0,0,1-9.16,7L38.6,18.78c6.3-1.68,8.53-5.67,8.74-9.45H40.15V4.07h7.23V.25h6.81V4.07h7.27V9.33H54.22c.25,3.4,2.52,7,8.74,8.53Zm12.64,9.07c0,4.83-5.29,7.65-13.69,7.65S45.15,37,45.15,32.18s5.29-7.6,13.74-7.6S72.58,27.35,72.58,32.18Zm-6.81,0c0-1.76-2.18-2.48-6.89-2.48S52,30.41,52,32.18s2.18,2.52,6.93,2.52S65.78,34,65.78,32.18Zm-.17-21.72V.38h6.81V24.11H65.61V15.88H60.44V10.46Z"/><path class="cls-1" d="M113.53,25.33c-8.15,1.39-16.93,1.47-23.86,1.51l-.76-5.12c2.69,0,5.67,0,8.78-.08V19.79c-4-.71-6.47-2.73-6.47-5.63,0-3.61,3.86-5.88,9.83-5.88s9.83,2.27,9.83,5.88c0,2.9-2.44,4.92-6.39,5.63v1.64c2.9-.13,5.76-.34,8.53-.67ZM112.1,7.65H90V2.86h7.73V0h6.81V2.86h7.6ZM94,28.78h27.14v11h-6.81V33.94H94Zm3.61-14.62c0,1.13,1.22,1.6,3.4,1.6s3.4-.46,3.4-1.6-1.22-1.55-3.4-1.55S97.65,13.06,97.65,14.16Zm28.06,2.65h-4.54V27.47h-6.81V.34h6.81v11h4.54Z"/><path class="cls-1" d="M139.53,23.06c-6.13,0-11-4.33-11-10.17s4.83-10.17,11-10.17,11,4.29,11,10.17S145.66,23.06,139.53,23.06Zm22.56,10.8v5.33H134.36V25.71h6.81v8.15ZM139.53,17.22a4,4,0,0,0,4.33-4.33,4.33,4.33,0,0,0-8.65,0A4,4,0,0,0,139.53,17.22Zm21.63,11.22h-6.81V.38h6.81Z"/><path class="cls-1" d="M234.86.65h6.3V37.91h-6.3V27.37l-3.32,4.16A15.74,15.74,0,0,1,224.9,23c-1.26,4-3.4,7.39-6.68,9.45l-4-4.92c6-3.82,7.35-10.84,7.35-17.31V9.18h-5.67V3.76h17.35V9.18h-5.08v1.05c0,6.22,1.26,12.52,6.68,16V18.67h-4.24V13.25h4.24Zm14.41-.5V39.51h-6.43V.15Z"/><path class="cls-1" d="M274.34,22.75a14.75,14.75,0,0,1-8.74-7,14.73,14.73,0,0,1-9.07,7.69L253,18.13c6.26-2,8.61-6.3,9-10.54h-7.27V2.25h21.42V7.58h-7.1c.38,3.95,2.69,8,8.7,9.91Zm-15.92,2.73h26.72V39.63h-6.81V30.81H258.42ZM290,14.72h-4.92V24h-6.81V.19h6.81v9H290Z"/><path class="cls-1" d="M339.9,20.14v5.25H304.15V20.14h14.49v-1.6H308.44V1.07H336V6.15H315.2V7.37h20v4.87h-20v1.22h21.17v5.08H325.45v1.6Zm-4.12,12.94c0,4.24-5.12,6.6-13.78,6.6s-13.82-2.35-13.82-6.6,5.13-6.55,13.82-6.55S335.78,28.84,335.78,33.08Zm-6.85,0c0-1.22-2-1.6-6.93-1.6s-7,.38-7,1.6,2,1.64,6.93,1.64S328.94,34.34,328.94,33.08Z"/><path class="cls-1" d="M378.58,29.8v5.42H342.92V29.8h14.41v-6.6H346.45V2.5h6.72V8h15V2.5h6.72V23.21h-10.8v6.6ZM353.17,17.87h15V13.3h-15Z"/><path class="cls-2" d="M193.28,18.88,183,13a1.18,1.18,0,0,0-1.77,1v11.7a1.18,1.18,0,0,0,1.77,1l10.24-5.85A1.18,1.18,0,0,0,193.28,18.88Z"/><path class="cls-1" d="M451.06.65h6.3V37.91h-6.3V27.37l-3.32,4.16A15.74,15.74,0,0,1,441.11,23c-1.26,4-3.4,7.39-6.68,9.45l-4-4.92c6-3.82,7.35-10.84,7.35-17.31V9.18h-5.67V3.76h17.35V9.18h-5.08v1.05c0,6.22,1.26,12.52,6.68,16V18.67h-4.24V13.25h4.24Zm14.41-.5V39.51H459V.15Z"/><path class="cls-1" d="M490.54,22.75a14.76,14.76,0,0,1-8.74-7,14.73,14.73,0,0,1-9.07,7.69l-3.53-5.29c6.26-2,8.61-6.3,9-10.54H471V2.25h21.42V7.58h-7.1c.38,3.95,2.69,8,8.7,9.91Zm-15.92,2.73h26.72V39.63h-6.81V30.81H474.62Zm31.63-10.75h-4.92V24h-6.81V.19h6.81v9h4.92Z"/><path class="cls-1" d="M541.87,24A14.6,14.6,0,0,1,533,17a14.63,14.63,0,0,1-9.2,7.69l-3.49-5.25c6.72-2.06,9-6.89,9.16-11.38h-7.31V2.75h21.38V8h-7.14c.17,4.2,2.39,8.74,8.86,10.75Zm12.52,9.62V39H526.66V26h6.8v7.69Zm-.92-5.25h-6.8V.19h6.8Z"/><path class="cls-1" d="M577.61,9H558.91V3.84h6V.65h6.68V3.84h6Zm-9.28,14.74c-5,0-8.57-2.9-8.57-6.93s3.61-7,8.57-7,8.57,2.9,8.57,7S573.28,23.76,568.32,23.76Zm24.79,8.57c0,4.66-5.25,7.35-13.78,7.35S565.51,37,565.51,32.32s5.25-7.39,13.82-7.39S593.11,27.62,593.11,32.32ZM568.32,19c1.51,0,2.56-.71,2.56-2.14s-1-2.18-2.56-2.18-2.56.71-2.56,2.18S566.81,19,568.32,19Zm18,13.36c0-1.72-2.18-2.35-7-2.35s-7,.63-7,2.35,2.18,2.31,7,2.31S586.3,34,586.3,32.32Zm-1.55-8.82h-6.3V.9h6.3V9.35h1.72V.15h6.43V24.68h-6.43V14.77h-1.72Z"/><path class="cls-2" d="M410.28,18.88,400,13a1.18,1.18,0,0,0-1.77,1v11.7a1.18,1.18,0,0,0,1.77,1l10.24-5.85A1.18,1.18,0,0,0,410.28,18.88Z"/><path class="cls-1" d="M665.75,24.85c1.39-.08,2.81-.25,4.16-.42l.38,4.91c-8.19,1.43-17.1,1.6-24.07,1.64l-.67-5.42h3.95V8.8h-2.9V3.47h22.05V8.8h-2.9Zm-9.7.59,3.15-.13V8.8H656ZM678.77.19v39.4H672V.19Z"/><path class="cls-1" d="M720,29.68v5.46H684.31V29.68Zm-3.66-6.39h-28.1V3.17h27.85V8.59H695V18h21.34Z"/><path class="cls-1" d="M739.88,22.12H724.09V2.67h6.34V7.83h3.19V2.67h6.26Zm-10.63,3.36h27.47V39.63h-6.81V30.77H729.25ZM733.62,13h-3.19v3.91h3.19ZM756.73.19V23.92H750.3V14.85h-2v9H742V.86h6.3V9.47h2V.19Z"/><path class="cls-2" d="M625.28,18.88,615,13a1.18,1.18,0,0,0-1.77,1v11.7a1.18,1.18,0,0,0,1.77,1l10.24-5.85A1.18,1.18,0,0,0,625.28,18.88Z"/><path class="cls-1" d="M833.94,24c-7.81,1.47-16.51,1.6-22.89,1.6l-.8-5.29c2.52,0,5.42,0,8.49-.08V17.56c-3.91-1-6.55-3.95-6.51-7.69,0-4.75,4.2-8.15,9.91-8.15s9.91,3.4,9.91,8.15c0,3.74-2.6,6.64-6.51,7.65V20c2.73-.17,5.42-.42,7.94-.76Zm-12,9.79H843.4v5.33H815.13V27.72h6.8Zm-3.4-23.9c0,2.06,1.47,3.11,3.61,3.11s3.61-1.05,3.61-3.11-1.47-3.11-3.61-3.11S818.53,7.77,818.53,9.87Zm28.14,2.27v5.5h-4.54V30.29h-6.81V.29h6.81V12.14Z"/><path class="cls-1" d="M884.81,30.16v5.46H849.1V30.16h8.53V24.87h-4.58V11.09h21.26V7.94H853V2.6h28V16.3H859.77v3.23h22.1v5.33H876.7v5.29Zm-20.5,0H870V24.87h-5.71Z"/><path class="cls-1" d="M921,19.49H901.48v-17H921Zm1.51,9.79c.84,2.1,4,4.75,12,5.29l-2.14,5c-6.76-.5-11.13-2.56-13.53-5.29-2.39,2.73-6.8,4.75-13.57,5.29l-2.14-5c8.15-.55,11.22-3.11,12-5.29H904.67v-5h10.67V21.47h6.93v2.81h10.67v5ZM914.33,7.77h-6.17v6.47h6.17Zm18.19,14.7h-6.8V.29h6.8Z"/><path class="cls-1" d="M970.7,24.28A14.11,14.11,0,0,1,962,17.14,14.77,14.77,0,0,1,952.88,25l-3.4-5.38c6.72-2.14,8.91-7.06,9-11.64h-7.22V2.65h21.3V8H965.4c.08,4.29,2.18,8.91,8.57,11Zm13.36,9.49v5.33H956.71V26.59h6.8v7.18Zm-7.65-23.69V.29h6.8V28.94h-6.8V15.5H971.2V10.08Z"/><path class="cls-1" d="M1011.27,17.9c-4.83,1.09-9.58,1.3-18.19,1.3h-3.4v-17h17.81V7.44h-11v6.51a70.09,70.09,0,0,0,14.16-1.26ZM1000,34h20.84v5.25H993.29V27.72h19.83V26.38H993.25V21.13h26.59V32.64H1000Zm24.74-26.8v5.42h-4.92V19.7H1013V.21h6.81v7Z"/><path class="cls-2" d="M789.28,18.88,779,13a1.18,1.18,0,0,0-1.77,1v11.7a1.18,1.18,0,0,0,1.77,1l10.24-5.85A1.18,1.18,0,0,0,789.28,18.88Z"/></g></g></svg>