<svg width="32" height="32" viewBox="0 0 32 32" fill="none" xmlns="http://www.w3.org/2000/svg">
<path fill-rule="evenodd" clip-rule="evenodd" d="M5.51505 21.8493C5.1187 21.1403 4.7922 20.3869 4.54486 19.5985C5.27295 19.8015 6.03382 19.9314 6.81812 19.9792C7.04356 19.993 7.27093 20 7.50001 20C13.299 20 18 15.5228 18 10C18 8.60342 17.6994 7.2737 17.1564 6.06633C16.846 5.37598 16.4563 4.72563 15.9983 4.12565C15.9662 4.08365 15.9338 4.04189 15.9011 4.00039C15.9335 4.00013 15.9659 4 15.9983 4C16.8483 4 17.6778 4.08838 18.4778 4.25644C23.9165 5.39886 28 10.2234 28 16.0017C28 22.6301 22.6266 28.0034 15.9983 28.0034C11.493 28.0034 7.56751 25.521 5.51505 21.8493ZM19.5 6.63015C19.825 7.69837 20 8.82928 20 10C20 16.5575 14.5795 21.7465 7.98682 21.991C9.81179 24.4277 12.7224 26.0034 15.9983 26.0034C21.5221 26.0034 26 21.5255 26 16.0017C26 11.7099 23.2967 8.04944 19.5 6.63015Z" fill="#5C5D64"/>
<path d="M19.5002 6.63013C19.8252 7.69834 20.0001 8.82926 20.0001 9.99998C20.0001 16.5575 14.5796 21.7464 7.98694 21.991C9.81191 24.4277 12.7225 26.0034 15.9984 26.0034C21.5222 26.0034 26.0001 21.5255 26.0001 16.0017C26.0001 11.7099 23.2969 8.04942 19.5002 6.63013Z" fill="#5C5D64" fill-opacity="0.5"/>
</svg>
