<svg width="32" height="32" viewBox="0 0 32 32" fill="none" xmlns="http://www.w3.org/2000/svg">
<path fill-rule="evenodd" clip-rule="evenodd" d="M15 6C15 6.55228 15.4477 7 16 7C16.5523 7 17 6.55228 17 6V3C17 2.44772 16.5523 2 16 2C15.4477 2 15 2.44772 15 3V6ZM16 22C19.3137 22 22 19.3137 22 16C22 12.6863 19.3137 10 16 10C12.6863 10 10 12.6863 10 16C10 19.3137 12.6863 22 16 22ZM16 24C20.4183 24 24 20.4183 24 16C24 11.5817 20.4183 8 16 8C11.5817 8 8 11.5817 8 16C8 20.4183 11.5817 24 16 24ZM30 16C30 16.5523 29.5523 17 29 17H26C25.4477 17 25 16.5523 25 16C25 15.4477 25.4477 15 26 15H29C29.5523 15 30 15.4477 30 16ZM6 17C6.55228 17 7 16.5523 7 16C7 15.4477 6.55228 15 6 15H3C2.44772 15 2 15.4477 2 16C2 16.5523 2.44772 17 3 17H6ZM16 30C15.4477 30 15 29.5523 15 29V26C15 25.4477 15.4477 25 16 25C16.5523 25 17 25.4477 17 26V29C17 29.5523 16.5523 30 16 30ZM25.8995 25.8995C25.509 26.29 24.8758 26.29 24.4853 25.8995L22.364 23.7782C21.9735 23.3876 21.9735 22.7545 22.364 22.364C22.7545 21.9734 23.3877 21.9734 23.7782 22.364L25.8995 24.4853C26.29 24.8758 26.29 25.509 25.8995 25.8995ZM8.22182 9.63606C8.61234 10.0266 9.24551 10.0266 9.63603 9.63606C10.0266 9.24554 10.0266 8.61237 9.63603 8.22185L7.51471 6.10053C7.12419 5.71 6.49102 5.71 6.1005 6.10053C5.70998 6.49105 5.70998 7.12422 6.1005 7.51474L8.22182 9.63606ZM6.10051 25.8995C5.70999 25.509 5.70999 24.8758 6.10051 24.4853L8.22183 22.364C8.61236 21.9735 9.24552 21.9735 9.63604 22.364C10.0266 22.7545 10.0266 23.3877 9.63604 23.7782L7.51472 25.8995C7.1242 26.29 6.49103 26.29 6.10051 25.8995ZM22.3639 8.22182C21.9734 8.61234 21.9734 9.24551 22.3639 9.63603C22.7545 10.0266 23.3876 10.0266 23.7782 9.63603L25.8995 7.51471C26.29 7.12419 26.29 6.49102 25.8995 6.1005C25.5089 5.70998 24.8758 5.70998 24.4853 6.1005L22.3639 8.22182Z" fill="#DBDDED"/>
<path d="M16 22C19.3137 22 22 19.3137 22 16C22 12.6863 19.3137 10 16 10C12.6863 10 10 12.6863 10 16C10 19.3137 12.6863 22 16 22Z" fill="#DBDDED" fill-opacity="0.5"/>
</svg>
