<svg width="200" height="200" viewBox="0 0 200 200" fill="none" xmlns="http://www.w3.org/2000/svg">
<path d="M0 100C0 44.7715 44.7715 0 100 0V0C155.228 0 200 44.7715 200 100V100C200 155.228 155.228 200 100 200V200C44.7715 200 0 155.228 0 100V100Z" fill="#26283D"/>
<circle cx="100" cy="100" r="88" fill="#5BF5FF"/>
<g clip-path="url(#clip0)">
<path d="M152 172H144C142.939 172 141.922 172.421 141.172 173.172C140.421 173.922 140 174.939 140 176C140 177.061 140.421 178.078 141.172 178.828C141.922 179.579 142.939 180 144 180H152C153.061 180 154.078 179.579 154.828 178.828C155.579 178.078 156 177.061 156 176C156 174.939 155.579 173.922 154.828 173.172C154.078 172.421 153.061 172 152 172V172Z" fill="#26283D"/>
<path d="M56 172H48C46.9391 172 45.9217 172.421 45.1716 173.172C44.4214 173.922 44 174.939 44 176C44 177.061 44.4214 178.078 45.1716 178.828C45.9217 179.579 46.9391 180 48 180H56C57.0609 180 58.0783 179.579 58.8284 178.828C59.5786 178.078 60 177.061 60 176C60 174.939 59.5786 173.922 58.8284 173.172C58.0783 172.421 57.0609 172 56 172V172Z" fill="#26283D"/>
<path d="M90.4 104H71.2C70.3513 104 69.5374 104.337 68.9373 104.937C68.3371 105.537 68 106.351 68 107.2V109.12C68 109.459 68.1349 109.785 68.3749 110.025C68.6149 110.265 68.9405 110.4 69.28 110.4H71.2V121.6C71.2 123.297 71.8743 124.925 73.0745 126.125C74.2748 127.326 75.9026 128 77.6 128C79.2974 128 80.9253 127.326 82.1255 126.125C83.3257 124.925 84 123.297 84 121.6V110.4H90.4C91.2487 110.4 92.0626 110.063 92.6627 109.463C93.2629 108.863 93.6 108.049 93.6 107.2C93.6 106.351 93.2629 105.537 92.6627 104.937C92.0626 104.337 91.2487 104 90.4 104Z" fill="#26283D"/>
<path d="M135.2 104H116C115.151 104 114.337 104.337 113.737 104.937C113.137 105.537 112.8 106.351 112.8 107.2V109.12C112.8 109.459 112.935 109.785 113.175 110.025C113.415 110.265 113.741 110.4 114.08 110.4H116V121.6C116 123.297 116.674 124.925 117.875 126.125C119.075 127.326 120.703 128 122.4 128C124.097 128 125.725 127.326 126.926 126.125C128.126 124.925 128.8 123.297 128.8 121.6V110.4H135.2C136.049 110.4 136.863 110.063 137.463 109.463C138.063 108.863 138.4 108.049 138.4 107.2C138.4 106.351 138.063 105.537 137.463 104.937C136.863 104.337 136.049 104 135.2 104Z" fill="#26283D"/>
<path d="M132 172H122C121.47 172 120.961 171.789 120.586 171.414C120.211 171.039 120 170.53 120 170C120 169.47 120.211 168.961 120.586 168.586C120.961 168.211 121.47 168 122 168H132C139.752 168 145.688 165.952 149.6 161.912C155.664 155.712 155.456 146.6 155.32 140.568C155.32 139.08 155.256 137.672 155.32 136.744L167.8 92.28C168.011 91.5245 167.996 90.7235 167.756 89.9767C167.515 89.2299 167.06 88.5703 166.448 88.08L102.448 36.88C101.739 36.314 100.859 36.0057 99.952 36.0057C99.045 36.0057 98.1648 36.314 97.456 36.88L33.456 88.08C32.7862 88.6288 32.3125 89.3802 32.1062 90.2212C31.9 91.0622 31.9722 91.9475 32.312 92.744L50.64 136.656C49.84 146.672 52.128 154.904 57.208 160.496C61.672 165.4 68.168 168 76 168H94C94.263 167.999 94.5235 168.05 94.7667 168.15C95.0098 168.25 95.2307 168.397 95.4166 168.583C95.6025 168.769 95.7498 168.99 95.85 169.233C95.9501 169.477 96.0011 169.737 96 170C96 170.53 95.7893 171.039 95.4143 171.414C95.0392 171.789 94.5305 172 94 172H68C66.9392 172 65.9218 172.421 65.1716 173.172C64.4215 173.922 64 174.939 64 176C64 177.061 64.4215 178.078 65.1716 178.828C65.9218 179.579 66.9392 180 68 180H94C96.6522 180 99.1957 178.946 101.071 177.071C102.946 175.196 104 172.652 104 170C104 167.348 102.946 164.804 101.071 162.929C99.1957 161.054 96.6522 160 94 160H76C70.4 160 66.072 158.36 63.128 155.112C59.712 151.352 58.112 145.272 58.568 137.872L59.032 138.488C65.368 146.488 78.288 156 103.832 156C128.032 156 140.752 147.464 147.304 139.768C147.304 140.096 147.304 140.416 147.304 140.752C147.424 146 147.576 152.528 143.864 156.32C141.464 158.72 137.464 160 131.952 160H122C119.348 160 116.804 161.054 114.929 162.929C113.054 164.804 112 167.348 112 170C112 172.652 113.054 175.196 114.929 177.071C116.804 178.946 119.348 180 122 180H132C133.061 180 134.078 179.579 134.828 178.828C135.579 178.078 136 177.061 136 176C136 174.939 135.579 173.922 134.828 173.172C134.078 172.421 133.061 172 132 172V172ZM100 45.12L159.432 92.672L154.872 108.928C154.352 105.864 153.752 103.072 153.184 100.48L153.08 99.992C152.257 96.1816 150.351 92.6898 147.592 89.936L147.168 89.512C143.926 86.2934 139.703 84.247 135.168 83.696C130.963 83.221 126.934 81.7392 123.424 79.376L123.032 79.104C117.08 74.832 114.104 68.464 112.632 62.96C112.51 62.4372 112.284 61.9442 111.968 61.5105C111.652 61.0768 111.251 60.7111 110.791 60.4354C110.33 60.1597 109.819 59.9796 109.287 59.9057C108.755 59.8318 108.214 59.8657 107.696 60.0053C107.177 60.145 106.692 60.3875 106.27 60.7186C105.847 61.0496 105.496 61.4623 105.236 61.9321C104.976 62.4019 104.814 62.9192 104.758 63.4531C104.702 63.9871 104.755 64.5267 104.912 65.04C106.367 70.7314 109.104 76.0151 112.912 80.488C111.186 80.847 109.442 81.1141 107.688 81.288C88.376 83.088 77.448 71.848 73.36 66.4L100 45.12ZM103.864 148C62.784 148 59.48 121.88 59.28 119.8C59.1296 111.514 58.192 103.261 56.48 95.152L66.528 87C66.9651 86.6794 67.3325 86.2734 67.6079 85.8065C67.8832 85.3396 68.0608 84.8216 68.1299 84.284C68.1989 83.7463 68.158 83.2003 68.0095 82.679C67.8611 82.1576 67.6082 81.6719 67.2663 81.2513C66.9244 80.8307 66.5006 80.484 66.0205 80.2322C65.5405 79.9804 65.0144 79.8288 64.474 79.7866C63.9336 79.7444 63.3902 79.8125 62.8769 79.9867C62.3636 80.1609 61.8911 80.4376 61.488 80.8L49.488 90.536C48.8845 91.0258 48.4367 91.6808 48.1994 92.421C47.9621 93.1613 47.9457 93.9546 48.152 94.704C49.9093 102.073 50.9303 109.598 51.2 117.168L40.856 92.44L67.12 71.432C71.3506 77.0625 76.8384 81.6266 83.1457 84.7601C89.453 87.8936 96.4053 89.5099 103.448 89.48C105.048 89.48 106.696 89.4 108.4 89.24C112.451 88.8389 116.452 88.0349 120.344 86.84C124.545 89.4013 129.245 91.0376 134.128 91.64C136.917 91.9704 139.516 93.2235 141.512 95.2L141.936 95.624C143.607 97.2948 144.762 99.4109 145.264 101.72L145.368 102.208C146.678 107.689 147.561 113.263 148.008 118.88C147.91 119.184 147.848 119.498 147.824 119.816C147.76 120.936 145.656 148 103.864 148Z" fill="#26283D"/>
<path d="M149.68 68.864L161.504 78.32C162.336 78.9237 163.369 79.1838 164.388 79.0462C165.407 78.9085 166.334 78.3838 166.976 77.5809C167.619 76.778 167.927 75.7586 167.838 74.7343C167.748 73.71 167.268 72.7595 166.496 72.08L154.672 62.616C153.841 61.9861 152.796 61.7059 151.761 61.8351C150.726 61.9642 149.783 62.4926 149.131 63.3074C148.48 64.1223 148.173 65.1593 148.276 66.1973C148.378 67.2353 148.882 68.1922 149.68 68.864V68.864Z" fill="#26283D" fill-opacity="0.6"/>
<path d="M36.0001 79.2C36.9078 79.1984 37.788 78.888 38.4961 78.32L100 29.12L137.504 59.12C138.336 59.7237 139.369 59.9838 140.388 59.8461C141.407 59.7085 142.334 59.1838 142.976 58.3809C143.619 57.578 143.927 56.5586 143.838 55.5343C143.748 54.51 143.268 53.5594 142.496 52.88L102.496 20.88C101.787 20.314 100.907 20.0057 100 20.0057C99.093 20.0057 98.2129 20.314 97.5041 20.88L33.5041 72.08C32.8584 72.598 32.3894 73.3036 32.1616 74.0994C31.9338 74.8952 31.9586 75.7421 32.2324 76.5233C32.5063 77.3044 33.0157 77.9814 33.6906 78.4608C34.3654 78.9403 35.1723 79.1985 36.0001 79.2V79.2Z" fill="#26283D"/>
<path d="M92.6321 94.512L87.7361 93.536C87.3183 93.4379 86.8851 93.4249 86.4622 93.4976C86.0393 93.5703 85.6354 93.7274 85.2744 93.9594C84.9135 94.1914 84.6028 94.4937 84.361 94.8482C84.1193 95.2027 83.9512 95.6022 83.867 96.023C83.7827 96.4437 83.784 96.8771 83.8706 97.2974C83.9572 97.7176 84.1275 98.1162 84.3713 98.4693C84.6151 98.8225 84.9274 99.1229 85.2897 99.3529C85.652 99.5829 86.0568 99.7377 86.4801 99.808L91.3681 100.8C91.5763 100.841 91.7879 100.862 92.0001 100.864C92.8002 100.873 93.5748 100.582 94.1711 100.049C94.7674 99.5153 95.1421 98.7777 95.2214 97.9814C95.3007 97.1852 95.0789 96.3881 94.5996 95.7474C94.1203 95.1067 93.4183 94.6688 92.6321 94.52V94.512Z" fill="#26283D"/>
<path d="M116 100.856C116.212 100.854 116.424 100.833 116.632 100.792L121.52 99.808C121.943 99.7377 122.348 99.5829 122.71 99.3529C123.073 99.1229 123.385 98.8225 123.629 98.4693C123.873 98.1162 124.043 97.7176 124.13 97.2974C124.216 96.8771 124.217 96.4437 124.133 96.023C124.049 95.6022 123.881 95.2027 123.639 94.8482C123.397 94.4937 123.087 94.1914 122.726 93.9594C122.365 93.7274 121.961 93.5703 121.538 93.4976C121.115 93.4249 120.682 93.4379 120.264 93.536L115.368 94.512C114.582 94.6608 113.88 95.0987 113.401 95.7394C112.921 96.3801 112.699 97.1772 112.779 97.9734C112.858 98.7697 113.233 99.5073 113.829 100.041C114.425 100.574 115.2 100.865 116 100.856V100.856Z" fill="#26283D"/>
<path d="M83.92 69.6C84.168 69.6 90.128 69.904 97.168 76.952C97.918 77.7031 98.9357 78.1255 99.9972 78.1262C101.059 78.127 102.077 77.706 102.828 76.956C103.579 76.2059 104.001 75.1883 104.002 74.1268C104.003 73.0654 103.582 72.0471 102.832 71.296C93.464 61.936 84.96 61.6 84 61.6C82.9391 61.6 81.9217 62.0214 81.1716 62.7715C80.4214 63.5217 80 64.5391 80 65.6C79.9998 66.6471 80.4102 67.6526 81.1431 68.4005C81.8761 69.1484 82.8731 69.579 83.92 69.6V69.6Z" fill="#26283D"/>
<path d="M164 132C162.939 132 161.922 132.421 161.172 133.172C160.422 133.922 160 134.939 160 136V152C160 152.056 159.896 157.696 156.32 161.16C155.919 161.519 155.595 161.956 155.367 162.443C155.139 162.931 155.012 163.459 154.993 163.997C154.974 164.534 155.064 165.071 155.257 165.573C155.45 166.075 155.742 166.533 156.117 166.92C156.491 167.307 156.939 167.614 157.435 167.823C157.931 168.032 158.464 168.139 159.002 168.138C159.54 168.136 160.072 168.026 160.567 167.814C161.061 167.602 161.508 167.293 161.88 166.904C167.928 161.056 168 152.392 168 152.024V136C168 134.939 167.579 133.922 166.829 133.172C166.078 132.421 165.061 132 164 132V132Z" fill="#26283D"/>
<path d="M48.224 165.072C49.105 164.483 49.716 163.568 49.923 162.528C50.13 161.489 49.916 160.41 49.328 159.528C43.016 150.072 44.064 136.504 44.08 136.328C44.1252 135.803 44.0664 135.274 43.9071 134.771C43.7479 134.268 43.4912 133.802 43.1517 133.399C42.8122 132.995 42.3966 132.663 41.9285 132.42C41.4605 132.177 40.9493 132.029 40.424 131.984C39.8987 131.939 39.3697 131.997 38.8671 132.157C38.3645 132.316 37.8982 132.573 37.4948 132.912C37.0914 133.252 36.7589 133.667 36.5161 134.135C36.2734 134.603 36.1252 135.115 36.08 135.64C36.024 136.304 34.744 152.112 42.648 163.952C42.9398 164.389 43.315 164.765 43.752 165.057C44.1891 165.349 44.6795 165.552 45.1951 165.655C45.7108 165.757 46.2416 165.757 46.7572 165.655C47.2728 165.552 47.7631 165.348 48.2 165.056L48.224 165.072Z" fill="#26283D"/>
</g>
<path d="M24.6667 137.333C23.7826 137.333 22.9348 136.982 22.3096 136.357C21.6845 135.732 21.3333 134.884 21.3333 134V134C21.3333 132.347 20.7533 124 11.3333 124C10.4493 124 9.60143 123.649 8.97631 123.024C8.35119 122.399 8 121.551 8 120.667C8 119.783 8.35119 118.935 8.97631 118.31C9.60143 117.685 10.4493 117.333 11.3333 117.333C13.0133 117.333 21.3333 116.727 21.3333 107.333C21.3333 106.449 21.6845 105.601 22.3096 104.976C22.9348 104.351 23.7826 104 24.6667 104C25.5507 104 26.3986 104.351 27.0237 104.976C27.6488 105.601 28 106.449 28 107.333C28 108.987 28.5933 117.333 38 117.333C38.8841 117.333 39.7319 117.685 40.357 118.31C40.9821 118.935 41.3333 119.783 41.3333 120.667C41.3333 121.551 40.9821 122.399 40.357 123.024C39.7319 123.649 38.8841 124 38 124C36.3467 124 28 124.58 28 134C28 134.884 27.6488 135.732 27.0237 136.357C26.3986 136.982 25.5507 137.333 24.6667 137.333V137.333ZM21.7867 120.667C22.8616 121.51 23.8131 122.499 24.6133 123.607C25.4515 122.53 26.4367 121.576 27.54 120.773C26.4668 119.938 25.5173 118.955 24.72 117.853C23.876 118.912 22.8887 119.847 21.7867 120.633V120.667Z" fill="#26283D"/>
<path d="M68 66.6667L98.3333 42L162.333 89C160.889 94.6667 157.933 106.2 157.667 107C157.4 107.8 153.556 114 151.667 117C150.222 112.333 147.267 102.467 147 100.333C146.733 98.2 142.222 92.5555 140 90C131.333 87.6667 113.867 83.2667 113.333 84.3333C112.8 85.4 89.7778 82.1111 78.3333 80.3333L68 66.6667Z" fill="#26283D" fill-opacity="0.6"/>
<rect x="20.6666" y="115.333" width="8.66667" height="10.6667" fill="#26283D" fill-opacity="0.6"/>
<path d="M177.333 122.667C176.449 122.667 175.601 122.315 174.976 121.69C174.351 121.065 174 120.217 174 119.333V119.333C174 117.68 173.42 109.333 164 109.333C163.116 109.333 162.268 108.982 161.643 108.357C161.018 107.732 160.667 106.884 160.667 106C160.667 105.116 161.018 104.268 161.643 103.643C162.268 103.018 163.116 102.667 164 102.667C165.68 102.667 174 102.06 174 92.6666C174 91.7826 174.351 90.9347 174.976 90.3096C175.601 89.6845 176.449 89.3333 177.333 89.3333C178.217 89.3333 179.065 89.6845 179.69 90.3096C180.315 90.9347 180.667 91.7826 180.667 92.6666C180.667 94.32 181.26 102.667 190.667 102.667C191.551 102.667 192.399 103.018 193.024 103.643C193.649 104.268 194 105.116 194 106C194 106.884 193.649 107.732 193.024 108.357C192.399 108.982 191.551 109.333 190.667 109.333C189.013 109.333 180.667 109.913 180.667 119.333C180.667 120.217 180.315 121.065 179.69 121.69C179.065 122.315 178.217 122.667 177.333 122.667V122.667ZM174.453 106C175.528 106.843 176.48 107.833 177.28 108.94C178.118 107.863 179.103 106.909 180.207 106.107C179.133 105.271 178.184 104.288 177.387 103.187C176.543 104.245 175.555 105.181 174.453 105.967V106Z" fill="#26283D"/>
<rect x="173.333" y="100.667" width="8.66667" height="10.6667" fill="#26283D" fill-opacity="0.6"/>
<defs>
<clipPath id="clip0">
<rect x="32" y="20" width="136" height="160" fill="white"/>
</clipPath>
</defs>
</svg>
