<?xml version="1.0" encoding="UTF-8"?>
<svg width="250px" height="250px" viewBox="0 0 250 250" version="1.1" xmlns="http://www.w3.org/2000/svg" xmlns:xlink="http://www.w3.org/1999/xlink">
    <!-- Generator: Sketch 55.2 (78181) - https://sketchapp.com -->
    <title>Group</title>
    <desc>Created with Sketch.</desc>
    <defs>
        <circle id="path-1" cx="125" cy="125" r="125"></circle>
    </defs>
    <g id="Page-1" stroke="none" stroke-width="1" fill="none" fill-rule="evenodd">
        <g id="Desktop-HD" transform="translate(-595.000000, -143.000000)">
            <g id="Group" transform="translate(595.000000, 143.000000)">
                <mask id="mask-2" fill="white">
                    <use xlink:href="#path-1"></use>
                </mask>
                <use id="Oval" fill="#39FFE8" xlink:href="#path-1"></use>
                <polygon id="Path-2" fill-opacity="0.34803868" fill="#1E086B" mask="url(#mask-2)" points="125 50.7827929 84.9895051 80.656973 104.994753 100.361785 143.467664 105.146568 158.886474 105.146568 180.595801 115.839737 191.207529 143.997256 197.755066 135.924451 204.505636 112.026235"></polygon>
                <path d="M112.990177,129.000432 C115.198151,129.000432 116.98913,130.791411 116.98913,132.999385 C116.98913,135.208359 115.198151,136.999338 112.990177,136.999338 L104.998271,136.999338 L104.998271,150.999174 C104.998271,155.398123 101.398313,158.999081 96.9983644,158.999081 C92.5984159,158.999081 88.9984581,155.398123 88.9984581,150.999174 L88.9984581,136.999338 L86.5894863,136.999338 C85.7054967,136.999338 84.9895051,136.282347 84.9895051,135.399357 L84.9895051,132.999385 C84.9895051,130.791411 86.7804841,129.000432 88.9894582,129.000432 L96.9703647,129.000432 C96.9793646,129.000432 96.9893645,128.999432 96.9983644,128.999432 C97.0073643,128.999432 97.0163642,129.000432 97.0253641,129.000432 L112.990177,129.000432 Z M169.000321,128.999432 C171.208295,128.999432 172.999274,130.789411 172.999274,132.998385 C172.999274,135.207359 171.208295,136.997338 169.000321,136.997338 L160.999415,136.997338 L160.999415,150.997174 C160.999415,155.397123 157.399457,158.997081 152.999509,158.997081 C148.59956,158.997081 144.999602,155.397123 144.999602,150.997174 L144.999602,136.997338 L142.59963,136.997338 C141.715641,136.997338 140.999649,136.281347 140.999649,135.397357 L140.999649,132.998385 C140.999649,130.789411 142.790628,128.999432 144.999602,128.999432 L152.964509,128.999432 C152.976509,128.999432 152.987509,128.997432 152.999509,128.997432 C153.011508,128.997432 153.022508,128.999432 153.034508,128.999432 L169.000321,128.999432 Z M113.773868,117.144071 C115.939843,117.578066 117.343826,119.685041 116.910831,121.851016 C116.530836,123.751993 114.860855,125.066978 112.992877,125.066978 C112.73288,125.066978 112.468883,125.040978 112.203886,124.987979 L106.088958,123.763993 C103.922983,123.330998 102.519,121.223023 102.952995,119.057048 C103.38499,116.892074 105.484965,115.48009 107.65994,115.920085 L113.773868,117.144071 Z M144.996202,125.066878 C143.128224,125.066878 141.458244,123.752893 141.078248,121.850916 C140.644253,119.684941 142.049237,117.577966 144.215211,117.143971 L150.32914,115.920985 C152.500114,115.47999 154.60309,116.891974 155.036085,119.056948 C155.47008,121.222923 154.065096,123.330898 151.899121,123.763893 L145.785193,124.987879 C145.520196,125.041878 145.256199,125.066878 144.996202,125.066878 Z M190.505869,124.808081 C191.478858,129.287029 192.544845,134.230971 193.285837,139.924904 L200.431753,114.468202 L124.999636,54.1219089 L90.3210426,81.865584 C94.2019972,87.2645208 104.344878,98.7063868 121.989672,101.305356 C117.194728,96.7154101 112.539782,89.7804913 111.0418,79.5806108 C110.721804,77.3956364 112.233786,75.3636602 114.41876,75.0426639 C116.607735,74.7196677 118.636711,76.23365 118.957707,78.4186244 C121.29468,94.336438 133.283539,100.13137 136.427503,101.389355 C138.507478,101.129358 140.662453,100.750363 142.890427,100.241369 C136.713499,93.6154464 133.614536,85.7395387 132.082554,80.0376054 C131.50956,77.9046304 132.775545,75.7096561 134.90752,75.1366628 C137.037496,74.5656695 139.23547,75.8296547 139.809463,77.9626297 C142.186435,86.8105261 149.115354,102.038348 168.822123,104.612318 C174.426058,105.344309 179.413999,107.758281 183.249954,111.592236 L183.780948,112.12423 C187.100909,115.442191 189.380882,119.620142 190.374871,124.204088 L190.505869,124.808081 Z M185.780925,148.7878 C185.801924,148.423805 185.885923,148.079809 185.996922,147.749812 C185.458928,139.307911 183.984946,132.473991 182.688961,126.505061 L182.556962,125.900068 C181.88897,122.819104 180.356988,120.011137 178.125014,117.782163 L177.594021,117.24917 C175.017051,114.6732 171.62509,113.046219 167.786135,112.544225 C160.757218,111.626235 155.056284,109.418261 150.425339,106.491296 C145.570396,107.974278 140.995449,108.910267 136.702499,109.393262 C136.454502,109.442261 136.201505,109.475261 135.944508,109.475261 C135.938508,109.475261 135.932508,109.473261 135.926509,109.473261 C133.707535,109.698258 131.55456,109.817257 129.487584,109.817257 C115.888743,109.817257 105.584864,105.30331 98.5449463,100.607365 C91.4910289,95.9014196 86.7490845,90.4454835 84.0901156,86.8505256 L49.8535166,114.240205 L65.1263377,150.824776 C64.8983404,130.234018 61.171384,115.168194 61.1223846,114.979196 C60.7183893,113.377215 61.339382,111.690235 62.6863663,110.735246 L82.6751322,96.558412 C84.480111,95.2814269 86.9740818,95.704422 88.2520668,97.5064008 C89.5300519,99.3093797 89.1060568,101.805351 87.304078,103.083336 L69.4922866,115.715188 C70.5972736,120.935126 72.8092477,133.210983 73.1152441,148.931799 C73.4502402,152.23976 78.0901859,184.998376 129.82958,184.998376 C183.086956,184.998376 185.695926,150.266783 185.780925,148.7878 Z M193.452835,168.934564 L211.314626,220.800061 C211.977618,222.908036 210.805632,225.15301 208.697656,225.815002 C208.299661,225.941001 207.895666,226 207.49767,226 C205.79669,226 204.219709,224.908013 203.683715,223.199033 L191.883853,190.61631 C190.887865,194.242268 189.197885,197.754227 186.324918,200.693192 C181.587974,205.539136 174.412058,207.997107 164.999168,207.997107 L152.499314,207.997107 C150.569337,207.997107 148.999355,209.568088 148.999355,211.498066 C148.999355,213.428043 150.569337,214.998025 152.499314,214.998025 L164.999168,214.998025 C167.208142,214.998025 168.999121,216.789004 168.999121,218.997978 C168.999121,221.206952 167.208142,222.997931 164.999168,222.997931 L152.499314,222.997931 C146.158389,222.997931 140.999449,217.838992 140.999449,211.498066 C140.999449,205.15714 146.158389,199.997201 152.499314,199.997201 L164.999168,199.997201 C172.178084,199.997201 177.429022,198.35022 180.604985,195.101258 C185.537927,190.054317 185.33893,181.306419 185.193932,174.918494 C185.159932,173.438512 185.136932,172.093527 185.164932,170.856542 C185.017934,171.05254 184.873935,171.249537 184.721937,171.446535 C170.943098,189.259326 147.266376,192.998283 129.82958,192.998283 C112.406784,192.998283 88.6790618,189.266326 74.578227,171.484534 C73.8012361,170.503546 73.0902444,169.523557 72.4342521,168.549569 C72.4082524,168.827566 72.3862527,169.102562 72.360253,169.381559 C71.3482648,179.902436 73.3582413,188.264338 78.1711849,193.562276 C82.0501395,197.832226 87.7120732,199.997201 94.9999878,199.997201 L97.4989586,199.997201 C100.570923,199.997201 103.458889,201.194187 105.631863,203.367161 C107.803838,205.539136 108.999824,208.428102 108.998824,211.500066 C108.996824,217.839992 103.838884,222.997931 97.4989586,222.997931 L85.0001049,222.997931 C82.7911308,222.997931 81.0001518,221.206952 81.0001518,218.997978 C81.0001518,216.789004 82.7911308,214.998025 85.0001049,214.998025 L97.4989586,214.998025 C99.428936,214.998025 100.998918,213.428043 100.998918,211.498066 C100.998918,210.564077 100.634922,209.684087 99.9739296,209.023095 C99.3129373,208.362103 98.4339476,207.997107 97.4989586,207.997107 L94.9999878,207.997107 C85.4990991,207.997107 77.6321912,204.866144 72.2502543,198.942213 C68.8872936,195.239256 66.553321,190.560311 65.270336,185.088375 L47.7963336,223.199033 C47.1183415,224.652016 45.6753584,225.505006 44.170376,225.505006 C43.6033827,225.505006 43.0273894,225.384007 42.4793958,225.12801 C40.4784193,224.192021 39.6144294,221.811049 40.5504184,219.810072 L64.0063508,168.908565 L41.3096166,114.540201 C40.6216247,112.894221 41.108619,110.991243 42.5016027,109.876256 L122.500666,45.8760055 C123.961649,44.7070192 126.037624,44.7070192 127.498607,45.8760055 L207.49767,109.876256 C208.751656,110.879244 209.283649,112.535225 208.850654,114.080207 L193.452835,168.934564 Z M47.4997441,96.1229171 C45.7747643,97.5059009 43.2577938,97.2229042 41.87781,95.4989244 C40.4968261,93.7729446 40.7768229,91.2559741 42.5018026,89.8759902 L122.500866,25.8767397 C123.961849,24.7077534 126.037824,24.7077534 127.498807,25.8767397 L207.49787,89.8759902 C209.22285,91.2559741 209.502847,93.7729446 208.121863,95.4989244 C207.331872,96.4859128 206.169886,96.9999068 204.9959,96.9999068 C204.11991,96.9999068 203.23692,96.7139101 202.499929,96.1229171 L124.999836,34.1226432 L47.4997441,96.1229171 Z M189.999075,214.998425 C192.208049,214.998425 193.999028,216.789404 193.999028,218.998378 C193.999028,221.207352 192.208049,222.998331 189.999075,222.998331 L179.999192,222.998331 C177.790218,222.998331 175.999239,221.207352 175.999239,218.998378 C175.999239,216.789404 177.790218,214.998425 179.999192,214.998425 L189.999075,214.998425 Z M70.0004806,214.998425 C72.2094547,214.998425 74.0004338,216.789404 74.0004338,218.998378 C74.0004338,221.207352 72.2094547,222.998331 70.0004806,222.998331 L60.0005977,222.998331 C57.7916236,222.998331 56.0006446,221.207352 56.0006446,218.998378 C56.0006446,216.789404 57.7916236,214.998425 60.0005977,214.998425 L70.0004806,214.998425 Z" id="Combined-Shape" stroke="#1E086B" fill="#1E086B" mask="url(#mask-2)"></path>
            </g>
        </g>
    </g>
</svg>