<svg xmlns="http://www.w3.org/2000/svg" viewBox="0 0 60 60"><defs><style>.cls-1{fill:#fff;}</style></defs><title>ic_simbol</title><g id="레이어_2" data-name="레이어 2"><g id="레이어_1-2" data-name="레이어 1"><path class="cls-1" d="M52.57,7.43C46.34,1.2,38.17,0,30,0S13.66,1.2,7.43,7.43,0,21.83,0,30,1.2,46.34,7.43,52.57,21.83,60,30,60s16.34-1.2,22.57-7.43S60,38.17,60,30,58.8,13.66,52.57,7.43ZM27.93,28.6a.42.42,0,0,1-.21.36L6.16,41.41a.42.42,0,0,1-.6-.24A37,37,0,0,1,4.14,30c0-7,1-14.08,6.41-19.45,4.73-4.74,10.76-6.1,17-6.36a.41.41,0,0,1,.43.41Zm4.14-24a.41.41,0,0,1,.43-.41c6.19.26,12.22,1.62,17,6.36a19.4,19.4,0,0,1,2.9,3.67.42.42,0,0,1-.15.58L32.69,26.09a.41.41,0,0,1-.62-.36ZM49.45,49.49c-4.73,4.73-10.76,6.1-17,6.36a.41.41,0,0,1-.43-.42v-24a.41.41,0,0,1,.21-.36L53.84,18.66a.41.41,0,0,1,.6.24A36.86,36.86,0,0,1,55.86,30C55.86,37.07,54.83,44.12,49.45,49.49Z"/></g></g></svg>