<svg xmlns="http://www.w3.org/2000/svg" viewBox="0 0 145.32 95.86"><defs><style>.cls-1{fill:#fff;}</style></defs><title>subtitle</title><g id="레이어_2" data-name="레이어 2"><g id="레이어_1-2" data-name="레이어 1"><path class="cls-1" d="M.48,0H6C9.84,0,12.1,1.73,12.1,4.92A3.74,3.74,0,0,1,10.2,8.3a4.14,4.14,0,0,1,2.52,4c0,3.48-2.42,5.21-6.31,5.21H.48ZM3.82,3.07V7H6c2.07,0,2.79-.82,2.79-2S7.94,3.07,6,3.07Zm0,7v4.37H6.41c1.94,0,2.95-.79,2.95-2.21s-.67-2.16-3.12-2.16Z"/><path class="cls-1" d="M13.8,11.52A6.22,6.22,0,1,1,20,17.76,6.21,6.21,0,0,1,13.8,11.52Zm9.24,0A3.08,3.08,0,0,0,20,8.4a3,3,0,0,0-3,3.12,3,3,0,0,0,3,3.12A3.07,3.07,0,0,0,23,11.52Z"/><path class="cls-1" d="M27.55,0h3.29V17.52H27.55Z"/><path class="cls-1" d="M32.16,11.52A5.85,5.85,0,0,1,38,5.28,4.82,4.82,0,0,1,41.57,6.7V0h3.29V17.52H41.57V16.18a4.7,4.7,0,0,1-3.63,1.58A5.93,5.93,0,0,1,32.16,11.52Zm9.5,0a3.09,3.09,0,0,0-3.07-3.22,3.14,3.14,0,0,0-3.21,3.22,3.16,3.16,0,0,0,3.21,3.24A3.12,3.12,0,0,0,41.66,11.5Z"/><path class="cls-1" d="M52.18,5.52h2V2.71L57.5.91V5.52h2.26v3H57.5v3.82c0,1.87.24,2.16,2.26,2.16v3.07h-.48c-3.82,0-5.06-1.29-5.06-5.21V8.47h-2Z"/><path class="cls-1" d="M61.44,5.52H64.7v2a3.39,3.39,0,0,1,3.32-2h1.32V8.71H67.25c-1.75,0-2.52.92-2.52,3.15v5.66H61.44Z"/><path class="cls-1" d="M69.86,11.52A5.86,5.86,0,0,1,75.7,5.28,4.79,4.79,0,0,1,79.27,6.7V5.52h3.29v12H79.27V16.18a4.68,4.68,0,0,1-3.62,1.58A5.93,5.93,0,0,1,69.86,11.52Zm9.51,0A3.1,3.1,0,0,0,76.3,8.28a3.14,3.14,0,0,0-3.22,3.22,3.16,3.16,0,0,0,3.22,3.24A3.12,3.12,0,0,0,79.37,11.5Z"/><path class="cls-1" d="M83.78,5.52h3.39L90,13.32l2.73-7.8h3.34l-4.42,12H88.32Z"/><path class="cls-1" d="M95.88,11.52a6.22,6.22,0,1,1,12.43.05v1.06H99A3,3,0,0,0,102.1,15a2.49,2.49,0,0,0,2.52-1.44h3.5a6.29,6.29,0,0,1-12.24-2ZM99.24,10h5.66a2.8,2.8,0,0,0-2.78-1.78A3.15,3.15,0,0,0,99.24,10Z"/><path class="cls-1" d="M109.65,5.52h3.27v2a3.38,3.38,0,0,1,3.31-2h1.32V8.71h-2.09c-1.75,0-2.52.92-2.52,3.15v5.66h-3.29Z"/><path class="cls-1" d="M119,0h3.29V17.52H119Z"/><path class="cls-1" d="M123.65,11.52a6.22,6.22,0,1,1,12.43.05v1.06h-9.29A3,3,0,0,0,129.86,15a2.48,2.48,0,0,0,2.52-1.44h3.51a6.29,6.29,0,0,1-12.24-2ZM127,10h5.66a2.81,2.81,0,0,0-2.78-1.78A3.14,3.14,0,0,0,127,10Z"/><path class="cls-1" d="M137.42,5.52h3.27v2a3.38,3.38,0,0,1,3.31-2h1.32V8.71h-2.09c-1.75,0-2.52.92-2.52,3.15v5.66h-3.29Z"/><path class="cls-1" d="M2,26.36a1.9,1.9,0,0,1,2,2,1.88,1.88,0,0,1-2,2,1.87,1.87,0,0,1-2-2A1.89,1.89,0,0,1,2,26.36ZM.36,31.52H3.65v12H.36Z"/><path class="cls-1" d="M5.33,31.52H8.59v1.34a4.15,4.15,0,0,1,3.31-1.58c2.84,0,4.54,1.82,4.54,4.92v7.32H13.1V36.63c0-1.61-.74-2.54-2.2-2.54-1.25,0-2.28.86-2.28,2.88v6.55H5.33Z"/><path class="cls-1" d="M23.76,31.52h2V28.71l3.29-1.8v4.61h2.25v2.95H29.09v3.82c0,1.87.24,2.16,2.25,2.16v3.07h-.48c-3.81,0-5.06-1.29-5.06-5.21V34.47h-2Z"/><path class="cls-1" d="M33,26h3.27v6.84a4.21,4.21,0,0,1,3.31-1.56c2.83,0,4.54,1.82,4.54,4.92v7.32H40.8V36.66c0-1.64-.74-2.57-2.21-2.57-1.25,0-2.28.86-2.28,2.88v6.55H33Z"/><path class="cls-1" d="M45.45,37.52a6.22,6.22,0,1,1,12.44,0v1.06H48.6A3,3,0,0,0,51.67,41a2.48,2.48,0,0,0,2.52-1.44H57.7a6.3,6.3,0,0,1-12.25-2ZM48.81,36h5.67a2.81,2.81,0,0,0-2.78-1.78A3.16,3.16,0,0,0,48.81,36Z"/><path class="cls-1" d="M0,63.52a6.21,6.21,0,0,1,6.22-6.24,6,6,0,0,1,6.19,5.47H9.12a2.79,2.79,0,0,0-2.9-2.35,3.08,3.08,0,0,0-3.08,3.12,2.93,2.93,0,0,0,3.1,3.12,2.81,2.81,0,0,0,2.88-2.4h3.29a6,6,0,0,1-6.22,5.52A6,6,0,0,1,0,63.52Z"/><path class="cls-1" d="M13.63,57.52H16.9v2a3.38,3.38,0,0,1,3.31-2h1.32v3.19H19.44c-1.75,0-2.52.92-2.52,3.15v5.66H13.63Z"/><path class="cls-1" d="M22.06,63.52a6.22,6.22,0,1,1,12.43,0v1.06H25.2A3,3,0,0,0,28.27,67a2.48,2.48,0,0,0,2.52-1.44H34.3a6,6,0,0,1-6,4.25A6,6,0,0,1,22.06,63.52ZM25.42,62h5.66a2.82,2.82,0,0,0-2.78-1.78A3.14,3.14,0,0,0,25.42,62Z"/><path class="cls-1" d="M35.59,63.52a5.85,5.85,0,0,1,5.83-6.24A4.82,4.82,0,0,1,45,58.7V57.52h3.29v12H45V68.18a4.68,4.68,0,0,1-3.62,1.58A5.93,5.93,0,0,1,35.59,63.52Zm9.51,0A3.1,3.1,0,0,0,42,60.28,3.23,3.23,0,1,0,45.1,63.5Z"/><path class="cls-1" d="M49.73,57.52h2V54.71l3.29-1.8v4.61h2.25v2.95H55.06v3.82c0,1.87.24,2.16,2.25,2.16v3.07h-.48c-3.81,0-5.06-1.29-5.06-5.21V60.47h-2Z"/><path class="cls-1" d="M60.62,52.36a1.91,1.91,0,0,1,2,2,1.89,1.89,0,0,1-2,2,1.86,1.86,0,0,1-2-2A1.88,1.88,0,0,1,60.62,52.36ZM59,57.52h3.29v12H59Z"/><path class="cls-1" d="M63.5,57.52h3.39l2.81,7.8,2.73-7.8h3.34l-4.42,12H68Z"/><path class="cls-1" d="M75.6,63.52a6.22,6.22,0,1,1,12.43,0v1.06H78.74A3,3,0,0,0,81.82,67a2.49,2.49,0,0,0,2.52-1.44h3.5a6.29,6.29,0,0,1-12.24-2ZM79,62h5.66a2.81,2.81,0,0,0-2.78-1.78A3.15,3.15,0,0,0,79,62Z"/><path class="cls-1" d="M.36,90.84V83.52H3.7v6.89c0,1.68.69,2.54,2.08,2.54s2.07-.86,2.07-2.8V83.52h3.29v12H7.87V94.13a3.65,3.65,0,0,1-3.14,1.63C2,95.76.36,94,.36,90.84Z"/><path class="cls-1" d="M12.94,83.52H16.2v1.34a4.14,4.14,0,0,1,3.31-1.58c2.83,0,4.54,1.82,4.54,4.92v7.32H20.71V88.63c0-1.61-.74-2.54-2.21-2.54-1.24,0-2.28.86-2.28,2.88v6.55H12.94Z"/><path class="cls-1" d="M27.36,78.36a1.9,1.9,0,0,1,2,2,2,2,0,1,1-2-2Zm-1.63,5.16H29v12H25.73Z"/><path class="cls-1" d="M30.24,83.52h3.38l2.81,7.8,2.74-7.8H42.5l-4.41,12H34.78Z"/><path class="cls-1" d="M42.33,89.52a6.22,6.22,0,1,1,12.44,0v1.06H45.48A3,3,0,0,0,48.55,93a2.48,2.48,0,0,0,2.52-1.44h3.51a6,6,0,0,1-6,4.25A6,6,0,0,1,42.33,89.52ZM45.7,88h5.66a2.82,2.82,0,0,0-2.78-1.78A3.14,3.14,0,0,0,45.7,88Z"/><path class="cls-1" d="M56.11,83.52h3.27v2a3.38,3.38,0,0,1,3.31-2H64v3.19H61.92c-1.75,0-2.52.92-2.52,3.15v5.66H56.11Z"/><path class="cls-1" d="M64.92,91.46h3.31v.1a1.29,1.29,0,0,0,1.47,1.35c.93,0,1.29-.39,1.29-1.06S69.53,91,68,90.48s-3-1.34-3-3.55,1.65-3.65,4.39-3.65,4.66,1.35,4.66,4.1h-3.2v0A1.19,1.19,0,0,0,69.58,86c-.82,0-1.2.46-1.2,1,0,.7,1.44.82,2.9,1.32s2.88,1.37,2.88,3.53-1.51,4-4.46,4C66.53,95.76,64.92,94.35,64.92,91.46Z"/><path class="cls-1" d="M75,89.52a6.22,6.22,0,1,1,12.44,0v1.06H78.17A2.94,2.94,0,0,0,81.24,93a2.49,2.49,0,0,0,2.52-1.44h3.5a6.29,6.29,0,0,1-12.24-2ZM78.38,88h5.67a2.82,2.82,0,0,0-2.79-1.78A3.15,3.15,0,0,0,78.38,88Z"/><path class="cls-1" d="M90.43,91.9a2,2,0,1,1,0,4,2,2,0,0,1,0-4Z"/></g></g></svg>