<svg xmlns="http://www.w3.org/2000/svg" viewBox="0 0 734.2 240"><defs><style>.cls-1{fill:#fff;}</style></defs><title>logo_shrine_white</title><g id="레이어_2" data-name="레이어 2"><g id="레이어_1-2" data-name="레이어 1"><g id="레이어_2-2" data-name="레이어 2"><g id="레이어_1-2-2" data-name="레이어 1-2"><path class="cls-1" d="M317.59,139.05H339.2v1.18c0,9.17,6.36,15.69,15.39,15.69,9.47,0,14.65-5.18,14.65-12.87,0-8-9.92-11.69-20.87-16.28-13.76-5.77-29.45-13.17-29.45-33,0-17.32,13.62-29.9,34.19-29.9,22,0,35.52,11.4,35.52,33H368V95.69c0-9.62-5.77-13.62-14.8-13.62-8.29,0-13.62,4.74-13.62,11.1,0,8.44,10.36,12.28,21.76,17.17,13.76,5.92,28.86,13.47,28.86,32.41,0,16-10.8,32.11-35.37,32.11C331.06,174.87,317.59,162.14,317.59,139.05Z"/><path class="cls-1" d="M401.65,65.35h20.13v42.18a26,26,0,0,1,20.42-9.62c17.46,0,28,11.25,28,30.34v45.14H449.6V131.06c0-10.06-4.59-15.84-13.62-15.84-7.7,0-14.06,5.33-14.06,17.76v40.4H401.65Z"/><path class="cls-1" d="M483.49,99.39h20.13v12.13c3.7-7.7,10.36-12.13,20.42-12.13h8.14v19.68H519.31c-10.8,0-15.54,5.62-15.54,19.39v34.93H483.49Z"/><path class="cls-1" d="M554.38,67.57c7.25,0,12.28,5,12.28,12.28S561.64,92,554.38,92s-12.14-4.88-12.14-12.14S547.13,67.57,554.38,67.57ZM544.32,99.39H564.6v74H544.32Z"/><path class="cls-1" d="M577.91,99.39H598v8.29a25.48,25.48,0,0,1,20.42-9.77c17.46,0,28,11.25,28,30.34v45.14H625.86V130.91c0-9.92-4.59-15.69-13.62-15.69-7.7,0-14.06,5.33-14.06,17.76v40.4H577.91Z"/><path class="cls-1" d="M657.54,136.39a38.28,38.28,0,0,1,38.08-38.48h.25c22.2,0,38.33,17.46,38.33,38.77v6.51H676.92c2.07,8.58,8.73,14.36,18.94,14.36,8.29,0,13-3.4,15.54-8.88H733c-5.92,16.28-18.2,26.19-37.29,26.19C672.48,174.87,657.54,157.7,657.54,136.39Zm20.72-9.62h34.93c-2.81-7.25-9.32-11-17.17-11a19.41,19.41,0,0,0-17.76,11Z"/><path class="cls-1" d="M120,60"/><path class="cls-1" d="M210.27,29.73C185.34,4.8,152.67,0,120,0S54.66,4.8,29.73,29.73,0,87.33,0,120s4.8,65.34,29.73,90.27S87.33,240,120,240s65.34-4.8,90.27-29.73S240,152.67,240,120,235.2,54.66,210.27,29.73ZM163.84,158.89,120,115.05,76.16,158.89l-17-17L120,81.11l17,17,43.84,43.84Z"/></g></g></g></g></svg>