<svg width="401" height="164" viewBox="0 0 401 164" fill="none" xmlns="http://www.w3.org/2000/svg">
<path fill-rule="evenodd" clip-rule="evenodd" d="M264.891 27.3334L277.163 20.3606L324.299 56.6191L277.163 51.3198L264.891 27.3334ZM365.857 40.7211H351.912V54.6667H365.857V40.7211ZM366.415 108.776H352.469V122.163H366.415V108.776ZM354.701 76.4218L334.619 61.3606L322.626 103.755L326.809 107.381L320.116 123.279L286.925 128.299L270.469 99.2926L243.136 83.6735L245.925 107.381L259.592 131.088L295.292 156.191L315.095 158.98L339.082 113.238L354.701 76.4218Z" fill="#8C8C97" fill-opacity="0.5"/>
<path fill-rule="evenodd" clip-rule="evenodd" d="M300.955 10.0184C300.253 10.1939 299.554 10.3794 298.86 10.5746C297.602 10.9286 296.358 11.315 295.127 11.7329L310.222 22.2341C311.992 23.4656 312.429 25.8991 311.197 27.6694C309.966 29.4397 307.532 29.8764 305.762 28.6448L286.536 15.2696C284.571 16.2273 282.655 17.2694 280.792 18.3912L283.217 20.0788C283.291 20.1291 283.364 20.1801 283.437 20.2318L322.485 47.3971L322.499 47.407L357.206 71.7795L367.483 78.8273C367.523 78.8534 367.562 78.8801 367.6 78.9074L387.814 92.769C387.853 92.7951 387.892 92.8219 387.93 92.8492L391.947 95.6035C392.268 93.868 392.529 92.111 392.728 90.3348L389.038 87.8085L389.014 87.792L379.249 80.9985C377.479 79.7669 377.042 77.3335 378.274 75.5632C379.506 73.7929 381.939 73.3562 383.709 74.5878L393.186 81.1807C393.162 78.9621 393.041 76.7677 392.826 74.6015L391.787 73.8049L385.545 69.4212C383.78 68.1818 383.354 65.7464 384.593 63.9816C385.833 62.2167 388.268 61.7907 390.033 63.0301L390.902 63.6406C390.243 61.0522 389.448 58.5181 388.525 56.0462C388.472 56.0124 388.419 55.9771 388.366 55.9404L384.026 52.8923C382.261 51.6529 381.835 49.2176 383.074 47.4527C383.366 47.0368 383.725 46.6953 384.125 46.4324C375.315 30.3357 360.708 17.8584 343.112 11.8147C340.889 11.0511 338.618 10.39 336.304 9.83734L349.449 19.0683C351.214 20.3076 351.64 22.743 350.4 24.5078C349.161 26.2727 346.726 26.6987 344.961 25.4594L319.834 7.81411C319.556 7.81105 319.278 7.80952 319 7.80952C316.597 7.80952 314.221 7.92365 311.878 8.14668L331.529 21.9463C333.294 23.1857 333.72 25.6211 332.48 27.3859C331.241 29.1508 328.806 29.5768 327.041 28.3374L300.998 10.0488C300.983 10.0388 300.969 10.0286 300.955 10.0184ZM400.733 88.6613C400.859 87.0918 400.941 85.5101 400.978 83.9174C400.993 83.28 401 82.6408 401 82C401 78.6329 400.797 75.3115 400.402 72.0478C400.144 69.9191 399.805 67.8152 399.387 65.7394C393.612 37.0407 372.867 13.7773 345.649 4.42876C337.289 1.55718 328.322 0 319 0C311.292 0 303.826 1.06456 296.745 3.05703C287.607 5.62816 279.118 9.74166 271.576 15.097C271.563 15.1065 271.549 15.1161 271.536 15.1258C267.554 17.9564 263.838 21.1331 260.429 24.6117C258.341 26.7422 256.369 28.9862 254.522 31.3337C253.649 32.4427 252.804 33.5747 251.989 34.7287C251.973 34.7504 251.958 34.7723 251.943 34.7943C247.645 40.8893 244.156 47.5974 241.634 54.7607C241.633 54.7627 241.632 54.7647 241.632 54.7668C238.632 63.2889 237 72.4552 237 82C237 94.9796 240.016 107.255 245.385 118.163C247.397 122.367 249.598 126.047 251.962 129.234C266.808 150.265 291.3 164 319 164C337.048 164 353.732 158.17 367.274 148.291C367.31 148.266 367.345 148.24 367.38 148.214C382.299 137.294 393.389 121.453 398.263 103.083C399.487 98.4701 400.319 93.6992 400.721 88.809C400.726 88.7598 400.73 88.7106 400.733 88.6613ZM376.791 128.528C382.651 121.259 387.168 112.862 389.964 103.713L387.28 101.872L385.236 106.34C384.339 108.301 382.022 109.163 380.061 108.266C378.1 107.369 377.237 105.052 378.135 103.091L380.743 97.3895L377.3 95.0283L370.164 110.627C372.053 111.584 374.189 112.122 376.456 112.122C378.612 112.122 380.361 113.871 380.361 116.027C380.361 118.184 378.612 119.932 376.456 119.932C368.754 119.932 362.51 126.176 362.51 133.878C362.51 136.034 360.762 137.782 358.605 137.782C356.449 137.782 354.701 136.034 354.701 133.878C354.701 130.414 353.438 127.244 351.347 124.806L350.233 127.242C349.336 129.203 347.019 130.065 345.058 129.168C343.097 128.271 342.234 125.954 343.131 123.993L344.456 121.097C344.549 120.893 344.658 120.701 344.78 120.521C343.505 120.138 342.154 119.932 340.755 119.932C340.093 119.932 339.469 119.767 338.923 119.476L326.735 146.12C326.732 146.126 326.729 146.133 326.726 146.139C326.724 146.144 326.721 146.15 326.719 146.155L325.898 147.903L325.882 147.938L322.137 156.125C324.42 156.03 326.677 155.832 328.902 155.535L337.972 135.707C338.869 133.746 341.186 132.884 343.147 133.781C345.108 134.678 345.971 136.995 345.074 138.956L338.357 153.64C340.656 153.02 342.911 152.293 345.116 151.463L349.755 141.322C350.652 139.361 352.969 138.498 354.93 139.395C356.892 140.292 357.754 142.609 356.857 144.57L356.077 146.276C358.079 145.118 360.022 143.87 361.9 142.537L369.418 126.1C370.316 124.139 372.633 123.277 374.594 124.174C376.286 124.948 377.161 126.78 376.791 128.528ZM313.607 155.997L317.231 148.077C312.971 150.708 308.19 152.413 302.85 152.832C300.7 153 298.82 151.394 298.651 149.244C298.483 147.094 300.089 145.215 302.239 145.046C314.271 144.102 323.64 134.111 330.231 119.702L338.269 102.131C337.574 101.737 336.993 101.126 336.639 100.342C335.751 98.3766 336.625 96.0638 338.59 95.1761C340.466 94.3288 341.498 93.4344 342.437 92.1197C343.531 90.5897 344.502 88.5051 346.129 84.9478L350.078 76.3164L338.897 68.465L337.36 70.3391L338.802 70.6552C340.909 71.117 342.242 73.199 341.78 75.3055C341.318 77.412 339.236 78.7454 337.13 78.2836L336.192 78.0779C335.786 86.6533 332.704 95.3033 326.813 101.653C327.239 101.481 327.665 101.265 328.087 101.002C329.47 100.138 331.244 100.223 332.536 101.217C333.829 102.211 334.368 103.903 333.889 105.461C331.42 113.484 325.853 121.869 318.714 128.836C311.561 135.818 302.55 141.651 292.921 144.27C289.023 145.33 285.009 145.864 280.987 145.725C290.653 151.504 301.744 155.145 313.607 155.997ZM262.083 129.093C263.874 130.906 265.706 132.392 267.555 133.59C274.835 138.308 282.89 138.905 290.872 136.734C295.38 135.508 299.834 133.4 304.01 130.682C303.503 130.764 303 130.839 302.505 130.905C297.725 131.545 293.347 131.508 290.175 131.315C288.583 131.219 287.28 131.082 286.363 130.968C285.904 130.91 285.541 130.859 285.286 130.82C285.158 130.801 285.057 130.784 284.985 130.773C284.949 130.767 284.919 130.762 284.898 130.758L284.87 130.753L284.857 130.751C284.856 130.751 284.854 130.75 285.531 126.905L284.854 130.75C283.616 130.533 282.559 129.733 282.013 128.601L270.113 103.926C260.876 101.73 251.839 95.397 246.055 86.751C245.641 86.1328 245.244 85.5016 244.864 84.8584C245.104 91.2118 246.144 97.3607 247.885 103.207C248.729 105.841 249.622 108.292 250.557 110.57C253.241 116.234 256.509 119.07 259.569 120.391C262.874 121.818 266.484 121.716 269.87 120.665C271.929 120.026 274.117 121.178 274.757 123.237C275.396 125.297 274.244 127.485 272.185 128.124C269.1 129.081 265.633 129.546 262.083 129.093ZM249.006 57.3369C245.862 66.6136 247.851 75.3909 252.546 82.4088C255.822 87.3065 260.36 91.251 265.226 93.7907L263.048 89.2744C262.497 88.1333 262.535 86.7962 263.148 85.6877C263.761 84.5793 264.874 83.8372 266.133 83.6973C270.176 83.2481 272.77 81.6077 274.531 79.451C276.374 77.1953 277.514 74.1082 278.043 70.5587C278.568 67.03 278.452 63.2916 277.994 60.0124C277.644 57.5038 277.119 55.4369 276.629 54.0466C276.574 54.0176 276.519 53.9883 276.464 53.9589C270.087 50.5388 266.574 45.2721 264.277 38.6544C263.642 36.823 263.243 35.006 263.075 33.2476C262.246 34.1984 261.44 35.1704 260.659 36.1628C260.25 36.6829 259.847 37.2085 259.452 37.7396L264.495 54.434C265.119 56.4984 263.951 58.6775 261.886 59.3011C259.822 59.9247 257.643 58.7567 257.019 56.6923L253.904 46.3787C251.989 49.8702 250.347 53.5324 249.006 57.3369ZM271.655 36.0939C270.76 33.515 270.591 30.9446 271.234 28.5385C271.271 28.4029 271.31 28.267 271.352 28.1308C271.662 27.3447 272.069 26.7322 272.494 26.3001C273.624 25.1517 275.726 24.4242 278.766 26.4956L316.431 52.6987C312.443 51.4838 307.75 50.7619 302.265 50.7619C300.89 50.7619 299.582 50.7411 298.336 50.7C295.792 41.3013 287.664 34.7154 280.037 34.0021C277.89 33.8014 275.986 35.3792 275.786 37.5264C275.585 39.6736 277.163 41.577 279.31 41.7777C282.854 42.1092 287.401 45.1319 289.76 49.969C286.294 49.4417 283.545 48.6609 281.327 47.6552C281.305 47.645 281.284 47.635 281.262 47.6253C280.877 47.4492 280.508 47.2663 280.155 47.0768C276.001 44.849 273.521 41.4694 271.655 36.0939ZM285.439 57.1163C285.546 57.7102 285.643 58.317 285.728 58.933C286.264 62.7738 286.427 67.2825 285.767 71.7096C285.11 76.1157 283.601 80.6928 280.58 84.3913C278.452 86.9962 275.674 89.0394 272.203 90.2809L288.133 123.311C288.819 123.385 289.668 123.461 290.648 123.52C293.472 123.691 297.323 123.719 301.468 123.164C309.857 122.041 318.657 118.667 323.367 110.203C323.392 110.158 323.417 110.112 323.442 110.067C319.72 109.993 316.58 108.67 314.915 107.584C313.756 106.828 313.084 105.517 313.147 104.135C313.21 102.754 313.999 101.509 315.221 100.862C322.154 97.1916 326.561 89.9374 327.954 81.8106L327.598 82.2446C326.23 83.9122 323.77 84.1555 322.102 82.7881C320.435 81.4207 320.191 78.9603 321.559 77.2928L323.283 75.1904L320.919 74.6501C318.817 74.1696 317.502 72.0758 317.983 69.9734C318.463 67.8711 320.557 66.5564 322.659 67.0369L325.607 67.7106C322.287 63.2561 315.453 58.5714 302.265 58.5714C295.698 58.5714 290.143 58.1278 285.439 57.1163ZM356.599 80.8329L353.102 88.4781C353.02 88.6571 352.939 88.835 352.858 89.0115L342.327 112.035C349.289 111.254 354.701 105.347 354.701 98.1768C354.701 96.0203 356.449 94.2721 358.605 94.2721C360.762 94.2721 362.51 96.0203 362.51 98.1768C362.51 100.599 363.126 102.877 364.213 104.862L370.762 90.5454L366.95 87.9306L366.231 89.5018C365.334 91.4629 363.017 92.3254 361.056 91.4283C359.095 90.5313 358.232 88.2142 359.129 86.2531L360.412 83.4477L356.599 80.8329ZM364.017 116.027C363.586 115.727 363.167 115.411 362.761 115.081C361.177 113.797 359.777 112.293 358.606 110.615C357.135 112.722 355.301 114.556 353.194 116.027C355.301 117.498 357.135 119.332 358.605 121.438C360.076 119.332 361.91 117.498 364.017 116.027ZM358.605 25.9388C360.762 25.9388 362.51 27.687 362.51 29.8435C362.51 37.5455 368.754 43.7891 376.456 43.7891C378.612 43.7891 380.361 45.5373 380.361 47.6939C380.361 49.8504 378.612 51.5986 376.456 51.5986C375.635 51.5986 374.831 51.6695 374.049 51.8056L379.329 55.5133C381.094 56.7527 381.52 59.1881 380.28 60.9529C379.041 62.7178 376.606 63.1438 374.841 61.9044L366.346 55.9388C363.969 58.4397 362.51 61.8216 362.51 65.5442C362.51 67.7007 360.762 69.449 358.605 69.449C356.449 69.449 354.701 67.7007 354.701 65.5442C354.701 57.8668 348.482 51.6847 340.755 51.6847C339.958 51.6847 339.18 51.4406 338.525 50.9853L337.024 49.9407L337.023 49.9404L334.49 48.179L334.49 48.1786L314.96 34.5917C313.189 33.3601 312.753 30.9266 313.984 29.1563C315.216 27.386 317.649 26.9493 319.42 28.1809L338.949 41.7675L338.95 41.7679L341.482 43.5292L341.483 43.5296L341.911 43.8272C343.736 43.6752 345.464 43.1665 347.025 42.3709L342.555 39.2323C340.79 37.9929 340.364 35.5575 341.604 33.7927C342.843 32.0278 345.279 31.6018 347.043 32.8412L352.807 36.8885C354.01 34.8158 354.701 32.4079 354.701 29.8435C354.701 27.687 356.449 25.9388 358.605 25.9388ZM358.615 42.2963C357.143 44.418 355.306 46.2682 353.194 47.7522C355.295 49.2095 357.126 51.0274 358.596 53.1188C360.068 51.0065 361.906 49.1677 364.017 47.6939C361.915 46.2264 360.084 44.3971 358.615 42.2963ZM303.836 63.3016C304.766 65.2471 303.943 67.5785 301.998 68.509L295.583 71.577C293.637 72.5075 291.306 71.6846 290.375 69.7391C289.445 67.7936 290.268 65.4622 292.213 64.5318L298.628 61.4637C300.574 60.5333 302.905 61.3561 303.836 63.3016ZM263.04 63.1211C265.105 62.4975 267.284 63.6655 267.907 65.7299L269.55 71.1687C270.174 73.2331 269.006 75.4122 266.941 76.0358C264.877 76.6594 262.698 75.4914 262.074 73.427L260.431 67.9882C259.808 65.9238 260.976 63.7448 263.04 63.1211ZM365.314 66.505C366.553 64.7402 368.989 64.3142 370.753 65.5535L372.356 66.6788C374.121 67.9182 374.547 70.3536 373.307 72.1184C372.068 73.8833 369.633 74.3093 367.868 73.0699L366.265 71.9446C364.501 70.7053 364.075 68.2699 365.314 66.505ZM304.108 73.011C308.14 72.4349 311.748 75.5641 311.748 79.6376V90.6462C311.748 94.3432 308.751 97.3401 305.054 97.3401C301.358 97.3401 298.361 94.3432 298.361 90.6462V81.8497L294.558 82.5017C292.432 82.866 290.414 81.4383 290.049 79.3128C289.685 77.1873 291.113 75.1688 293.238 74.8044L301.606 73.37C301.641 73.3639 301.677 73.3582 301.713 73.3531L304.108 73.011ZM287.567 109.087C288.011 106.976 290.082 105.626 292.192 106.07L297.491 107.186C299.602 107.63 300.952 109.701 300.508 111.811C300.064 113.921 297.993 115.272 295.883 114.828L290.583 113.712C288.473 113.268 287.122 111.197 287.567 109.087Z" fill="#8C8C97"/>
<path d="M142.714 8H5.28571C3.88386 8 2.53941 8.55689 1.54815 9.54815C0.556886 10.5394 0 11.8839 0 13.2857L0 150.714C0 152.116 0.556886 153.461 1.54815 154.452C2.53941 155.443 3.88386 156 5.28571 156H142.714C144.116 156 145.461 155.443 146.452 154.452C147.443 153.461 148 152.116 148 150.714V13.2857C148 11.8839 147.443 10.5394 146.452 9.54815C145.461 8.55689 144.116 8 142.714 8ZM84.175 107.028L47.5714 128.171L46.3821 128.726L45.4307 129.069L44.5586 129.281H44.3207H43.5543H43.0786H42.4179H41.3871H40.8321H40.3829H39.8279H39.3521L38.8764 129.122L38.3214 128.937L38.0307 128.805L37.3171 128.435C35.5507 127.479 34.0931 126.04 33.115 124.286C32.5577 123.305 32.1565 122.244 31.9257 121.141L31.7143 120.136V119.846C31.7012 119.608 31.7012 119.37 31.7143 119.132V45C31.7143 42.1963 32.8281 39.5074 34.8106 37.5249C36.7931 35.5423 39.482 34.4286 42.2857 34.4286C45.0894 34.4286 47.7783 35.5423 49.7608 37.5249C51.7434 39.5074 52.8571 42.1963 52.8571 45V100.685L73.6036 88.7129C76.0323 87.311 78.9184 86.9314 81.6271 87.6575C84.3357 88.3836 86.6449 90.1559 88.0468 92.5846C89.4486 95.0134 89.8283 97.8995 89.1022 100.608C88.3761 103.317 86.6037 105.626 84.175 107.028ZM105.714 92.9679C103.623 92.9679 101.58 92.3478 99.8411 91.1862C98.1026 90.0246 96.7477 88.3736 95.9476 86.4419C95.1474 84.5103 94.9381 82.3847 95.346 80.334C95.7539 78.2834 96.7607 76.3997 98.2392 74.9213C99.7176 73.4429 101.601 72.436 103.652 72.0281C105.703 71.6202 107.828 71.8296 109.76 72.6297C111.691 73.4298 113.343 74.7848 114.504 76.5233C115.666 78.2617 116.286 80.3056 116.286 82.3964C116.286 85.2001 115.172 87.889 113.189 89.8716C111.207 91.8541 108.518 92.9679 105.714 92.9679Z" fill="#8C8C97"/>
<rect x="196" y="8" width="1" height="148" fill="#8C8C97" fill-opacity="0.5"/>
</svg>
