<svg width="148" height="148" viewBox="0 0 148 148" fill="none" xmlns="http://www.w3.org/2000/svg">
<path d="M142.714 0H5.28571C3.88386 0 2.53941 0.556886 1.54815 1.54815C0.556886 2.53941 0 3.88386 0 5.28571L0 142.714C0 144.116 0.556886 145.461 1.54815 146.452C2.53941 147.443 3.88386 148 5.28571 148H142.714C144.116 148 145.461 147.443 146.452 146.452C147.443 145.461 148 144.116 148 142.714V5.28571C148 3.88386 147.443 2.53941 146.452 1.54815C145.461 0.556886 144.116 0 142.714 0ZM84.175 99.0279L47.5714 120.171L46.3821 120.726L45.4307 121.069L44.5586 121.281H44.3207H43.5543H43.0786H42.4179H41.3871H40.8321H40.3829H39.8279H39.3521L38.8764 121.122L38.3214 120.937L38.0307 120.805L37.3171 120.435C35.5507 119.479 34.0931 118.04 33.115 116.286C32.5577 115.305 32.1565 114.244 31.9257 113.141L31.7143 112.136V111.846C31.7012 111.608 31.7012 111.37 31.7143 111.132V37C31.7143 34.1963 32.8281 31.5074 34.8106 29.5249C36.7931 27.5423 39.482 26.4286 42.2857 26.4286C45.0894 26.4286 47.7783 27.5423 49.7608 29.5249C51.7434 31.5074 52.8571 34.1963 52.8571 37V92.685L73.6036 80.7129C76.0323 79.311 78.9184 78.9314 81.6271 79.6575C84.3357 80.3836 86.6449 82.1559 88.0468 84.5846C89.4486 87.0134 89.8283 89.8995 89.1022 92.6081C88.3761 95.3167 86.6037 97.626 84.175 99.0279ZM105.714 84.9679C103.623 84.9679 101.58 84.3478 99.8411 83.1862C98.1026 82.0246 96.7477 80.3736 95.9476 78.4419C95.1474 76.5103 94.9381 74.3847 95.346 72.334C95.7539 70.2834 96.7607 68.3997 98.2392 66.9213C99.7176 65.4429 101.601 64.436 103.652 64.0281C105.703 63.6202 107.828 63.8296 109.76 64.6297C111.691 65.4298 113.342 66.7848 114.504 68.5233C115.666 70.2617 116.286 72.3056 116.286 74.3964C116.286 77.2001 115.172 79.889 113.189 81.8716C111.207 83.8541 108.518 84.9679 105.714 84.9679Z" fill="#385553"/>
</svg>
