<svg width="72" height="72" viewBox="0 0 72 72" fill="none" xmlns="http://www.w3.org/2000/svg">
<path fill-rule="evenodd" clip-rule="evenodd" d="M12 15C12 13.3431 13.3431 12 15 12H57C58.6569 12 60 13.3431 60 15V57C60 58.6569 58.6569 60 57 60H15C13.3431 60 12 58.6569 12 57V15ZM18 18V54H54V18H18ZM23.0513 24.1539C24.6231 23.63 26.3221 24.4795 26.8461 26.0513L30.1623 36H31.1459L33.3167 31.6584C33.8249 30.642 34.8637 30 36 30C37.1363 30 38.1751 30.642 38.6833 31.6584L40.8541 36H41.8377L45.1539 26.0513C45.6779 24.4795 47.3769 23.63 48.9487 24.1539C50.5205 24.6779 51.37 26.3769 50.8461 27.9487L48.1609 36.0042C49.7429 36.0878 51 37.3971 51 39C51 40.6569 49.6569 42 48 42H46.1623L44.8461 45.9487C44.4623 47.0998 43.423 47.9064 42.2127 47.9925C41.0023 48.0785 39.8594 47.4269 39.3167 46.3416L37.1459 42H34.8541L32.6833 46.3416C32.1406 47.4269 30.9977 48.0785 29.7873 47.9925C28.577 47.9064 27.5377 47.0998 27.1539 45.9487L25.8377 42H24C22.3431 42 21 40.6569 21 39C21 37.3971 22.2571 36.0878 23.8391 36.0042L21.1539 27.9487C20.63 26.3769 21.4795 24.6779 23.0513 24.1539Z" fill="#4E57F9"/>
</svg>
