<svg width="72" height="72" viewBox="0 0 72 72" fill="none" xmlns="http://www.w3.org/2000/svg">
<path fill-rule="evenodd" clip-rule="evenodd" d="M36 18C25.6084 18 18 25.1329 18 33C18 40.8671 25.6084 48 36 48C37.8349 48 39.5998 47.7708 41.2585 47.3477C42.0057 47.1571 42.7977 47.2615 43.47 47.6394L49.2969 50.9148L48.0987 46.3607C47.809 45.2594 48.1677 44.0891 49.0249 43.3393C52.1755 40.5834 54 36.926 54 33C54 25.1329 46.3917 18 36 18ZM12 33C12 20.9848 23.1957 12 36 12C48.8043 12 60 20.9848 60 33C60 38.2243 57.8294 42.9378 54.3514 46.5449L56.9013 56.2367C57.2078 57.4017 56.7877 58.637 55.8346 59.3737C54.8814 60.1103 53.5801 60.2054 52.53 59.6152L41.5413 53.4383C39.7592 53.8062 37.9035 54 36 54C23.1957 54 12 45.0152 12 33Z" fill="#F48428"/>
</svg>
