<svg width="72" height="72" viewBox="0 0 72 72" fill="none" xmlns="http://www.w3.org/2000/svg">
<path fill-rule="evenodd" clip-rule="evenodd" d="M20.1967 23.1967C17.2678 26.1256 17.2678 30.8744 20.1967 33.8033L20.2056 33.8122L38.1302 51.8876C39.2969 53.064 39.2889 54.9635 38.1124 56.1302C36.936 57.2968 35.0365 57.2889 33.8698 56.1124L15.9541 38.0459C15.9525 38.0444 15.9509 38.0428 15.9493 38.0412C10.682 32.7688 10.6836 24.2246 15.9541 18.9541C21.2261 13.682 29.7739 13.682 35.0459 18.9541C36.0383 19.9464 36.3868 20.2587 36.6557 20.4964C36.6793 20.5173 36.7026 20.5379 36.726 20.5585C37.0498 20.8443 37.3666 21.1239 38.1213 21.8787C39.2929 23.0502 39.2929 24.9497 38.1213 26.1213C36.9497 27.2929 35.0502 27.2929 33.8787 26.1213C33.2501 25.4928 33.0222 25.2919 32.7607 25.0614C32.7348 25.0386 32.7086 25.0155 32.6816 24.9916C32.3004 24.6546 31.8612 24.2546 30.8033 23.1967C27.8744 20.2678 23.1256 20.2678 20.1967 23.1967Z" fill="#FF5F67"/>
<path fill-rule="evenodd" clip-rule="evenodd" d="M33.8787 26.1213C32.7071 24.9497 32.7071 23.0503 33.8787 21.8787C34.6338 21.1236 34.9514 20.8432 35.2759 20.5566C35.2991 20.5361 35.3224 20.5156 35.3458 20.4949C35.6156 20.2563 35.9642 19.9439 36.9541 18.9541C42.2261 13.682 50.7739 13.682 56.0459 18.9541C61.3166 24.2247 61.318 32.7692 56.0502 38.0417C56.0488 38.0431 56.0474 38.0445 56.0459 38.0459L38.1302 56.1124C36.9635 57.2889 35.064 57.2969 33.8876 56.1302C32.7111 54.9635 32.7031 53.0641 33.8698 51.8876L51.7944 33.8122L51.8033 33.8033C54.7322 30.8744 54.7322 26.1256 51.8033 23.1967C48.8744 20.2678 44.1256 20.2678 41.1967 23.1967C40.141 24.2524 39.7019 24.6523 39.3204 24.9897C39.2935 25.0134 39.2674 25.0364 39.2416 25.0592C38.9792 25.2905 38.7504 25.4922 38.1213 26.1213C36.9497 27.2929 35.0502 27.2929 33.8787 26.1213Z" fill="#FF5F67"/>
</svg>
