<svg xmlns="http://www.w3.org/2000/svg" viewBox="0 0 100 100"><defs><style>.cls-1{fill:none;}.cls-2{fill:#fff;}</style></defs><title>ic_kb</title><g id="레이어_2" data-name="레이어 2"><g id="레이어_1-2" data-name="레이어 1"><rect class="cls-1" width="100" height="100"/><path class="cls-2" d="M98.38,50.94l-.86-.55c-3-2.94-7.06-4.22-12.55-3.9a23.7,23.7,0,0,0-11,3.77v-.12a43.9,43.9,0,0,1,.32-4.49,44.89,44.89,0,0,0,.33-4.57A10.62,10.62,0,0,0,74,36.93a.8.8,0,0,0-.78-.5,12,12,0,0,0-5.07,1.65l-.38.84c0,1.63-.38,6.2-.74,6.75l-.2.55a82.88,82.88,0,0,0-.06,17.18c.07.5,1,1.24,1.75,1.5s3.31-.37,4.76-.92l.54-.08a.84.84,0,0,0,.71-1s0-1.42,0-1.42c1-4.25,5.28-9.32,10.29-10.08a7.11,7.11,0,0,1,6.83,2.2c.23.35.75,3.4-1.12,6.92-1.38,2.6-4.16,4.79-7.81,6.16a29.92,29.92,0,0,1-12,1.68l-4.4-3C62.62,62.82,58,59.56,53.79,58a14.9,14.9,0,0,1-2.84-2l-.44-.35c-2.42-1.94-7-5-10.72-7.48l-2-1.33c0-.14,0-.42,0-.42s2.43-1.51,2.43-1.51c3.25-1.9,4.76-2.84,5.08-3.32-.07.08.43-.26.43-.26l8.07-4.56c7.74-4.26,16.51-9.08,21.12-13.85,0,0,.22-.73.22-.73l.1-.65a4.42,4.42,0,0,0,.07-2.71.88.88,0,0,0-.62-.62c-3.6-.35-8.24,1.81-12.46,5.76a11.34,11.34,0,0,1-2.6,1.8l-.65.36c-4.66,2.64-15.15,9.15-20.64,12.67a185.43,185.43,0,0,1,2.8-21.31L41,16.58s-.57-1-.57-1L40,14.77l-.12,0a3.51,3.51,0,0,0-2.65-.16l-1.1.41-1.46.53a.81.81,0,0,0-.61.51c-2.62,6.34-4.81,16.77-5.32,25.11a125.73,125.73,0,0,0-12.46-6.89l-.07,0-.29-.06A8.85,8.85,0,0,1,13,32.79L11,31.5,8,29.55s-.8-.18-.8-.18a9.5,9.5,0,0,0-4.57,3.06.87.87,0,0,0-.14.49,3,3,0,0,0,.14.72l.14.62.14.38a43.91,43.91,0,0,0,8.75,5.93l4.19,2.22,6.41,3.5s1.1.87,1.1.87l.75.43.13.09L12.58,55.46,6.45,59.52a35.1,35.1,0,0,1-3.53,1.69A5.1,5.1,0,0,0,.16,63.49L0,63.84l.16.24.47.35s.63.41.63.41l.68.47.63.09c1.08,0,2.68-.57,5.66-1.87C11,62.31,18.42,57.82,21.6,55.91L23,55.09a3,3,0,0,0,1.72-.84,18,18,0,0,1,2.88-1.74l1-.53c0,.15,0,.37,0,.37.15,9.73.71,16.81,1.77,22.26l0,.1.1.22A24.21,24.21,0,0,1,32.05,80l1.21,4.06c0,.05.35.38.35.38a8,8,0,0,0,4.21,1.12l.35,0,.22-.49a9.47,9.47,0,0,0,.16-1.86c0-.75,0-1.56-.12-2.56l-.1-1.47c-.44-6.8-.89-16.61-.89-23.14,0-.18,0-.34,0-.52l6.2,3.91c8.6,5.58,21.58,14,29.43,16.23a1.14,1.14,0,0,0,1.13-.26l1.21-.77.23-.1a2.16,2.16,0,0,0,.8-1.79c6.62-.34,15.84-2.88,20.78-9.09A12.92,12.92,0,0,0,100,55.77,6.63,6.63,0,0,0,98.38,50.94Z"/></g></g></svg>