<?xml version="1.0" encoding="utf-8"?>
<!-- Generator: Adobe Illustrator 22.1.0, SVG Export Plug-In . SVG Version: 6.00 Build 0)  -->
<svg version="1.1" id="레이어_1" xmlns="http://www.w3.org/2000/svg" xmlns:xlink="http://www.w3.org/1999/xlink" x="0px"
	 y="0px" viewBox="0 0 981.8 240" style="enable-background:new 0 0 981.8 240;" xml:space="preserve">
<style type="text/css">
	.st0{fill:#242424;}
</style>
<title>ic_logo</title>
<g id="레이어_2_1_">
	<g id="레이어_1-2">
		<path class="st0" d="M320,65.7h37.1c22.3,0,38.9,17.2,38.9,38.6s-16.6,38.6-39.1,38.6h-16.4v30.8H320V65.7z M340.6,84.7v39.1h15.1
			c11.7,0,19.7-8.7,19.7-19.5s-8-19.5-19.7-19.5H340.6z"/>
		<path class="st0" d="M402.7,136.7c0-26.2,19.2-38.5,36-38.5c9.6,0,17.2,3.6,22,8.7v-7.3H481v74h-20.3v-8.3
			c-4.9,5.8-12.7,9.8-22.4,9.8C422.7,175.2,402.7,162.7,402.7,136.7z M461.3,136.5c0-11-8-19.8-18.9-19.8
			c-11,0.2-19.7,9.4-19.5,20.4c0.2,10.6,8.8,19.2,19.5,19.5C453.4,156.5,461.3,147.5,461.3,136.5L461.3,136.5z"/>
		<path class="st0" d="M520.4,170.4l-29.5-70.7h21.3l18.2,45.6l17-45.6h21l-42.9,108.2h-20.3L520.4,170.4z"/>
		<path class="st0" d="M578.1,99.7h20.1v7.8c4.7-6,12-9.5,19.7-9.3c10.5,0,18.4,4.1,22.8,11.7c5.3-7.4,14-11.8,23.1-11.7
			c18.8,0,28.1,11.3,28.1,30.3v45.1h-20.6v-42.5c0-9.9-3.8-15.7-12.9-15.7c-7.7,0-13.3,5.3-13.3,17.8v40.4h-20.6v-42.5
			c0-9.9-3.8-15.7-12.9-15.7c-7.7,0-13.3,5.3-13.3,17.8v40.4h-20.3V99.7z"/>
		<path class="st0" d="M703,136.7c-0.1-21.1,16.9-38.4,38.1-38.5c0.1,0,0.2,0,0.3,0c22.2,0,38.3,17.5,38.3,38.8v6.5h-57.3
			c2.1,8.6,8.7,14.4,19,14.4c8.3,0,13-3.4,15.5-8.9h21.6c-5.9,16.3-18.2,26.2-37.3,26.2C718,175.2,703,158,703,136.7z M723.7,127.1
			h34.9c-2.8-7.3-9.3-11-17.2-11C733.9,116,727,120.3,723.7,127.1L723.7,127.1z"/>
		<path class="st0" d="M790.9,99.7h20.1v8.3c4.9-6.3,12.5-9.9,20.4-9.8c17.5,0,28,11.3,28,30.3v45.1h-20.6v-42.5
			c0-9.9-4.6-15.7-13.6-15.7c-7.7,0-14.1,5.3-14.1,17.8v40.4h-20.3V99.7z"/>
		<path class="st0" d="M867.6,99.7h12.6V82.4l20.3-11.1v28.4h13.9v18.2h-13.9v23.5c0,11.5,1.5,13.3,13.9,13.3v18.9h-3
			c-23.5,0-31.2-8-31.2-32.1v-23.7h-12.5V99.7z"/>
		<path class="st0" d="M924.9,148.7h20.4v0.6c0,6.1,4.1,8.3,9,8.3c5.8,0,8-2.4,8-6.5c0-4.6-9-5.3-18.2-8.4s-18.2-8.3-18.2-21.9
			c0-12.9,10.2-22.5,27.1-22.5s28.7,8.3,28.7,25.3H962v-0.3c0-6.2-3.4-8.3-8.4-8.3s-7.4,2.8-7.4,5.9c0,4.3,8.9,5,17.9,8.1
			c8.9,3.1,17.8,8.4,17.8,21.8c0,12.9-9.3,24.4-27.5,24.4C934.8,175.2,924.9,166.4,924.9,148.7z"/>
		<path class="st0" d="M210.3,29.7C185.3,4.8,152.7,0,120,0S54.7,4.8,29.7,29.7S0,87.3,0,120s4.8,65.3,29.7,90.3S87.3,240,120,240
			s65.3-4.8,90.3-29.7S240,152.7,240,120S235.2,54.7,210.3,29.7z M111.7,114.4c0,0.6-0.3,1.1-0.8,1.4l-86.2,49.8
			c-0.8,0.5-1.8,0.2-2.3-0.6c-0.1-0.1-0.1-0.2-0.1-0.3c-4.5-14.1-5.7-29.4-5.7-44.6c0-28.2,4.1-56.3,25.6-77.8
			c19-18.9,43.1-24.4,67.8-25.4c0.9,0,1.7,0.7,1.7,1.6c0,0,0,0,0,0.1V114.4z M128.3,18.5c0-0.9,0.7-1.7,1.6-1.7c0,0,0.1,0,0.1,0
			c24.8,1,48.9,6.5,67.8,25.4c4.4,4.4,8.3,9.4,11.6,14.7c0.5,0.8,0.2,1.8-0.6,2.3c0,0,0,0,0,0l-78,45c-0.8,0.5-1.8,0.2-2.3-0.6
			c-0.1-0.3-0.2-0.5-0.2-0.8L128.3,18.5z M197.8,198c-18.9,18.9-43.1,24.4-67.8,25.4c-0.9,0-1.7-0.7-1.7-1.6c0,0,0,0,0-0.1v-95.9
			c0-0.6,0.3-1.1,0.8-1.4l86.2-49.8c0.8-0.5,1.8-0.2,2.3,0.6c0.1,0.1,0.1,0.2,0.1,0.3c4.5,14.2,5.7,29.3,5.7,44.6
			C223.4,148.3,219.3,176.5,197.8,198z"/>
	</g>
</g>
</svg>
