<svg width="72" height="72" viewBox="0 0 72 72" fill="none" xmlns="http://www.w3.org/2000/svg">
<path fill-rule="evenodd" clip-rule="evenodd" d="M15 12C13.3431 12 12 13.3431 12 15V57C12 58.6569 13.3431 60 15 60H57C58.6569 60 60 58.6569 60 57V15C60 13.3431 58.6569 12 57 12H15ZM18 54V18H54V54H18ZM30 27C30 25.3431 28.6569 24 27 24C25.3431 24 24 25.3431 24 27V45C24 46.0397 24.5384 47.0053 25.4228 47.552C26.3073 48.0986 27.4117 48.1483 28.3416 47.6833L37.3416 43.1833C38.8236 42.4423 39.4242 40.6403 38.6833 39.1584C37.9423 37.6764 36.1403 37.0758 34.6584 37.8167L30 40.1459V27ZM45 39C46.6569 39 48 37.6569 48 36C48 34.3431 46.6569 33 45 33C43.3431 33 42 34.3431 42 36C42 37.6569 43.3431 39 45 39Z" fill="#242424"/>
</svg>
