<svg xmlns="http://www.w3.org/2000/svg" viewBox="0 0 981.85 240"><defs><style>.cls-1{fill:#fff;}</style></defs><title>ic_logo</title><g id="레이어_2" data-name="레이어 2"><g id="레이어_1-2" data-name="레이어 1"><path class="cls-1" d="M320,65.66h37.15c22.34,0,38.92,17.17,38.92,38.63S379.49,142.92,357,142.92H340.57V173.7H320Zm20.57,19.09v39.07h15.1c11.69,0,19.68-8.73,19.68-19.53s-8-19.54-19.68-19.54Z"/><path class="cls-1" d="M402.73,136.7c0-26.2,19.24-38.48,36-38.48,9.62,0,17.16,3.55,22.05,8.73V99.7H481v74H460.75v-8.29c-4.89,5.77-12.73,9.77-22.35,9.77C422.71,175.18,402.73,162.75,402.73,136.7Zm58.61-.15c0-11-8-19.83-18.94-19.83a19.91,19.91,0,0,0,0,39.81C453.35,156.53,461.34,147.5,461.34,136.55Z"/><path class="cls-1" d="M520.39,170.44,490.94,99.7h21.31l18.21,45.58,17-45.58h21L525.57,207.89H505.3Z"/><path class="cls-1" d="M578.11,99.7h20.13v7.85a24.5,24.5,0,0,1,19.68-9.33c10.51,0,18.36,4.14,22.79,11.69A28.13,28.13,0,0,1,663.8,98.22c18.8,0,28.12,11.25,28.12,30.34V173.7H671.35V131.22c0-9.91-3.85-15.68-12.88-15.68-7.69,0-13.31,5.32-13.31,17.76v40.4H624.58V131.22c0-9.91-3.84-15.68-12.87-15.68-7.7,0-13.32,5.32-13.32,17.76v40.4H578.11Z"/><path class="cls-1" d="M703,136.7a38.28,38.28,0,0,1,38.34-38.48c22.19,0,38.33,17.46,38.33,38.78v6.51H722.41c2.07,8.58,8.73,14.35,19,14.35,8.28,0,13-3.4,15.53-8.88H778.5c-5.92,16.28-18.2,26.2-37.29,26.2C718,175.18,703,158,703,136.7Zm20.72-9.62h34.93c-2.81-7.25-9.32-11-17.17-11A19.42,19.42,0,0,0,723.74,127.08Z"/><path class="cls-1" d="M790.93,99.7h20.13V108a25.48,25.48,0,0,1,20.43-9.77c17.46,0,28,11.25,28,30.34V173.7H838.88V131.22c0-9.91-4.58-15.68-13.61-15.68-7.7,0-14.06,5.32-14.06,17.76v40.4H790.93Z"/><path class="cls-1" d="M867.6,99.7h12.58V82.39l20.27-11.1V99.7h13.91v18.2H900.45v23.54c0,11.54,1.48,13.32,13.91,13.32V173.7h-3c-23.54,0-31.23-8-31.23-32.12V117.9H867.6Z"/><path class="cls-1" d="M924.87,148.69H945.3v.59c0,6.07,4.14,8.29,9,8.29,5.78,0,8-2.37,8-6.51,0-4.59-9-5.33-18.21-8.44s-18.2-8.29-18.2-21.9c0-12.88,10.21-22.5,27.08-22.5s28.71,8.29,28.71,25.31H962v-.3c0-6.21-3.4-8.29-8.44-8.29s-7.4,2.82-7.4,5.92c0,4.3,8.88,5,17.91,8.14,8.88,3.11,17.76,8.44,17.76,21.76,0,12.88-9.32,24.42-27.53,24.42C934.79,175.18,924.87,166.45,924.87,148.69Z"/><path class="cls-1" d="M210.27,29.73C185.34,4.8,152.67,0,120,0S54.66,4.8,29.73,29.73,0,87.33,0,120s4.8,65.34,29.73,90.27S87.33,240,120,240s65.34-4.8,90.27-29.73S240,152.67,240,120,235.2,54.66,210.27,29.73ZM111.72,114.4a1.64,1.64,0,0,1-.82,1.43L24.66,165.62a1.66,1.66,0,0,1-2.41-.94c-4.49-14.15-5.7-29.35-5.7-44.55,0-28.16,4.14-56.33,25.63-77.82,19-18.94,43.08-24.4,67.83-25.43a1.65,1.65,0,0,1,1.71,1.66Zm16.56-95.86A1.65,1.65,0,0,1,130,16.88c24.75,1,48.88,6.49,67.83,25.43A78.94,78.94,0,0,1,209.39,57a1.67,1.67,0,0,1-.59,2.31l-78,45.05a1.65,1.65,0,0,1-2.48-1.43ZM197.82,198c-18.95,18.94-43.08,24.41-67.83,25.43a1.65,1.65,0,0,1-1.71-1.65V125.87a1.66,1.66,0,0,1,.82-1.44l86.24-49.79a1.66,1.66,0,0,1,2.41.94c4.49,14.15,5.7,29.35,5.7,44.55C223.45,148.3,219.31,176.46,197.82,198Z"/></g></g></svg>