<?xml version="1.0" encoding="utf-8"?>
<!-- Generator: Adobe Illustrator 22.1.0, SVG Export Plug-In . SVG Version: 6.00 Build 0)  -->
<svg version="1.1" id="레이어_1" xmlns="http://www.w3.org/2000/svg" xmlns:xlink="http://www.w3.org/1999/xlink" x="0px"
	 y="0px" viewBox="0 0 100 100" style="enable-background:new 0 0 100 100;" xml:space="preserve">
<style type="text/css">
	.st0{fill:none;}
	.st1{fill:#2F5FD2;}
</style>
<title>ic_sinhan</title>
<g id="레이어_2_1_">
	<g id="레이어_1-2">
		<rect y="0" class="st0" width="100" height="100"/>
		<path class="st1" d="M50,0C22.4,0,0,22.4,0,50s22.4,50,50,50s50-22.4,50-50S77.6,0,50,0z M45.3,92.7c0,0-34.1,3.3-35.9-33.8
			c0,0,0-1.6,1.2-1.8c0,0,1-0.4,1.8,1.2c1.3,3.6,3.1,7,5.3,10.2c0.6,0.7,1.6,0.7,2.3,0.1c0.1-0.1,0.3-0.3,0.4-0.5
			c0,0,2.7-4.3,4.5-5.1c0,0,2.9-2.5,2.9,1.4c-0.1,3.8,0.2,7.5,0.8,11.2c4-1.2,8.2-1.8,12.4-1.8c0,0,6.1,0.4-5.3,9.2
			c0,0-4.3,2.4,10,6.9C45.8,89.9,48.8,92.1,45.3,92.7z M77.6,82.5c-4.3,13.9-21.2,13.3-21.2,13.3c-1,0.1-2-0.4-2.5-1.4
			c-0.2-1.2,0.6-1.2,0.6-1.2c9.4-2.3,10.4-6.7,10.4-6.7c1.1-7.5-11.6-17.5-11.6-17.5C46.8,64,34.7,52.4,34.7,52.4
			C16.6,37.7,19.6,24.6,19.6,24.6C23.3,2.6,46,6.1,46,6.1c2,0.4,1.8,1.8,1.8,1.8c0,1.9-1.4,1.6-1.4,1.6c-10.6,0.4-13.3,6.5-13.3,6.5
			c-6.3,9.6,9.4,22.8,9.4,22.8c9.4,8.2,21.6,19,21.6,19C82.6,73,77.6,82.5,77.6,82.5z M82.2,35.5c-1.8,2.2-4.6,3.2-7.4,2.7
			c-4.2-0.7-5.6-5.7-5.6-5.7c-0.4-1.5-1-3-1.8-4.3c-0.9-1.2-2.6-1.7-4-1.1c-3.8,1.2,0.1,8.1,0.1,8.1c4.4,7.3-1,10.3-1,10.3
			c-8,3.4-11-3.7-11-3.7c-3-8.7,2.6-17.3,2.6-17.3c3.1-3.8,0.7-8.6,0.7-8.6c-1.4-2-2.1-2.8-2.1-2.8c-1.3-2,0.1-3.1,0.1-3.1
			c1.5-1.1,3.4,0.4,3.4,0.4c3.7,2.5,9.9,1.9,9.9,1.9c9.5-0.2,13.4,2.2,13.4,2.2c4.6,2.6,2.3,5.5,2.3,5.5c-1.5,1.6-5.1-0.4-5.1-0.4
			c-2.7-1.5-3.8,0.2-3.8,0.2c-1.5,2.5,2.4,3.7,2.4,3.7c5.5,1.4,6.8,2.8,6.8,2.8C86.7,31.1,82.2,35.5,82.2,35.5L82.2,35.5z"/>
	</g>
</g>
</svg>
