<svg xmlns="http://www.w3.org/2000/svg" viewBox="0 0 100 100"><defs><style>.cls-1{fill:none;}.cls-2{fill:#fff;}</style></defs><title>ic_sinhan</title><g id="레이어_2" data-name="레이어 2"><g id="레이어_1-2" data-name="레이어 1"><rect class="cls-1" width="100" height="100"/><path class="cls-2" d="M50,0a50,50,0,1,0,50,50A50,50,0,0,0,50,0ZM45.35,92.74S11.29,96,9.45,58.89c0,0,0-1.63,1.23-1.84,0,0,1-.41,1.83,1.23a46.68,46.68,0,0,0,5.3,10.19,1.62,1.62,0,0,0,2.65-.4S23.12,63.78,25,63c0,0,2.86-2.47,2.86,1.42a54,54,0,0,0,.81,11.22,43.66,43.66,0,0,1,12.44-1.83s6.12.41-5.3,9.17c0,0-4.28,2.45,10,6.94C45.75,89.89,48.81,92.13,45.35,92.74ZM77.57,82.55C73.26,96.5,56.36,95.8,56.36,95.8a2.33,2.33,0,0,1-2.45-1.42c-.2-1.23.61-1.23.61-1.23,9.39-2.26,10.41-6.73,10.41-6.73C66.05,78.87,53.3,68.88,53.3,68.88,46.77,64,34.74,52.36,34.74,52.36,16.64,37.74,19.65,24.62,19.65,24.62,23.32,2.6,46,6.07,46,6.07c2,.38,1.83,1.83,1.83,1.83.05,1.92-1.42,1.63-1.42,1.63-10.61.41-13.26,6.53-13.26,6.53-6.32,9.58,9.38,22.84,9.38,22.84,9.38,8.16,21.62,19,21.62,19C82.6,73,77.57,82.55,77.57,82.55Zm4.66-47a7.88,7.88,0,0,1-7.42,2.7c-4.24-.67-5.59-5.68-5.59-5.68a14.06,14.06,0,0,0-1.83-4.34,3.31,3.31,0,0,0-4-1.06c-3.76,1.16.1,8.1.1,8.1,4.43,7.31-1,10.3-1,10.3C54.48,49,51.5,41.9,51.5,41.9c-3-8.67,2.6-17.34,2.6-17.34,3.08-3.75.67-8.57.67-8.57-1.44-2-2.12-2.79-2.12-2.79-1.35-2,.1-3.09.1-3.09,1.54-1.15,3.37.39,3.37.39C59.78,13,66,12.43,66,12.43c9.53-.2,13.39,2.21,13.39,2.21,4.62,2.6,2.31,5.49,2.31,5.49-1.54,1.64-5.11-.38-5.11-.38-2.69-1.45-3.85.19-3.85.19-1.54,2.5,2.41,3.66,2.41,3.66C80.68,25,82,26.39,82,26.39,86.66,31.11,82.23,35.54,82.23,35.54Z"/></g></g></svg>