<svg xmlns="http://www.w3.org/2000/svg" viewBox="0 0 48.74 20"><defs><style>.cls-1{fill:#fff;}.cls-2{fill:none;}</style></defs><title>ic_toss</title><g id="레이어_2" data-name="레이어 2"><g id="레이어_1-2" data-name="레이어 1"><g id="toss-logo-fill"><path id="Toss" class="cls-1" d="M9.58,4.72,7.18,18.28h-4L5.57,4.72H.82l.62-3.43H14.83l-.6,3.43Zm7.82,13.9A7.8,7.8,0,0,1,15,18.26a5.4,5.4,0,0,1-1.92-1.05,4.9,4.9,0,0,1-1.74-3.85,8.1,8.1,0,0,1,.5-2.83,6.88,6.88,0,0,1,3.75-4,7.36,7.36,0,0,1,3-.6,8,8,0,0,1,2.45.36,5.88,5.88,0,0,1,1.95,1A5,5,0,0,1,24.3,9a5,5,0,0,1,.47,2.19,8,8,0,0,1-.51,2.86,6.7,6.7,0,0,1-1.46,2.35A7,7,0,0,1,20.48,18,7.69,7.69,0,0,1,17.4,18.62Zm3.58-7a2.56,2.56,0,0,0-.66-1.8,2.4,2.4,0,0,0-1.86-.72,3.2,3.2,0,0,0-1.4.31,3.3,3.3,0,0,0-1,.84,4,4,0,0,0-.67,1.23A4.43,4.43,0,0,0,15.1,13a2.55,2.55,0,0,0,.64,1.79,2.4,2.4,0,0,0,1.85.71,3.13,3.13,0,0,0,2.46-1.13,3.75,3.75,0,0,0,.69-1.22A4.53,4.53,0,0,0,21,11.63Zm6.52,2.83a2.89,2.89,0,0,0,1.22,1,3.53,3.53,0,0,0,1.54.35,2.26,2.26,0,0,0,1.24-.29.88.88,0,0,0,.47-.79.83.83,0,0,0-.43-.74,6.1,6.1,0,0,0-1.28-.53,9.51,9.51,0,0,1-1.47-.54,4,4,0,0,1-1.07-.7,2.54,2.54,0,0,1-.65-.91,3.19,3.19,0,0,1-.21-1.21,3.37,3.37,0,0,1,.44-1.75,4.33,4.33,0,0,1,1.18-1.31,5.32,5.32,0,0,1,1.71-.82A7.83,7.83,0,0,1,32.26,6a7,7,0,0,1,2.6.47,4.38,4.38,0,0,1,1.93,1.38l-2.42,2a2.62,2.62,0,0,0-.93-.8A3,3,0,0,0,32,8.75,2.64,2.64,0,0,0,30.9,9a.84.84,0,0,0-.52.82.7.7,0,0,0,.39.63,4.84,4.84,0,0,0,1.17.45,6.94,6.94,0,0,1,2.66,1.26,2.87,2.87,0,0,1,1,2.34,3.67,3.67,0,0,1-.47,1.88,4,4,0,0,1-1.22,1.32,5.44,5.44,0,0,1-1.73.77,7.79,7.79,0,0,1-2,.25,7.39,7.39,0,0,1-3-.55,5.64,5.64,0,0,1-2.12-1.51Zm11.14,0a2.87,2.87,0,0,0,1.21,1,3.57,3.57,0,0,0,1.55.35,2.3,2.3,0,0,0,1.24-.29.88.88,0,0,0,.46-.79.81.81,0,0,0-.43-.74,6,6,0,0,0-1.27-.53,10.06,10.06,0,0,1-1.48-.54,4,4,0,0,1-1.06-.7,2.42,2.42,0,0,1-.65-.91A3,3,0,0,1,38,10.12a3.38,3.38,0,0,1,.45-1.75,4.17,4.17,0,0,1,1.17-1.31,5.38,5.38,0,0,1,1.72-.82A7.7,7.7,0,0,1,43.39,6,7,7,0,0,1,46,6.44a4.44,4.44,0,0,1,1.93,1.38l-2.43,2a2.58,2.58,0,0,0-.92-.8,3,3,0,0,0-1.4-.31A2.64,2.64,0,0,0,42,9a.83.83,0,0,0-.52.82.7.7,0,0,0,.38.63,5,5,0,0,0,1.18.45,6.89,6.89,0,0,1,2.65,1.26,2.84,2.84,0,0,1,1,2.34,3.66,3.66,0,0,1-.46,1.88A4,4,0,0,1,45,17.69a5.34,5.34,0,0,1-1.73.77,7.68,7.68,0,0,1-2,.25,7.46,7.46,0,0,1-2.95-.55,5.6,5.6,0,0,1-2.11-1.51Z"/></g><rect class="cls-2" width="48.74" height="20"/></g></g></svg>