<?xml version="1.0" encoding="utf-8"?>
<!-- Generator: Adobe Illustrator 22.1.0, SVG Export Plug-In . SVG Version: 6.00 Build 0)  -->
<svg version="1.1" id="레이어_1" xmlns="http://www.w3.org/2000/svg" xmlns:xlink="http://www.w3.org/1999/xlink" x="0px"
	 y="0px" viewBox="0 0 500 500" style="enable-background:new 0 0 500 500;" xml:space="preserve">
<style type="text/css">
	.st0{fill:#2F5FD2;}
</style>
<title>pic_tossQR</title>
<g id="레이어_2_1_">
	<g id="레이어_1-2">
		<path class="st0" d="M500,184v30h-10.5v10.6H480v9.7h9.6c0-2.7,0.1-5,0-7.3c-0.1-1.9,0.7-2.5,2.5-2.5c2.6,0.1,5.3,0,7.9-0.1v20.2
			c-2.7,0-5.5-0.1-8.2,0.1c-0.8,0.1-2.1,1.3-2.1,2c-0.1,6.3,0,12.6,0,18.8h-20.4c0,2.9-0.1,5.5,0.1,8.1c0,0.5,0.9,1.5,1.3,1.5
			c6.2,0.1,12.4,0.1,18.8,0.1v-9.8H500v30l-10.3-0.2c0-3.1,0-6.2,0-9.4H480v9.9l9.9-0.6c0,3.9,0,7.8,0,11.7l-9.9-1V316h9.8v-9.3
			l10.2-0.4v71h-10.3v-40.9H479c0-6.7,0-13.4,0-20.4h-20.1v-9.8H449v9.7h-20.7v-20h-70.8v9.8h20.2v10.1h20.2v-10.2
			c6.1,0,11.9,0.1,17.6-0.1c2.6-0.1,3.3,0.8,3.2,3.3c-0.2,5.6,0,11.2,0,17.2h51v10.2h9.5c0.1,3.4,0.3,6.8,0.5,10.4h-10V357h9.6v20.1
			c-1.6,0-3,0-4.4,0l-16.1,0.3v-10.5c-6.2,0-12.3,0-18.4,0.1c-0.5,0-1.5,1-1.5,1.6c-0.2,2.7-0.1,5.4-0.1,8.7h20v9.7H439v10.6h20.2
			v9.9h10.4v-20.1H500v9.8h-20.8c0,3.7,0,7.1,0,10.4c-2.5,0-5.1-0.1-7.6,0.1c-0.8,0.1-2,1-2.1,1.7c-0.2,2.6-0.1,5.2-0.1,8h9.7V408
			l20.9,0.1v9.8h-10.4V429l0.1-0.1l-9.7-0.5v10.4h9.7l-0.1-0.1c0,3.5,0,7,0,10.5l0.1-0.1c-2.6,0-5.3-0.1-7.9,0
			c-1.9,0.1-2.5-0.8-2.4-2.6c0.1-2.5,0-5,0-7.7h-9.9c0-1-0.1-2-0.1-3c0-8,0-8-7.9-7.3c-0.2,0-0.5,0-0.6,0c-0.6,0.9-1.8,1.9-1.6,2.6
			c0.5,2.5-1.6,5.5,1.3,7.5c0.3,0.2,1,0.1,1.5,0.1h7.6c-0.1,2.5-0.3,5.1-0.1,7.6c0.1,2.4-0.8,3-3,2.9c-2.4-0.1-4.8,0-7,0v9.9h20.1
			v10.3h-10.1v9.7l0.1-0.1l-10.5,0.5v10h-10.4V500H439v-10.5h-20.3v-10.4h9.7v-9.5h-9.6v9.6H408v-20h-10.4v10.2h-10.2
			c0,2.9,0.1,5.5,0,8c-0.1,1.9,0.7,2.5,2.5,2.4c2.5-0.1,5,0,7.5,0v10h-10.1V500h-19.6v-10.3h9.7v-20.4c-2.7,0-5.2-0.1-7.7,0
			c-1.9,0.1-2.6-0.6-2.5-2.5c0.1-2.4,0-4.9,0-7.5h-9.6v10h9.4v10.2h-10.1v10.1H347V500h-20.2c0-13.7,0-27.4,0-41.1h30V449h-19.9
			v-10.5h10.2V418c6.1,0,11.9-0.1,17.7,0c1.9,0,2.6-0.5,2.5-2.4c-0.1-2.4,0-4.8,0-7.6h20v-20h-9.8v10h-20.3v10H347v-10.4h9.8
			c0-2.6,0.1-5,0-7.3s0.5-3.2,2.9-3s4.8,0,7.3,0v-10h-10.2v-10.1h-10v-10h-10v30.2h-20.6v-9.9H296v20.2c-1.9,0-3.5,0-5.1,0
			c-5.2,0.2-5.2,0.2-5.2,5.4c0,4.9,0,9.7,0,14.5h10c0-2.6,0.1-5,0-7.3c-0.1-1.8,0.5-2.6,2.4-2.5c2.5,0.2,5,0,7.9,0v-10.1h20.9V408
			H337c0,6.5,0,12.7-0.1,18.9c-0.2,0.7-0.8,1.2-1.5,1.4c-6.3,0.1-12.6,0.1-19.1,0.1v-10c-1.3,0-2.3,0-3.3,0
			c-6.5-0.1-6.6-0.1-6.7,6.3c0,4.7,0.3,9.3,0.4,14c-2.8,0-5.5-0.1-8.3-0.1c-1.6,0-2.4-0.5-2.3-2.3c0.1-2.6,0-5.2,0-7.9h-10.6v10.1
			h-10.1v20.4h5c5.2,0,5.2,0,5.1,5c0,7.1,0,14.3,0,21.4v3.9h-20.2v-3.1c0-8.2,0-16.3,0-24.5c0-1.2,0.5-2.8-1.7-2.8
			c-2.8,0-5.6,0-8.8,0v10.3h-3.7c-8.1,0-16.1,0-24.2,0c-1,0.1-2,0.2-2.9,0.4c0-3.5,0-7,0-10.4h-19.8v10c1.6,0,2.9,0,4.3,0
			c5.2,0.1,10.3,0.2,15.5,0.3v10.1h20.5V500h-20.2v-10.5H204v-9.9h-31v9.9c-6.1,0-11.9,0.1-17.6,0c-2.2,0-2.9,0.7-2.8,2.8
			c0.1,2.5,0,5.1,0,7.6h-9.8v-20.6h-10.2v-10c1,0,1.9-0.1,2.8-0.1c7.4-0.1,7.4-0.1,7.3-7.5c0-2-0.6-2.8-2.6-2.7c-2.5,0.1-5,0-7.8,0
			v-9.8h-9.9v20.2h-9.9v9.7c5.9,0,11.5,0.1,17.1,0c2.3-0.1,3,0.8,2.9,3c-0.1,5.9,0,11.8,0,17.7H92.1v-20.1h9.7c0,3.1,0,6.2,0,9.8
			c3.2,0,5.9,0.1,8.6-0.1c0.8-0.2,1.4-0.8,1.6-1.6c0.2-2.6,0.1-5.2,0.1-8h-10.3v-20.6H112v-20.8H81.8v-20H102v9.6h10.1
			c0-2.7,0.1-5.5-0.1-8.2c0-0.5-1.3-1.4-2.1-1.4c-2.5-0.3-6.1,0.6-7.2-0.7c-1.4-1.6-0.7-5-0.8-7.6c-0.1-1.4,0-2.9,0-4.3
			c0-2.7,0-5.4,0-8.1H91.3V388h-9.5v9.7h9.6V408H71.2l0.1,0.1v-10.5H51.2v-9.8c6,0,11.8,0.1,17.6-0.1c0.8,0,2.3-0.9,2.3-1.4
			c0.2-2.9,0.1-5.8,0.1-9H40.6l0.1,0.1v-10.1h30.5v-10.5h-9.6v-10h9.6v-10.5H40.7v-10.1c-2.8,0-5.4,0-7.9,0c-1.9,0-2.8,0.7-2.6,2.7
			c0.1,2.4,0,4.8,0,7.6h-10c0,2.2,0,4.2,0,6.1c0,4.3,0,4.3-4.1,4.2c-2,0-4,0-6.3,0V367H0.3v-50.7H10v20.2c3,0,5.6-0.1,8.1,0
			c1.8,0.1,2.2-0.8,2.2-2.4c-0.1-5.1-0.1-10.2,0-15.3c0-2.1-0.8-2.7-2.7-2.5c-2.5,0.1-5.1,0.1-7.6,0.1c0.1-2.5,0.2-5.1,0.1-7.6
			c-0.1-2,0.6-2.7,2.6-2.7c11.7,0.1,23.4,0.1,35.1,0c2.4,0,3.3,1,3.1,3.3s0,4.6,0,6.8h10.6v10h19.7v-9.9H61.4v-10h30.1v-20.6h-10
			v-10H50.7v10.2H30.3v9.8h-30v-9.9h20c0-3,0.1-5.8-0.1-8.5c-0.3-0.9-1.1-1.5-2-1.7c-2.6-0.2-5.2-0.1-8.2-0.1c0-1.7,0-3.1,0-4.5
			c0-11.9-0.1-23.9-0.1-35.8L9.8,235c2.6-0.1,5.3-0.1,7.9-0.3c1.9-0.1,2.6,0.6,2.5,2.4c-0.1,2.4,0,4.8,0,7.7H30V255h-9.6v10.4
			c6.3,0,12.3,0,18.3-0.1c0.6,0,1.8-1.1,1.8-1.7c0.1-9.6,0.1-19.1,0.1-29.2h-10v-20.6h9.7v-9.5h-9.6v9.7H20.5v-10.6l-0.1,0.1L30,204
			v-10.3h-9.8v-10.5h20.5v-10.1h20.1c0-2.5,0.1-4.8,0-7s0.6-3.2,3.1-3.1c5.7,0.2,11.4,0.1,17.3,0.1v-9.7H51v9.8H20.4v20.1H0
			c0-9.8,0-19.2,0.1-28.5c0-0.6,1.5-1.7,2.3-1.8c2.4-0.3,4.8-0.1,7.7-0.1v-10c2.7,0,5.1-0.1,7.4,0s3-0.8,2.9-3c-0.2-2.4,0-4.8,0-7.5
			h10.2c0-3.1,0.1-5.9-0.1-8.7c-0.1-0.6-1.5-1.4-2.3-1.5c-2.5-0.2-5-0.1-7.8-0.1v-9.7H9.8v9.6H0.2V92c6.3,0,12.4-0.1,18.5,0.1
			c0.5,0,1.4,1.5,1.5,2.3c0.2,2.5,0.1,5,0.1,7.4h20.3V91.5H31v-9.7h20v9.9h10.3v-9.8h20.4v19.9h10.4v-9.7h9.9c0,2.5-0.1,5.1,0.2,7.6
			c0.1,0.8,1.1,2,1.8,2.1c2.7,0.2,5.4,0.1,8.2,0.1v-9.6H102V81.9h30.6c0,3.1,0,6.2,0,9.4h20.2V82h-20.3c0.1-3.6,0.2-7.1,0.3-10.7
			l-0.1,0.1c2.8,0,5.5,0,8.3-0.2c0.7-0.1,1.6-1.1,1.9-1.8c0.2-0.9,0.3-1.8,0.1-2.7c0-6.4,0.4-5.2-5.1-5.3c-0.8,0-1.6-0.1-2.4,0
			c-1.9,0.2-2.7-0.5-2.7-2.6c0.1-4,0-8,0-11.9V41H143v10.3h10.2v20.3c3.7-0.2,7.1-0.3,10.5-0.5c-0.1,2.8-0.2,5.7-0.1,8.5
			c0,0.7,0.8,1.9,1.3,1.9c2.8,0.2,5.6,0.1,8.8,0.1c0-3.1,0.1-5.8-0.1-8.4c-0.1-0.7-1.3-1.7-2.1-1.8c-2.6-0.3-5.3-0.2-7.9-0.3v-20
			c2.9,0,5.4,0.1,8-0.1c0.8-0.1,2.2-1,2.2-1.6c0.2-6.2,0.1-12.4,0.1-19h-30.4v-20h9.6c0,2.8-0.1,5.4,0.1,8.1c0,0.7,0.9,1.9,1.5,2
			c2.8,0.2,5.6,0.1,8.9,0.1c0-6,0.1-11.7-0.1-17.4C163,0.5,164-0.1,166.3,0c3,0.2,5.9,0.1,8.9,0.1h8.3v10.1h10.2c0,3-0.1,5.5,0,8
			c0.1,1.8-0.8,2.3-2.4,2.2c-2.4-0.1-4.9,0-7.4,0V30h9.7l-0.1-0.1v10.7c-2.8,0-5.2,0.1-7.6,0c-1.8-0.1-2.6,0.6-2.5,2.5
			c0.1,2.6,0,5.3,0,8h-9.6V71h9.5V50.9H204c-0.2,3.8-0.3,7.2-0.5,10.6h-9.9v20.3h-20v19.9h9.7c0-2.5,0.2-4.7-0.1-6.9
			c-0.3-2.7,1-3.3,3.4-3.3c5.6,0.1,11.2,0,17.2,0v-3.8c0-7.7,0-15.3,0-23c-0.1-1.1-0.2-2.2-0.4-3.3l11.4-0.2
			c-0.2,3.3-0.4,6.5-0.6,9.8h9.9v-9.7h-9.4V40.7h9.3V30h10.2V10.3h-10.1V30h-9.7V0.3h30.2v9.8h30.5c0,2.9-0.1,5.5,0.1,8.1
			c0,0.7,0.9,2,1.5,2c2.9,0.2,5.8,0.1,9,0.1v-20h10v9.9h10.1v10.3h-9.6V30h9.5v-9.6c6.1,0,12.2,0,18.4,0.1c2.1,0,2.6-0.8,2.5-2.7
			c-0.1-2.5,0-5,0-7.8h10.2V0.1c6.4,0,12.4-0.1,18.4,0.1c0.7,0,1.7,1.5,1.8,2.3c0.3,2.4,0.1,4.8,0.1,7.7h10c0,2.8-0.1,5.3,0,7.7
			c0.1,1.9-0.7,2.5-2.5,2.5c-2.4-0.1-4.8,0-7.8,0c0,2.4,0,4.5,0,6.6c0,4.6-0.1,9.1-0.1,13.7h-30.4c0-2.8,0.1-5.4-0.1-7.9
			c0-0.7-0.8-1.9-1.3-1.9c-2.8-0.2-5.6-0.1-8.8-0.1v10h-20V51h9.9v9.7h10V51h20.4v20.2h-10.3v-9.6h-10v20.3H296c0,2.9,0.1,5.4-0.1,8
			c0,0.8-0.9,2-1.5,2.1c-2.9,0.2-5.8,0.1-8.9,0.1V40.6h9.9v-9.8h-9.8v9.9c-1.1,0-2.2,0-3.4,0c-6.8,0-6.8,0-6.8,7c0,14,0,28,0.1,41.9
			c0,2-0.6,2.4-2.4,2.3c-2.5-0.1-5,0-7.9,0v10H255v10.3h-10c0,2.1,0,3.9,0,5.7c0.1,4.2,0.1,4.2,4.1,4.1c4.5,0,9,0,13.5,0
			c2,0,3.1,0.5,2.9,2.8s0,4.8,0,7.6h-20.6c0,2.9,0.1,5.6-0.1,8.2c-0.1,0.8-1.1,2-1.7,2.1c-2.7,0.2-5.5,0.1-8.6,0.1v-10.5h-10.2
			l0.1,0.1v-20h-40.6v20.2h-10.2c0,2.8,0.1,5.2,0,7.7c-0.1,1.9,0.6,2.4,2.5,2.4c5.9-0.1,11.8,0,17.9,0v10c2.3,0.1,4.6,0.1,6.9,0
			c2.8-0.3,3.6,0.9,3.4,3.5c-0.2,2.2,0,4.4,0,6.9h10.2v10.3h9.9v6.8H204c0-4.3,0-8.5,0-12.7c0-4.4,0-4.3-4.6-4.3h-16.2V153h-10.1
			v-9.9h-9.8v20h10.1v10.2c2.7,0,5.1-0.1,7.6,0.1c0.9,0.1,2.5,0.6,2.6,1.1c0.2,1.8,0.2,3.7,0.1,5.6l-3.3,0.5c-0.1,1-0.2,1.9-0.3,3.1
			h-37.3v10.1h-10.2v10.5c-2.6-0.1-5.3-0.2-7.9-0.1c-1.8,0.1-2.6-0.5-2.6-2.4c0.1-5.4,0.1-10.8,0-16.2c0-1.7,0.7-2.4,2.4-2.3
			c2.6,0.1,5.2,0,7.9,0V163h6.1c4.2,0,4.2,0,4.2-4v-16.5h9.9v-9.8h-30.2V143h-9.8v9.9h20v10.3c-2.6,0-5.3,0-8-0.1
			c-1.6-0.1-2.1,0.7-2.1,2.2c0,2.6,0,5.3,0,8.2H102v9.9h10.1v10.5h-10.3v10.4H71.4v9.6c1.1,0.1,2,0.1,3,0.1c4.7,0,9.4,0.1,14.1,0
			c2.6-0.1,3.8,0.6,3.4,3.5c-0.2,2.3-0.2,4.7-0.1,7c6.5,0,12.6,0,18.7-0.1c0.5,0,1.3-1.3,1.4-2c0.2-2.7,0.1-5.4,0.1-8.1h10.4v10.2
			h-10v9.8h40.4c0-2.4-0.2-4.5,0-6.6c0.3-2.6-0.8-3.3-3.3-3.2c-5.6,0.2-11.1,0-16.9,0v-20.2c2.6-0.1,5.3-0.1,7.9-0.3
			c1.9-0.1,2.5,0.7,2.4,2.5c-0.1,2.4,0,4.8,0,7.4c1.5,0.1,2.7,0.2,3.9,0.2c7.2,0,14.5,0,21.7,0c5.7,0,4.9-0.6,5,5.1
			c0,1.7,0,3.4,0,5.3h6.6v30.4h-6.8c0-2.4-0.1-4.6,0-6.8s-0.4-3.2-3-3.2c-11.5,0.1-23.1,0.1-34.6,0.1c-1,0-2,0.1-3.1,0.2v9.8h10.2
			v20.2c9.8,0,19.2,0,28.6-0.1c0.6,0,1.7-1.3,1.7-2c0.2-2.6,0.1-5.2,0.1-7.9h7v6c0,4.3,0,4.3-4.4,4.4c-0.7,0-1.4,0.1-2.2,0.3v9.8
			h6.3v10.4h-6.4v9.6l6.6,0.4v13.7l3.3,0.4c0.1,2,0.3,3.9,0.4,6h19.9v-6h41v6.6H235v9.5h20.1v-9.8h10V347h-10.2v30.4h-10
			c-0.1-0.3-0.2-0.7-0.3-1c-0.2-2.9,0.7-7.1-0.9-8.3c-1.9-1.5-5.8-0.6-8.9-0.7c-3.4-0.1-6.9,0-10.4,0v10.3h9.9V398
			c-2.7,0-5.1,0.1-7.6,0c-1.9-0.1-2.6,0.5-2.6,2.4c0.1,2.6,0.1,5.3,0.1,8h-9.8v9.6h9.7v-9.7h20.4v-20.6h20.6v20.5c2.6,0,4.8-0.1,7,0
			s3-0.5,2.8-2.7c-0.2-2.5,0-5,0-7.8h10.2V388c-2.6,0-5.1-0.1-7.5,0c-2.2,0.1-2.8-0.8-2.8-2.9c0.1-5,0.1-10,0-15c-0.1-2.3,0.7-3,3-3
			c11.8,0.1,23.7,0,35.5,0c0.8,0,1.5-0.1,2.5-0.2V347h10.6v10h9.5v-20.2c-2.6,0-5.1-0.2-7.6,0c-2,0.2-2.5-0.7-2.4-2.4
			c0.1-2.5,0-5,0-7.4h-10v20c-2.5,0-5.1,0-7.6-0.1c-2-0.1-2.7,0.7-2.6,2.7c0.1,2.5,0,5,0,7.6h-10.5V347h-9.9l-0.2-0.2v-20.2h-10.2
			v-6.5h10.2c0.1,0.9,0.1,1.8,0,2.6c-0.4,2.8,0.8,3.7,3.6,3.6c4.5-0.2,9-0.1,13.5-0.1h13.6V320l3.6-0.4v-23.9l6.4-0.3v-3.9
			c0-5.7,0-5.7-5.7-6.1c-0.2,0-0.3-0.2-0.6-0.4v-19.9l6.1-0.4V255h-6.3v-14.4c0-5.7,0-5.7,5.6-6.3c0.2,0,0.4-0.2,0.8-0.4v-3.4
			c0-5.8,0-5.8-5.7-6.1c-0.2,0-0.3-0.2-0.6-0.4v-20.1c1.1-0.1,2.2-0.1,3.3,0c2.2,0.4,3-0.5,2.9-2.6c-0.1-2.4,0-4.8,0-7.5h-6.2v-10.5
			h5.9v-9.8h-9.9v-10.3c-2.8,0-5.1,0.1-7.5,0c-2-0.1-2.6,0.7-2.6,2.7c0.1,4.8,0,9.5,0,14.3h-20.6v-6.3h-9.9c0.1,1.6,0.1,3.2-0.1,4.8
			c-0.1,0.6-0.9,1.7-1.4,1.7c-6.3,0.1-12.6,0.1-19.2,0.1v-6.8h20.2v-20.2h-9.8v9.9h-10.4v-20.5h26.6c4,0,4,0,4-3.9
			c0-2.1,0.1-4.3,0.1-6.4l-0.1,0.1h9.7v-20.3h-19.9V102h40.9V91.4h9.9c0.1-2.1,0.1-4.2,0-6.3c-0.3-2.8,0.3-4.3,3.5-3.6
			c1.6,0.2,3.3,0.2,4.9,0c1.8-0.1,2.3,0.5,2.1,2.3c-0.2,2.5,0,5,0,7.5H367v-9.8h-10.2V71.3H347V50.9c2.6,0.1,5.1,0.1,7.7-0.1
			c1-0.3,1.8-1,2.1-2c0.1-2.7-0.1-5.5-0.2-8.2h10.7v20.3h10.2V71h9.5l0,0c0.2,3.4,0.4,6.8,0.6,10.6h-9.9V92h40.2v20.4h-9.7V102
			h-10.3c0,2.9-0.1,5.7,0.1,8.4c0.1,0.6,1.5,1.4,2.3,1.5c2.6,0.3,5.2,0.2,7.9,0.3v30.6H429c-0.2,3.2-0.5,6.3-0.7,9.9h10.5V163h20.1
			v20.7H439v10h10.1c0,2.9-0.1,5.4,0,7.9c0.1,1.9-0.7,2.5-2.6,2.4c-2.5-0.1-5,0-7.6,0v19.9h9.6c0-2.4,0.1-4.6,0-6.7
			c-0.2-2.6,0.5-3.7,3.4-3.5c3.1,0.3,6.3,0.1,9.5,0.1h8.1v10.1h9.9v-30.5h10.2v-9.8l-0.1,0.1H500V184z M438.8,469.3v9.9h9.7v-9.7
			h-9.8v-10.3c-3,0-6-0.7-8.5,0.2c-3.4,1.3-1,5-1.6,7.5c-0.2,0.7,0.8,1.7,1.4,2.4c0.2,0.3,1,0.1,1.5,0.1L438.8,469.3z M316.2,132.4
			h9.8v-19.9h-9.7L316.2,132.4l-10.1,0.1c0,3.1,0,5.7,0,8.4s2.2,1.9,3.4,1.8c2.3-0.3,5.1,1.5,6.8-1.4c0.2-0.4,0-1,0-1.5L316.2,132.4
			z M71.2,193.8h-20v30.3H71v-9.8c-2.8,0-5.3,0.1-7.8-0.1c-0.8-0.1-2.1-1-2.2-1.6c-0.2-2.8-0.1-5.6-0.1-8.8h10.3v-10.1
			c2.7,0,5.5,0.1,8.2,0c0.7,0,1.9-0.9,2-1.5c0.2-2.7,0.1-5.4,0.1-8.3H71.2V193.8z M132.5,347h-9.8v30.6h10v9.7h10
			c0-5.9-0.1-11.6,0-17.3c0.1-2.3-0.9-2.8-2.9-2.7c-2.4,0.1-4.8,0-7.4,0L132.5,347l10.1-0.1v-10.6h9.9v-19.8h-9.7c0,2.8,0,5.3,0,7.9
			c0,1.7-0.7,2.3-2.4,2.3c-2.6-0.1-5.2,0-8,0L132.5,347z M132.4,102v-9.9h-9.7v9.7h9.8v10.6h-9.9v9.7h23.9c6.6,0,6.6,0,6.6,6.4v3.7
			h10.1V122h9.8v-9.9h-30.4c0-2.9,0-5.4,0-7.9c0-1.6-0.6-2.4-2.3-2.4C137.8,102,135.1,102,132.4,102z M408.1,377.5h20.2
			c0-2.9-0.1-5.3,0-7.8c0.1-1.9-0.6-2.5-2.5-2.5c-2.5,0.1-5,0-7.9,0c0-2.8,0.1-5.4,0-7.9c-0.1-1.8,0.4-2.6,2.4-2.5
			c2.5,0.1,5,0,7.7,0v-10h-9.8c-0.1-0.9-0.1-1.6-0.1-2.3c0-5.2,0-10.4-0.1-15.6c0-0.8-1-2.1-1.6-2.2c-2.7-0.2-5.4-0.1-8.4-0.1v10.1
			c-2.6,0-5,0.1-7.3,0c-2.1-0.1-3.1,0.5-2.9,2.7c0.2,1.7,0.2,3.4,0,5.1c-0.2,1.9,0.6,2.3,2.2,2.3c2.6-0.1,5.2,0,8.1,0L408.1,377.5
			l-10,0v20.2h10v9.7c0.5,0.3,0.7,0.5,0.8,0.5c9.4,0.1,18.8,0.1,28.1,0.1c0.5,0,1.5-1.1,1.5-1.7c0.2-2.6,0.1-5.3,0.1-8.4
			c-2.7,0-5.1-0.1-7.5,0s-3.1-0.7-2.9-3s0-4.6,0-7.2H408L408.1,377.5L408.1,377.5z M173.8,377.3h-10.7c0,3.2-0.1,5.8,0,8.3
			c0.1,1.8-0.6,2.4-2.3,2.3c-2.5-0.1-5,0-7.6,0v10h10v10.3c2.8,0,5.2-0.1,7.6,0c2,0.1,2.5-0.8,2.4-2.6c-0.1-2.6,0-5.2,0-8h20.6
			v-20.2h10c0-2.8-0.1-5.4,0-7.9c0.1-1.8-0.8-2.3-2.4-2.2c-2.5,0.1-5,0-7.9,0v-20.4c-2.6,0-5,0.1-7.3,0c-2-0.1-2.8,0.6-2.7,2.7
			c0.1,2.5,0,5,0,7.9h-9.9v19.9L173.8,377.3z M377.5,163.2v-10.6h9.8v-9.7c-5.8,0-11.4-0.1-17,0.1c-2.6,0.1-3.4-0.8-3.2-3.3
			c0.2-2.3,0-4.6,0-7.1h-20.2c0-2.6,0.2-4.9,0-7.2c-0.2-2.5,0.7-3.2,3.1-3.2c8.5,0.1,17,0,25.4,0.1c0.8,0.1,1.5,0.2,2.3,0.3v9.8h9.9
			v-10.2h10v-10h-10.2v-10h-9.9v10.3h-40.9v20.3h-10c0,2.9,0.1,5.4,0,7.9c-0.1,1.6,0.7,2.2,2.2,2.1c2.5,0,5.1,0,8,0v10h10.1v10.5
			h10.3c0,2.8-0.1,5.3,0,7.7c0.1,1.9-0.6,2.6-2.4,2.5c-2.6-0.1-5.2,0-7.8,0v9.6h20.2v-20L377.5,163.2l0,10.2h20.1V194h-40.3
			c-0.1,2.2-0.1,4.5,0,6.7c0.4,3-1,3.6-3.7,3.6c-5.5-0.1-11,0-16.9,0c0,2.7-0.1,5.3,0,7.8c0.1,1.9-0.5,2.5-2.4,2.5
			c-2.5-0.1-5,0-7.6,0v9.8h20.1V214c2.9,0,5.3,0.1,7.8,0c1.9-0.1,2.8,0.6,2.6,2.7c-0.1,2.5,0,5,0,7.5h20.2v-9.6
			c-1.1-0.1-1.9-0.1-2.7-0.1c-8.3,0-8.3,0-7.6-8.3c0-0.2-0.1-0.5,0-0.6c0.5-0.6,0.9-1.5,1.5-1.5c2.9-0.1,5.8-0.1,9-0.1v9.9h9.9
			c0-2.8-0.1-5.4,0.1-8.1c0-0.7,0.8-1.8,1.2-1.8c3-0.2,6-0.1,8.8-0.1v20.7H388v19.9h20.1v-30.6h9.7v-20.1h-9.7v-20.7H428v-20
			c-2.6,0-5,0.1-7.4,0c-1.8-0.1-2.4,0.6-2.3,2.3c0.1,1.9,0.1,3.9,0,5.8c-0.1,0.7-1,1.9-1.6,1.9c-6.3,0.1-12.6,0.1-19.1,0.1v-9.6
			c-9.5-1.3-9.6-1.3-9.8,7.2c0,2.1-0.8,2.6-2.7,2.5C382.6,163.1,380,163.2,377.5,163.2L377.5,163.2z M183.5,459
			c0.1,1.2,0.2,2.1,0.2,3c0.1,7.8,0.1,7.8,7.8,7.4c1.8-0.1,2.3-0.8,2.3-2.4c-0.1-2.6,0-5.2,0-8.1h10c0.1-1.4,0.2-2.5,0.2-3.6
			c-0.1-6.6-0.1-6.6,6.4-6.6h14.1c0-6.5,0-12.4-0.1-18.3c-0.2-0.9-0.8-1.6-1.6-1.9c-2.6-0.2-5.3-0.1-8.3-0.1c0,2.9,0.1,5.4-0.1,7.9
			c-0.1,0.8-0.9,2.2-1.5,2.3c-2.9,0.2-5.8,0.1-8.8,0.1c-0.1-1-0.2-1.6-0.2-2.1c0-11.9,0.1-23.9,0-35.8c0-0.9-0.9-2.6-1.5-2.6
			c-2.8-0.3-5.6-0.1-8.8-0.1v20.6H184v9.8h9.6v10h-10.3c0-2.6-0.1-4.9,0-7.3s-0.7-2.8-2.8-2.8c-4.9,0.1-9.8,0.2-14.7,0
			c-2.4-0.1-3,0.9-2.9,3c0.1,2.4,0,4.8,0,7.5h-10.2v10.3h-9.8v9.8h5.4c4.6,0,4.6,0,4.6,4.6V479h20.2c0-6,0-11.8,0-17.6
			c0-1.7-0.6-2.4-2.4-2.3c-2.5,0.1-5.1,0-7.7,0v-10.4c2.7,0,5.2,0.1,7.8,0c2.1-0.1,2.6,0.9,2.5,2.8c-0.1,2.4,0,4.8,0,7.5L183.5,459z
			 M112.3,377.5v-30.7h9.7v-10h-10c0-2.9,0.2-5.4,0-8c-0.2-2.1,0.7-2.6,2.6-2.6c2.4,0.1,4.8,0,7.3,0v-9.7h-20.2v10.2h-9.9
			c0,2.8-0.1,5.4,0,7.9c0.1,1.8-0.6,2.3-2.3,2.2c-2.6-0.1-5.2,0-7.7,0v40.8H102v9.6h19.9v-9.7L112.3,377.5L112.3,377.5z
			 M356.9,336.3c0-2.7,0-5.2,0-7.7c0-1.6,0.6-2.3,2.4-2.3c2.6,0,6.2,0.5,7.4-0.9c1.3-1.6,0.4-5,0.5-7.7c0-0.5-0.1-1-0.2-1.4h-10.1
			v-10.2H347v-10.6h9.8v-9.8h-10v-10.2h-10.4v-9.9h-9.6v20h9.9c-0.1,2.5-0.1,5.1,0.1,7.6c0.3,2.4-0.7,2.8-2.7,2.8
			c-2.4-0.1-4.8,0-7.3,0v20.3H337v20L356.9,336.3z M357.3,366.9h40.1v-20h-10.1v-20h-20.1V337h-10v29.9H357.3z M81.6,132.6H61.3
			c0,2.8,0.1,5.3,0,7.8c-0.1,1.7,0.6,2.4,2.3,2.4c8.6-0.1,17.1-0.1,25.7,0c1.8,0,2.3-0.8,2.2-2.4c-0.1-2.5,0-5,0-7.6h10.4
			c0,2.8-0.1,5.3,0.1,7.9c0.2,0.9,0.9,1.7,1.8,2c2.6,0.2,5.2,0.1,8.3,0.1v-10.2h9.8v-10H91.3v-10H61.6v9.7h3.2
			c4.8,0,9.6-0.1,14.4,0.1c0.8,0,2.3,1.1,2.3,1.8C81.8,126.7,81.6,129.4,81.6,132.6z M142.6,418.5c0-3.1,0.1-5.8-0.1-8.4
			c0-0.7-0.9-1.9-1.5-1.9c-6.1-0.1-12.2-0.1-18.3-0.1v30.7h9.9v9.9c2.5,0,4.8-0.1,7,0c2.4,0.2,3.2-0.6,3.1-3
			c-0.1-5.7-0.1-11.4-0.1-17.4h9.8v-9.7L142.6,418.5z M234.9,51.2v30c0.4,0.1,0.9,0.2,1.4,0.3c8.8,0,17.5,0,26.3,0.1
			c2.2,0,2.5-1,2.5-2.8c-0.1-6.1-0.1-12.2-0.1-18.3c0-3,0-6.1,0-9.2L234.9,51.2z M81.3,235H51.1v29.8h30.2V235z M92,255.1h20.3v20.2
			h10.2v10.1h9.7v-20h-6c-4.1,0-4.2,0-4.2-4.2c0-5.3,0-10.5,0-16.3h-20.3v-10H92V255.1z M234.9,448.7c9.7,0,19.1,0,28.4-0.1
			c0.6,0,1.7-1.5,1.7-2.3c0.1-8.4,0-16.7,0.1-25.1c0-2.2-0.8-2.7-2.8-2.7c-7.5,0.1-15.1,0-22.6,0h-4.8L234.9,448.7z M418.7,234.9
			v29.9c0.6,0.2,1.3,0.3,1.9,0.4c8.7,0,17.4,0,26,0c2,0,2.1-1,2.1-2.5c0-8.6,0-17.1-0.1-25.7c-0.1-0.7-0.2-1.4-0.3-2.1L418.7,234.9z
			 M448.6,418.7h-29.8v29.7h29.8V418.7z M407.9,448.5v-29.7h-40.6c0,2.5,0.1,4.7,0,6.9c-0.1,2,0.5,2.8,2.6,2.7c2.5-0.1,5,0,7.8,0
			v10.2h9.9v-4.1c0-6,0-6.1,5.9-6c4.9,0,4.6-0.8,4.6,4.5c0,5.2,0,10.3,0,15.6L407.9,448.5z M163.1,346.7h20.1v-10h-10.1v-9.9h-9.9
			v10h-10V347h-10v19.8h9.8v-10.1h10.1L163.1,346.7z M173.1,285.9h-30v9.7c2.5,0,4.7,0.1,7,0s3.1,0.4,3,2.9
			c-0.2,5.9-0.1,11.7-0.1,17.6h20v-10h-9.8v-10.4h9.9L173.1,285.9z M305.7,143.1h-19.9V173h9.9v-10h10.1v-19.9H305.7z M234.7,30.7
			c0,2.5,0.2,4.6,0,6.7c-0.3,2.5,0.5,3.3,3.1,3.3c11.4-0.1,22.8,0,34.2-0.1c1,0,1.9-0.1,3-0.2v-9.8h-20.1v-10h-10
			c0,2.5-0.2,4.9,0,7.1s-0.8,3.1-3,3S237.4,30.7,234.7,30.7L234.7,30.7z M102,305.7h30.3v-9.8H112v-10h-10V305.7z M244.4,112.2v-20
			h-20c0,6.1-0.1,11.9,0.1,17.7c0,0.8,1.1,2.2,1.7,2.2C232.1,112.2,238.1,112.2,244.4,112.2z M356.8,275.2c0-2.8,0.1-5.2,0-7.6
			c-0.1-1.9,0.6-2.5,2.5-2.4c2.6,0.1,5.2,0,7.6,0v-9.9h-30v9.8h10.2v10.1H356.8z M438.8,285.7v9.7h9.8v-19.7h-19.7v9.9L438.8,285.7z
			 M398.1,275.2c2.9,0,5.6,0.1,8.4-0.1c0.5,0,1.5-0.9,1.5-1.4c0.1-6.2,0.1-12.4,0.1-18.6h-9.9v20.1H398.1z M357.5,234.9v9.5h19.8
			v-9.5H357.5z M326.8,244.3h19.8v-9.4h-19.8V244.3z M439,347v9.7h19.7V347H439z M50.6,143.1H31v9.5h19.6V143.1z M336.3,91.9
			c-2.9,0-5.6-0.1-8.3,0.1c-0.5,0-1.3,1.2-1.3,1.9c-0.1,5.4-0.1,10.8,0,16.2c0,0.7,0.9,1.9,1.5,2c2.7,0.2,5.4,0.1,8.1,0.1
			L336.3,91.9z M367,428.7h-9.5v19.7h9.5V428.7z M92,173h9.6v-19.6H92V173z M377.7,245v19.8h9.6V245H377.7z M377.4,275.9
			c-9-1.8-10.7-0.6-10.1,7.3c0,0.3-0.1,0.7,0.1,0.9c0.5,0.5,1,1.4,1.6,1.4c2.8,0.1,5.6,0.1,8.5,0.1v-9.7H377.4z M40.8,132.4h9.9V123
			c-8.9-2.1-10.2-1.1-10,7.4C40.7,131,40.7,131.6,40.8,132.4z M408.1,321c0-0.5,0-1,0-1.5c0.4-2.6-0.6-3.3-3.2-3.3c-7,0.1-7,0-7,7
			c0,0.3-0.1,0.7,0,0.9c0.5,0.9,1.3,1.6,2.1,2.2c0.7,0.4,1.8,0,2.7,0C408.6,326.2,408,327.1,408.1,321z M45.9,183.7
			c-5.4,0.1-5.7,0.1-5.2,7.3c0.3,5.6,4.8,2.1,7.3,2.6c3,0.6,3.1,0.1,2.9-7.4C50.8,181.8,47.3,184.7,45.9,183.7z M346.6,479.1v-9.6
			h-9.7v9.6H346.6z M458.8,459.1c-2.9,0-5.6-0.1-8.4,0.1c-0.6,0.2-1.1,0.7-1.2,1.3c-0.1,2.9-0.1,5.8-0.1,8.6h9.7V459.1z M346.7,20.6
			h-9.8V30h9.8V20.6z M224.2,336.7c-2.8,0-5.2-0.1-7.6,0.1c-0.8,0.1-2,1-2.1,1.7c-0.2,2.7-0.1,5.4-0.1,8.2h9.8L224.2,336.7
			L224.2,336.7z M152.6,163.4H143v9.7h9.6V163.4z M336.3,163.4h-9.6v9.7h9.6V163.4z M305.8,337h-9.7v9.6h9.7V337z M479.3,254.9
			c0-2.9,0.6-5.8-0.1-8.3c-1-3.6-4.4-1-6.7-1.6c-1.1-0.3-3.1-0.7-3.1,1.6c0,2.7,0,5.4,0,8.2L479.3,254.9z M224.2,81.9h-9.7v9.6h9.7
			V81.9z M244.4,356.7v-9.5H235v9.5H244.4z M326.8,193.6h9.5V184h-9.5V193.6z M224.1,397.6V388h-9.5v9.6H224.1z M71.1,173.7h-9.6
			v9.5h9.6V173.7z M357.5,61.5v9.6h9.4v-9.6H357.5z M377.7,449.2v9.5h9.6v-9.5H377.7z M305.6,71.1v-9.6h-9.4v9.6H305.6z
			 M213.9,326.8h-9.5v9.4h9.5V326.8z M204.3,92.1v9.6h9.5v-9.6H204.3z M61.6,92.1v9.6H71v-9.6H61.6z M183.3,408.3h-9.6v9.8
			c2.7,0,5.3,0.1,7.8-0.1c0.8-0.2,1.5-0.9,1.8-1.7C183.4,413.7,183.3,411.1,183.3,408.3z M428.1,193.7V184h-9.4v9.7H428.1z"/>
		<path class="st0" d="M500,71.3h-71.5c0-3,0-5.8,0-8.7c0-19.9,0-39.8,0-59.7c0-1.7,0.1-2.9,2.4-2.9c23,0.1,46.1,0.2,69.1,0.2V71.3z
			 M489.3,60.8V10.3H439v50.5H489.3z"/>
		<path class="st0" d="M0.2,500c-0.1-13.3-0.1-26.5-0.2-39.8c0-9.6,0.1-19.2,0-28.8c0-2.2,0.5-3,2.9-3c19.9,0.1,39.8,0.1,59.7,0.1
			h8.7V500H0.2z M60.6,489.5v-50.6H10.2v50.6H60.6z"/>
		<path class="st0" d="M469.3,153.3h10.3v-10.4H500v30l-10.4,0.7V184l0.1-0.1h-20.3v-30.6H469.3z"/>
		<path class="st0" d="M500,449.2V500h-9.8c-0.3-3.4-0.5-6.8-0.8-10.5h-20v-10.4l-0.1,0.1h20.3v-30.1l-0.1,0.1H500z"/>
		<path class="st0" d="M500,132.5h-10.1c-0.1-1.2-0.2-2.1-0.2-3.1c0-11.3,0.1-22.6-0.1-33.9c0-2.9,1-3.8,3.6-3.7
			c2.2,0.2,4.5,0.2,6.7,0.3v40.4H500z"/>
		<path class="st0" d="M285.6,500c0-2.6,0.1-5.3,0-7.9c0-1.6,0.3-2.4,2.1-2.4c8.6,0.1,17.3,0.1,25.9,0c1.9,0,2.7,0.6,2.6,2.7
			c-0.2,2.5,0,5.1,0,7.6L285.6,500z"/>
		<path class="st0" d="M183.9,500c-0.2-2.7-0.3-5.5-0.2-8.2c0.3-1,1.2-1.8,2.2-2c5.8-0.2,11.6-0.1,17.6-0.1V500H183.9z"/>
		<path class="st0" d="M489.5,429H500v9.2l-10.5,0.6l0.1,0.1L489.5,429L489.5,429z"/>
		<path class="st0" d="M255,500v-10h9.8v10H255z"/>
		<path class="st0" d="M71,71.1H0.2V0.3H71V71.1z M60.7,60.7V10.3H10.2v50.4H60.7z"/>
		<path class="st0" d="M469.4,153.4c-5.5-0.1-10.9-0.2-16.4-0.2c-4.4,0-4.4,0-4.4-4.2v-16.4h-9.9v-9.8h10.2v-10.3h10V102h-30.4
			c-0.1-2.9-0.1-5.8,0.2-8.7c0.1-0.6,2.2-1.4,3.4-1.4c7.5-0.1,15.1,0,22.6,0c1.3,0,2.6-0.1,4.4-0.2v-9.9h20v9.7h-9.7V102h9.6v20.2
			c-5.6,0-11.2,0.1-16.7,0c-2.6-0.1-3.8,0.5-3.5,3.4c0.2,2.2,0,4.4,0,7h10.5L469.4,153.4z"/>
		<path class="st0" d="M388,10h20V0.4h9.8v29.9h-9.7v10.1h-10v-20H388V10z"/>
		<path class="st0" d="M40.3,408h-10v10h-30v-9.6H10v-20.5c3,0,5.8-0.1,8.5,0.1c0.9,0.4,1.5,1.1,1.7,2c0.2,2.4,0.1,4.9,0.1,7.7h20.1
			V408H40.3z"/>
		<path class="st0" d="M111.3,40.3c0.3,0.6,0.8,1.3,0.8,1.9c0,9.2,0,18.5-0.1,27.7c-0.1,0.4-0.2,0.7-0.3,1.1l-10.1,0.5
			c0-3.3,0-6.6,0-10H92v9.9h9.7c0,2.7,0.2,5.5,0,8.2c-0.2,0.8-0.8,1.5-1.7,1.8c-2.5,0.2-5,0.1-8,0.1c-0.2-3.6-0.4-6.8-0.6-10.3h-9.5
			v-10h10v-10h10c0-2.9,0.1-5.5,0-8.1c-0.1-1.9,0.6-2.5,2.4-2.5C106.7,40.7,109,40.4,111.3,40.3L111.3,40.3z"/>
		<path class="st0" d="M111.3,40.3c0.2-2.9,0.5-5.8,0.6-8.7c0-0.3-1.3-0.8-2-0.9c-2.7-0.1-5.5,0-8.2,0l0.1,0.1V20.6h30.4v9.6
			c-2.2,0-4.5,0.1-6.7,0c-2.6-0.2-3.8,0.6-3.5,3.4c0.2,2.2,0,4.4,0,6.7L111.3,40.3L111.3,40.3z"/>
		<path class="st0" d="M101.7,30.7c0.1,0.2,0.1,0.4,0.2,0.6c0.3,9.3,0.3,9.3-9.1,9.3H81.9v-20h9.5v10.2L101.7,30.7L101.7,30.7z"/>
		<path class="st0" d="M387,51.3h10.6c0,6.2,0,12.4-0.1,18.5c0,0.5-1,1.3-1.5,1.3c-3,0-6-0.1-9.1-0.2l0,0l0.1-19.8V51.3z"/>
		<path class="st0" d="M61.3,295.7c0-3-0.1-5.7,0.1-8.3c0.3-0.8,0.9-1.5,1.8-1.7c5.5-0.1,11-0.1,16.5,0c0.6,0,1.2,1.1,1.8,1.7
			c0.1,0.1,0,0.4,0,0.6c0,7.6,0,7.6-7.6,7.7C69.8,295.8,65.7,295.7,61.3,295.7z"/>
		<path class="st0" d="M30.6,347.1h20.2c0,2.9,0.1,5.7-0.1,8.5c0,0.5-1.2,1.4-1.8,1.4c-5.5,0.1-11,0.1-16.5,0
			c-0.6,0-1.6-1.2-1.6-1.9C30.5,352.5,30.6,350,30.6,347.1z"/>
		<path class="st0" d="M91.3,469.1h-9.4v-19.7h9.4V469.1z"/>
		<path class="st0" d="M122.7,9.9V0.3h19.7v9.6C142.4,9.9,122.7,9.9,122.7,9.9z"/>
		<path class="st0" d="M438.8,132.5V143h-9.9c-0.2-3.3-0.4-6.6-0.6-10.5H438.8z"/>
		<path class="st0" d="M10.1,204.2v-10.4c3,0,5.9-0.1,8.6,0.1c0.6,0,1.5,1.2,1.6,1.9c0.2,2.5,0.1,5.1,0.1,7.6l0.1-0.1L10,204.1
			L10.1,204.2z"/>
		<path class="st0" d="M387.1,51.2h-9.5V40.6l-0.1,0.1h9.5L387.1,51.2L387.1,51.2z"/>
		<path class="st0" d="M193.5,30v-9.3h10.2V30H193.5L193.5,30z"/>
		<path class="st0" d="M367.5,9.8V0.3h9.7v9.5H367.5z"/>
		<path class="st0" d="M377.6,40.6h-10V31h9.9v9.7L377.6,40.6z"/>
		<path class="st0" d="M20.6,367.6h9.5v9.6h-9.5V367.6z"/>
		<path class="st0" d="M9.9,234.9L0,234.1c0-2.7-0.1-5.4,0.1-8c0.2-0.8,0.8-1.4,1.5-1.7c2.6-0.2,5.2-0.1,8.2-0.1L9.9,234.9
			L9.9,234.9z"/>
		<path class="st0" d="M71.2,408.1v10.1c-3,0-5.7,0.1-8.4-0.1c-0.7-0.2-1.2-0.7-1.4-1.4c-0.2-2.7-0.1-5.4-0.1-8.5h10L71.2,408.1z"/>
		<path class="st0" d="M417.8,71.1h-9.6c0-2.8-0.1-5.4,0.1-8c0-0.7,1.1-1.2,1.8-1.8c0.1-0.1,0.4,0,0.6,0
			C418.4,60.9,419.6,62.4,417.8,71.1z"/>
		<path class="st0" d="M9.8,377.7v9.5H0.3v-9.5H9.8z"/>
		<path class="st0" d="M40.6,377.4v9.7h-9.8v-9.6h9.9L40.6,377.4z"/>
		<path class="st0" d="M132.5,71.3h-9.7v-9.7h9.6L132.5,71.3L132.5,71.3z"/>
		<path class="st0" d="M10,204.1v9.6H0.3v-9.5h9.8L10,204.1z"/>
		<path class="st0" d="M326.3,9.9h-9.8V0.1c2.8,0,5.6-0.1,8.4,0.1c0.5,0,1.3,1,1.3,1.6C326.4,4.4,326.3,7,326.3,9.9z"/>
		<path class="st0" d="M387.2,30.2h-9.5v-9.6h9.5V30.2z"/>
		<path class="st0" d="M306.4,438.7h20.3V459H306v10.2h9.9v9.9h-19.7v-29.8h9.5L306.4,438.7z"/>
		<path class="st0" d="M255,163.1v10.5h-9.9c-0.1,2.2-0.3,4.3-0.4,6.7c-3.1,0-6,0.1-8.9-0.1c-0.7-0.2-1.2-0.8-1.4-1.4
			c-0.1-1.9-0.1-3.7-0.1-5.6c2.5-0.1,5-0.1,7.5,0.1c2.6,0.4,2.9-0.8,2.8-2.9c-0.1-2.3,0-4.6,0-7.3H255z"/>
		<path class="st0" d="M285.7,132.4h-10.5c0-2.9-0.1-5.8,0.1-8.8c0.2-0.7,0.8-1.2,1.5-1.4c2.8-0.1,5.6-0.1,8.8-0.1L285.7,132.4
			L285.7,132.4z"/>
		<path class="st0" d="M224.5,152.7h2.1c8.3,0,8.3,0,8.2,8.4c0,0.5-0.1,1-0.1,1.8h-10.1L224.5,152.7L224.5,152.7z"/>
		<path class="st0" d="M163.1,194v10.2c-3,0-5.9,0.1-8.8-0.1c-0.6,0-1.5-1.1-1.5-1.7c-0.2-2.7-0.1-5.4-0.1-8.4H163.1z"/>
		<path class="st0" d="M285.7,347v10c-0.4,0.1-0.8,0.2-1.1,0.3c-9.9,0.2-9.9,0.2-9.2-10.5h10.1L285.7,347z"/>
		<path class="st0" d="M224.2,132.4v10.5c-2.9,0-5.9,0.1-8.7-0.1c-0.6,0-1.4-1.3-1.4-2.1c-0.2-2.5-0.1-5.1-0.1-8.2L224.2,132.4
			L224.2,132.4z"/>
		<path class="st0" d="M193.9,132.3v-10.1c3,0,5.8-0.1,8.6,0.1c0.8,0.2,1.4,0.9,1.6,1.7c0.2,2.7,0.1,5.5,0.1,8.4L193.9,132.3
			L193.9,132.3z"/>
		<path class="st0" d="M173.3,193.8h6.8v9.8c-0.2,0.2-0.3,0.3-0.4,0.3c-6.4,0.9-6.4,0.9-6.4-5.4L173.3,193.8L173.3,193.8z"/>
		<path class="st0" d="M469.4,194v2.8c0,8.2,0,8.3-8.4,7.3c-0.9-0.3-1.6-1-1.9-1.9c-0.2-2.6-0.1-5.3-0.1-8.1h10.4V194z"/>
		<path class="st0" d="M101.8,367.2H91.6v-10.1h10.2C101.8,357.1,101.8,367.2,101.8,367.2z"/>
		<path class="st0" d="M173.8,377.3h9.9c0,3.2,0.1,6.1-0.1,9c0,0.5-0.8,1-1.2,1.4c-0.2,0.2-0.6,0.1-0.9,0.1l-7.8-0.4
			C173.7,384,173.8,380.6,173.8,377.3L173.8,377.3z"/>
		<path class="st0" d="M244.6,71.1c0-3-0.1-5.7,0.1-8.4c0.2-0.8,0.8-1.4,1.6-1.7c2.8-0.2,5.6-0.1,8.6-0.1v10.2H244.6z"/>
		<path class="st0" d="M60.9,254.8v-8.2c0-0.1,0-0.2,0-0.3c1.9-3.6,5.2-0.9,7.8-1.6c1.3-0.4,2.6,0,2.6,2c-0.1,2.6,0,5.3,0,8.1H60.9z
			"/>
		<path class="st0" d="M254.8,438.6h-10.2c0-3-0.1-5.9,0.1-8.8c0-0.5,1.1-1.4,1.8-1.5c2.7-0.2,5.4-0.1,8.3-0.1L254.8,438.6
			L254.8,438.6z"/>
		<path class="st0" d="M428.5,254.7c0-0.6-0.1-0.9-0.1-1.4c-0.2-9.6,0.1-9.9,10.1-8.5v9.8L428.5,254.7L428.5,254.7z"/>
		<path class="st0" d="M438.5,438.6h-10v-10h10V438.6z"/>
		<path class="st0" d="M479.6,20.4v30.4h-30.7V20.4H479.6z"/>
		<path class="st0" d="M50.8,479.6H20.4v-30.7h30.4V479.6z"/>
		<path class="st0" d="M20.3,50.8V20.4h30.5v30.4H20.3z"/>
		<path class="st0" d="M264.5,205h-29c-4.4,0-8,3.6-8,8v74c0,4.4,3.6,8,8,8h29c4.4,0,8-3.6,8-8v-74C272.5,208.6,268.9,205,264.5,205
			z M270,286.5c0,3.3-2.7,6-6,6h-28c-3.3,0-6-2.7-6-6v-73c0-3.3,2.7-6,6-6h1c0.6,0,1,0.4,1,1v0.6c0,1.1,0.9,2,2,2h20
			c1.1,0,2-0.9,2-2v-0.6c0-0.6,0.4-1,1-1h1c3.3,0,6,2.7,6,6V286.5z"/>
	</g>
</g>
<circle class="st0" cx="250" cy="283.4" r="4"/>
<path class="st0" d="M239,285h-2c-0.6,0-1-0.5-1-1v-2c0-0.6,0.4-1,1-1h2c0.6,0,1,0.4,1,1v2C240,284.6,239.6,285,239,285z"/>
<path class="st0" d="M264,273.4h-28c-1.1,0-2-0.9-2-2v-52c0-1.1,0.9-2,2-2h28c1.1,0,2,0.9,2,2v52C266,272.5,265.1,273.4,264,273.4z"
	/>
</svg>
