<svg xmlns="http://www.w3.org/2000/svg" viewBox="0 0 500 500"><defs><style>.cls-1{fill:#fff;}</style></defs><title>pic_tossQR</title><g id="레이어_2" data-name="레이어 2"><g id="레이어_1-2" data-name="레이어 1"><path class="cls-1" d="M500,184v30H489.5v10.57H480v9.69h9.64c0-2.66.09-5,0-7.34-.11-1.91.67-2.52,2.49-2.46,2.64.08,5.29,0,7.94-.05V244.6c-2.74,0-5.49-.14-8.2.12-.79.07-2.11,1.26-2.12,2-.12,6.27,0,12.55.05,18.83H469.38c0,2.9-.08,5.53.06,8.15,0,.55.86,1.5,1.34,1.51,6.17.11,12.35.07,18.84.07v-9.82H500v30l-10.27-.17c0-3.1,0-6.21,0-9.39H480v9.91l9.85-.6q0,5.85,0,11.7l-9.87-1v10.14h9.84v-9.25l10.19-.36v71.05H489.67V336.63H479c0-6.69,0-13.37,0-20.41H458.94v-9.83H449v9.73H428.28V296.17H357.44V306h20.19v10.09h20.18v-10.2c6.14,0,11.86.14,17.56-.06,2.6-.09,3.3.75,3.21,3.27-.18,5.58-.05,11.17-.05,17.22h51v10.24h9.53c.14,3.38.29,6.76.45,10.41h-10v10.44h9.64v20.07c-1.6,0-3,0-4.39,0l-16.11.32V367.33c-6.23,0-12.31,0-18.38.08-.53,0-1.45,1-1.49,1.65-.16,2.7-.07,5.43-.07,8.67h20v9.73H438.9v10.65h20.17V408h10.44V387.92H500v9.8H479.18c0,3.74,0,7.06,0,10.39-2.54,0-5.1-.13-7.62.09-.77.07-2,1-2.1,1.68-.24,2.6-.1,5.23-.1,8h9.71V408l20.92.13v9.8H489.55V429l.08-.11-9.66-.49V438.8h9.66l-.09-.07c0,3.49,0,7,0,10.48l.08-.08c-2.65,0-5.3-.09-7.94,0-1.91.06-2.48-.79-2.4-2.59.11-2.5,0-5,0-7.73h-9.89c0-1-.1-2-.11-3,0-8,0-8-7.93-7.26-.2,0-.52,0-.59.05-.61.85-1.77,1.86-1.63,2.59.48,2.5-1.56,5.47,1.27,7.5.34.24,1,.06,1.49.06l7.61,0c-.06,2.54-.28,5.09-.13,7.62.15,2.37-.82,3-3,2.89-2.37-.15-4.76,0-7,0v9.9h20.09V469.5H469.33v9.71l.08-.08-10.49.5v10H448.55V500h-9.8V489.45H418.44V479.07h9.73v-9.49h-9.65v9.57H408v-20H397.61v10.18H387.4c0,2.94.08,5.47,0,8-.08,1.9.72,2.5,2.54,2.42,2.5-.11,5,0,7.5,0v10H387.29V500h-19.6V489.67h9.66V469.28c-2.68,0-5.21-.08-7.73,0-1.85.08-2.61-.58-2.53-2.45.1-2.43,0-4.86,0-7.48h-9.64v9.95h9.42v10.24H356.81v10.12h-9.94V500H326.65q0-20.53,0-41.08h30v-9.87H336.7V438.59h10.22V418c6.15,0,11.94-.06,17.74,0,1.85,0,2.59-.52,2.48-2.43-.13-2.41,0-4.84,0-7.61h20.05V388h-9.77v10H357.17V408H347V397.63h9.76c0-2.62.11-5,0-7.27s.5-3.17,2.89-3,4.81.05,7.27.05v-10H356.71V367.36h-10v-10h-10v30.2H316.09v-9.94H296v20.22c-1.93,0-3.53,0-5.13,0-5.2.18-5.21.19-5.22,5.42,0,4.85,0,9.71,0,14.53h10c0-2.64.08-5,0-7.31-.07-1.81.46-2.6,2.43-2.47,2.5.17,5,0,7.88,0V397.9h20.86v10.29h10.1c0,6.45,0,12.66-.06,18.87a2.09,2.09,0,0,1-1.49,1.37c-6.28.09-12.56.06-19.15.06v-10c-1.31,0-2.31,0-3.31,0-6.52-.07-6.63-.07-6.69,6.31,0,4.66.28,9.31.43,14-2.75,0-5.5-.12-8.25-.09-1.65,0-2.42-.54-2.34-2.32.12-2.6,0-5.21,0-7.87H285.5v10.14H275.41v20.42h5c5.21,0,5.17,0,5.14,5,0,7.14,0,14.28,0,21.42v3.88h-20.2v-3.15q0-12.24,0-24.49c0-1.24.46-2.84-1.71-2.83-2.82,0-5.64,0-8.83,0v10.31h-3.67c-8.06,0-16.12,0-24.18,0a20.93,20.93,0,0,0-2.92.41c0-3.49,0-7,0-10.38H204.29v10c1.55,0,2.94,0,4.33,0q7.74.15,15.49.34v10.09h20.46V500H224.36V489.54h-20.3v-9.88h-31v9.92c-6.06,0-11.86.09-17.65,0-2.17-.05-2.88.71-2.77,2.82.14,2.54,0,5.09,0,7.64h-9.8V479.41H132.65v-10c1,0,1.93-.12,2.83-.13,7.42-.07,7.35-.06,7.29-7.54,0-2-.57-2.77-2.6-2.67-2.5.13-5,0-7.79,0v-9.81h-9.95v20.21h-9.94v9.74c5.88,0,11.49.09,17.09,0,2.32-.06,3,.76,2.92,3-.13,5.91,0,11.83,0,17.74H92.05V479.8h9.74c0,3.12,0,6.24,0,9.78,3.15,0,5.87.09,8.58-.08a2.34,2.34,0,0,0,1.58-1.62c.17-2.6.07-5.23.07-8H101.68V459.28H112V438.53H81.82v-20H102v9.62h10.11c0-2.73.12-5.46-.1-8.17,0-.55-1.29-1.35-2.06-1.44-2.48-.29-6.12.63-7.19-.67-1.36-1.63-.65-5-.78-7.61-.06-1.43,0-2.86,0-4.28q0-4.05,0-8.11H91.34V388H81.85v9.7h9.59v10.33H71.19l.11.11V397.63H51.22v-9.76c6,0,11.81.06,17.61-.06.83,0,2.28-.88,2.33-1.44.24-2.9.11-5.82.11-8.95H40.56l.1.11V367.41H71.12V356.93H61.49v-10h9.59V336.38H40.71V326.26c-2.84,0-5.37,0-7.9,0-1.9,0-2.75.69-2.61,2.72.15,2.4,0,4.82,0,7.56h-10c0,2.24,0,4.16,0,6.07,0,4.29,0,4.27-4.14,4.2-2,0-4,0-6.31,0v20.14H.27V316.26H10v20.21c3,0,5.59-.08,8.12,0,1.84.08,2.22-.82,2.2-2.42-.06-5.1-.1-10.19,0-15.29,0-2.06-.8-2.66-2.74-2.55-2.54.15-5.09.07-7.64.09.06-2.54.23-5.09.13-7.62-.08-2,.65-2.69,2.63-2.68q17.57.11,35.14,0c2.42,0,3.25.95,3.12,3.27s0,4.56,0,6.78H61.52v9.95H81.19v-9.85H61.42V306.1H91.54V285.49h-10v-10H50.71v10.2H30.25v9.78H.33v-9.9H20.38c0-3,.14-5.77-.09-8.48a2.81,2.81,0,0,0-2.05-1.74c-2.61-.22-5.24-.09-8.19-.09,0-1.71,0-3.11,0-4.51q-.06-17.9-.14-35.79l-.07.09c2.64-.08,5.28-.09,7.91-.27,1.89-.14,2.57.63,2.52,2.44-.06,2.42,0,4.83,0,7.7h9.81V255H20.51V265.4c6.29,0,12.29.05,18.28-.08.64,0,1.81-1.08,1.81-1.67.12-9.56.09-19.12.09-29.17h-10v-20.6h9.72v-9.54H30.81V214H20.52V203.36l-.09.1,9.62.51V193.71H20.24V183.24H40.71V173.18H60.8c0-2.52.11-4.75,0-7s.6-3.23,3.12-3.14c5.69.2,11.39.06,17.33.06v-9.72H51v9.82H20.35v20.11H0c0-9.79,0-19.16.1-28.52,0-.63,1.48-1.68,2.35-1.77,2.4-.25,4.84-.09,7.66-.09v-10c2.73,0,5.08-.13,7.41,0s3-.79,2.89-3c-.16-2.39,0-4.8,0-7.46H30.58c0-3.09.13-5.93-.11-8.73-.06-.6-1.48-1.45-2.33-1.52-2.5-.21-5-.08-7.84-.08v-9.73H9.79V122H.21V92c6.28,0,12.37-.07,18.45.1.54,0,1.42,1.49,1.49,2.35.2,2.46.07,5,.07,7.39H40.47V91.47H30.85V81.8h20v9.9H61.15V81.9H81.53v19.94H91.9V92.15h9.89c0,2.53-.07,5.07.18,7.58.08.77,1.09,2,1.76,2.07,2.67.23,5.39.09,8.15.09V92.25h-10.2V81.92h30.57c0,3.1,0,6.21,0,9.4h20.22V82H132.19c.09-3.55.19-7.11.28-10.67l-.1.11c2.75,0,5.52,0,8.25-.23.72-.06,1.6-1.05,1.95-1.83a6.75,6.75,0,0,0,.15-2.71c0-6.4.4-5.17-5.12-5.3-.82,0-1.64-.06-2.45,0-1.93.17-2.74-.53-2.67-2.6.14-4,0-8,0-11.94V40.92h10.16V51.26H152.8V71.51c3.7-.19,7.11-.35,10.52-.51-.07,2.84-.21,5.69-.12,8.53,0,.67.79,1.86,1.28,1.89,2.78.18,5.59.09,8.84.09,0-3.13.15-5.76-.1-8.36-.06-.67-1.3-1.67-2.08-1.76-2.61-.29-5.25-.23-7.88-.31v-20c2.91,0,5.45.14,8-.08.8-.07,2.17-1,2.18-1.64.16-6.19.1-12.39.1-19H143.13v-20h9.59c0,2.81-.11,5.45.08,8.06,0,.72.94,1.94,1.51,2,2.81.21,5.65.09,8.86.09,0-6,.14-11.68-.06-17.35C163,.52,164-.1,166.26,0c3,.15,5.92.08,8.87.09h8.31V10.18h10.24c0,3-.07,5.52,0,8.05.07,1.83-.79,2.27-2.42,2.22-2.42-.09-4.86,0-7.43,0V30h9.68l-.07-.06V40.64c-2.76,0-5.21.08-7.65,0-1.84-.07-2.58.61-2.5,2.49.1,2.64,0,5.3,0,7.95h-9.62V71h9.51V50.94H204c-.18,3.77-.34,7.17-.5,10.56h-9.88V81.77h-20v19.89h9.66c0-2.48.17-4.73-.05-6.94-.26-2.7,1-3.31,3.37-3.26,5.59.11,11.18,0,17.22,0V87.68c0-7.65,0-15.3,0-23a26,26,0,0,0-.4-3.28l11.39-.22c-.21,3.26-.41,6.52-.62,9.83h9.89V61.31h-9.35V40.67h9.34V30h10.2V10.33H224.19V30.07h-9.71V.32h30.2v9.82h30.54c0,2.91-.11,5.54.07,8.15,0,.74.91,2,1.47,2,2.89.21,5.81.1,9,.1V.28h10v9.86h10.13V20.46h-9.65V30h9.55V20.35c6.11,0,12.23,0,18.35.14,2.11,0,2.63-.81,2.53-2.72-.12-2.49,0-5,0-7.77h10.16V.07c6.37,0,12.37-.07,18.36.11.66,0,1.72,1.45,1.81,2.31.25,2.4.09,4.85.09,7.65h10c0,2.8-.11,5.25,0,7.68.11,1.91-.69,2.52-2.49,2.47-2.42-.08-4.84,0-7.78,0,0,2.43,0,4.54,0,6.65,0,4.57-.1,9.15-.14,13.72H326.32c0-2.84.09-5.37-.06-7.88,0-.69-.77-1.87-1.25-1.91-2.81-.18-5.63-.08-8.77-.08v10h-20V51h9.91V60.7h10V51h20.36V71.16H326.26v-9.6h-10V81.83H296c0,2.88.12,5.43-.07,8-.05.76-.9,2-1.46,2.09-2.9.21-5.81.1-8.93.1V40.65h9.91V30.9h-9.8v9.86c-1.12,0-2.24,0-3.37,0-6.78,0-6.79,0-6.79,7,0,14-.05,28,.07,41.93,0,2-.6,2.45-2.42,2.34-2.5-.14-5,0-7.87,0V102H255v10.28h-10c0,2.1,0,3.9,0,5.7.05,4.19.06,4.17,4.11,4.14,4.49,0,9,0,13.47,0,2,0,3.06.54,2.89,2.81s0,4.84,0,7.58H244.85c0,2.95.13,5.58-.08,8.19-.06.76-1.05,2-1.7,2.08-2.71.23-5.46.09-8.65.09V132.38H224.23l.08.09v-20H183.7v20.2H173.51c0,2.78.1,5.23,0,7.67-.1,1.9.62,2.44,2.46,2.41,5.87-.09,11.75,0,17.91,0v10a69.3,69.3,0,0,0,6.95,0c2.82-.3,3.59.91,3.4,3.5-.17,2.2,0,4.42,0,6.89h10.21v10.27h9.9v6.84h-20.4c0-4.33,0-8.5,0-12.67,0-4.35,0-4.34-4.56-4.34H183.21V153H173.16v-9.86h-9.83v20h10.13v10.19c2.72,0,5.15-.1,7.55.06.92.05,2.47.59,2.56,1.11a33.27,33.27,0,0,1,.12,5.55l-3.25.52c-.11,1-.2,1.89-.34,3.14H142.85v10.13H132.64v10.47c-2.65-.05-5.29-.2-7.93-.12-1.78.05-2.63-.47-2.61-2.37.06-5.39.05-10.78,0-16.17,0-1.69.69-2.35,2.4-2.28,2.59.1,5.19,0,7.88,0V163.11l6.12,0c4.19,0,4.19,0,4.19-4v-16.5h9.86V132.8H122.37V143h-9.85v9.89h20v10.31c-2.65,0-5.31,0-8-.06-1.64-.07-2.14.66-2.11,2.17,0,2.62,0,5.25,0,8.21H102v9.86h10.07v10.49H101.75v10.36H71.43v9.61c1.06.05,2,.14,3,.14,4.7,0,9.4.13,14.09,0,2.63-.09,3.75.61,3.36,3.46a53.08,53.08,0,0,0-.06,7c6.48,0,12.57,0,18.67-.09.49,0,1.32-1.27,1.37-2,.16-2.68.06-5.38.06-8.07h10.41v10.2h-10v9.79H152.7c0-2.38-.17-4.52,0-6.62.25-2.6-.77-3.32-3.28-3.24-5.57.16-11.15,0-16.93,0V204.22c2.63-.11,5.26-.15,7.89-.33,1.91-.13,2.52.71,2.45,2.52-.09,2.42,0,4.84,0,7.44,1.53.07,2.73.17,3.93.17,7.24,0,14.49,0,21.74,0,5.66,0,4.92-.62,5,5.14,0,1.68,0,3.36,0,5.27h6.6v30.43h-6.79c0-2.36-.12-4.58,0-6.79s-.45-3.2-3-3.17c-11.54.15-23.07.07-34.61.08-1,0-2,.11-3.05.18V255h10.22v20.23c9.8,0,19.17,0,28.55-.1.61,0,1.66-1.28,1.72-2,.22-2.61.08-5.24.08-7.91h7v6c0,4.3,0,4.29-4.39,4.42a20.47,20.47,0,0,0-2.16.25v9.81H180v10.4h-6.37v9.57l6.6.37v13.7l3.25.35c.15,2,.28,3.92.44,6h19.92v-6h41v6.63H235v9.5H255.1v-9.77h10v20.46H254.91v30.38h-10a6.61,6.61,0,0,1-.26-1c-.21-2.89.67-7.13-.85-8.34-1.93-1.52-5.81-.62-8.85-.67-3.43-.06-6.86,0-10.37,0v10.3h9.93v20.32c-2.7,0-5.15.12-7.58,0-1.87-.13-2.63.5-2.56,2.38.1,2.65.08,5.3.12,8h-9.83v9.62h9.72v-9.73h20.43V387.6h20.6v20.47c2.6,0,4.83-.1,7,0s3-.52,2.84-2.74c-.17-2.48,0-5,0-7.83h10.19v-9.68c-2.62,0-5.06-.11-7.48,0-2.21.14-2.8-.77-2.75-2.86.12-5,.14-10,0-15-.06-2.27.67-3,3-3,11.84.1,23.68.05,35.52.05.77,0,1.55-.12,2.53-.19V346.89h10.56v10h9.53V336.71c-2.58,0-5.12-.16-7.62.05-2,.17-2.49-.67-2.43-2.43.07-2.49,0-5,0-7.43h-10V347c-2.54,0-5.09,0-7.64-.14-2-.11-2.68.74-2.57,2.7.13,2.5,0,5,0,7.58H295.57V347h-9.85l-.18-.18V326.59H275.37v-6.47h10.24a18.82,18.82,0,0,1,0,2.63c-.42,2.83.77,3.74,3.56,3.61,4.48-.2,9-.07,13.47-.08h13.65v-6.19l3.64-.38V295.78l6.39-.29v-3.85c0-5.74,0-5.73-5.69-6.07-.16,0-.31-.21-.6-.42v-19.9l6.12-.39V255h-6.25V240.63c0-5.74,0-5.74,5.63-6.32.19,0,.36-.19.83-.44v-3.45c0-5.84,0-5.84-5.73-6.09-.17,0-.33-.19-.61-.36V203.86a18.52,18.52,0,0,1,3.34,0c2.21.43,3-.47,2.91-2.58-.07-2.41,0-4.83,0-7.53h-6.16V183.27h5.86v-9.81h-9.85v-10.3c-2.77,0-5.12.07-7.45,0-2-.08-2.64.67-2.57,2.7.15,4.76.05,9.53.05,14.27H285.51v-6.33H275.6a33.57,33.57,0,0,1-.07,4.75c-.1.65-.93,1.7-1.44,1.71-6.29.12-12.58.08-19.17.08v-6.77h20.17v-20.2h-9.77v9.85H254.93V142.75h26.62c4,0,4,0,4.05-3.92,0-2.14.08-4.28.13-6.42l-.09.08h9.71V112.23H275.48V101.79h40.88V91.36h9.9a59.06,59.06,0,0,0,0-6.27c-.31-2.79.26-4.28,3.52-3.64a20.93,20.93,0,0,0,4.88,0c1.75-.09,2.3.54,2.15,2.34-.2,2.48,0,5,0,7.53h30.16v-9.8H356.76V71.29H347V50.86a75.84,75.84,0,0,0,7.72-.09,3,3,0,0,0,2.11-2c.15-2.72-.12-5.47-.24-8.21h10.74V60.87h10.21V71H387s0,0,0,0c.18,3.39.36,6.78.56,10.58h-9.88V92h40.16v20.38H408.1V102.05H397.84c0,2.86-.14,5.67.11,8.45.06.6,1.47,1.45,2.33,1.54,2.6.25,5.24.19,7.87.25V142.9h20.9c-.22,3.17-.45,6.34-.7,9.9h10.51v10.32h20.06v20.72H439v10h10.15c0,2.85-.06,5.38,0,7.91.06,1.89-.74,2.5-2.56,2.41-2.51-.11-5,0-7.62,0V224.1h9.65c0-2.41.13-4.56,0-6.68-.2-2.57.53-3.73,3.37-3.5,3.14.27,6.32.08,9.48.08h8.08v10.14h9.88V193.69h10.22v-9.75l-.06.06ZM438.77,469.31v9.85h9.72v-9.74h-9.84V459.11c-3,0-6-.74-8.52.18-3.44,1.29-1,5-1.59,7.51-.16.68.79,1.72,1.41,2.43.23.26,1,.07,1.48.08ZM316.2,132.44H326V112.52h-9.74v20H306.06c0,3.09,0,5.72,0,8.35s2.16,1.94,3.37,1.79c2.27-.27,5.06,1.47,6.75-1.4.22-.38,0-1,0-1.51Zm-245,61.41h-20v30.3H71v-9.78c-2.78,0-5.33.14-7.85-.08-.8-.07-2.12-1-2.17-1.65-.24-2.79-.11-5.61-.11-8.78H71.13V193.74c2.74,0,5.49.13,8.23,0,.71,0,1.91-.94,2-1.51.21-2.68.1-5.39.1-8.27H71.24ZM132.52,347h-9.83v30.57h10v9.7h10c0-5.9-.1-11.59,0-17.28.06-2.27-.91-2.8-2.91-2.72-2.39.11-4.79,0-7.41,0v-20.4h10.24V336.32h9.85V316.5h-9.67c0,2.79,0,5.33,0,7.87,0,1.73-.7,2.34-2.38,2.29-2.61-.08-5.21,0-8,0Zm-.08-245V92.13h-9.65v9.72h9.75v10.59h-9.86v9.7h23.95c6.56,0,6.56,0,6.55,6.42v3.72h10.1V122.13h9.79v-9.94H142.72c0-2.87,0-5.4,0-7.92,0-1.63-.55-2.43-2.33-2.36C137.75,102,135.09,102,132.44,102ZM408.11,377.46h20.23c0-2.88-.09-5.32,0-7.75.1-1.89-.63-2.55-2.47-2.47-2.5.1-5,0-7.86,0,0-2.82.08-5.35,0-7.87-.07-1.78.43-2.64,2.39-2.54,2.52.13,5.05,0,7.66,0V346.8h-9.83c-.06-.93-.13-1.62-.13-2.31,0-5.2,0-10.4-.11-15.6,0-.78-1-2.14-1.58-2.19-2.68-.24-5.4-.11-8.4-.11v10.13c-2.63,0-5,.1-7.29,0-2.06-.12-3.06.51-2.87,2.73a26.08,26.08,0,0,1,0,5.15c-.23,1.89.58,2.34,2.22,2.31,2.6-.06,5.21,0,8.1,0v30.69h-10v20.22h10v9.68c.5.29.67.47.84.48,9.39.06,18.77.14,28.15.08.53,0,1.47-1.06,1.51-1.67.17-2.63.08-5.28.08-8.39-2.66,0-5.08-.14-7.48,0s-3.09-.72-2.92-3,0-4.6,0-7.21H408.11Zm-234.28-.21H163.14c0,3.21-.08,5.75,0,8.28.07,1.76-.65,2.36-2.33,2.31-2.51-.08-5,0-7.57,0v10h10v10.31c2.75,0,5.18-.1,7.6,0,2,.11,2.48-.81,2.43-2.56-.08-2.59,0-5.19,0-8h20.55V377.37h10c0-2.81-.06-5.35,0-7.87.06-1.78-.75-2.3-2.41-2.24-2.52.09-5,0-7.87,0v-20.4c-2.63,0-5,.08-7.29,0-2-.09-2.77.64-2.68,2.66.12,2.5,0,5,0,7.89h-9.91v19.9Zm203.63-214V152.61h9.82v-9.7c-5.8,0-11.4-.13-17,.05-2.61.08-3.43-.84-3.24-3.34.18-2.28,0-4.59,0-7.15H346.83c0-2.58.16-4.91,0-7.21-.22-2.48.74-3.18,3.11-3.16,8.47.11,17,0,25.42.06a17.08,17.08,0,0,1,2.26.34v9.84h9.92v-10.2h10v-10h-10.2v-10h-9.87v10.31H336.59v20.27h-10c0,2.86.07,5.41,0,7.95-.06,1.63.69,2.16,2.19,2.14,2.53,0,5.06,0,8,0v10H346.9V163.3h10.33c0,2.84-.14,5.29,0,7.72.14,1.93-.59,2.57-2.41,2.52-2.6-.08-5.2,0-7.79,0v9.59h20.16v-20h10.33v10.25h20.08v20.59H357.28a59.84,59.84,0,0,0,.05,6.74c.35,3-1,3.62-3.66,3.55-5.5-.15-11,0-16.93,0,0,2.72-.15,5.25.05,7.75.15,1.95-.54,2.54-2.38,2.47-2.51-.1-5,0-7.58,0v9.81h20.09V214c2.88,0,5.32.06,7.76,0,1.94-.07,2.76.63,2.63,2.67-.15,2.49,0,5,0,7.52h20.18v-9.64c-1.13-.05-1.93-.12-2.73-.12-8.29,0-8.29,0-7.6-8.3,0-.21-.06-.48,0-.6.46-.55.94-1.48,1.46-1.51,2.9-.14,5.81-.07,9-.07v9.85h9.91c0-2.82-.08-5.45.06-8.07,0-.66.77-1.81,1.24-1.84,3-.17,6-.09,8.8-.09v20.74h-9.56v19.88H408.2V213.84h9.74V193.76h-9.71V173.1h19.94V153.15c-2.6,0-5,.1-7.43,0-1.75-.09-2.42.56-2.33,2.27a37.44,37.44,0,0,1,0,5.8c-.08.71-1.05,1.87-1.63,1.88-6.29.14-12.59.09-19.14.09v-9.65c-9.55-1.28-9.63-1.28-9.79,7.16,0,2.11-.84,2.62-2.74,2.54C382.57,163.1,380,163.19,377.46,163.2ZM183.51,459c.08,1.18.18,2.07.18,3,.07,7.82.06,7.76,7.81,7.42,1.77-.07,2.3-.75,2.25-2.39-.08-2.61,0-5.21,0-8.12h10c.07-1.39.19-2.49.18-3.6-.11-6.56-.12-6.56,6.37-6.57h14.11c0-6.45,0-12.35-.08-18.26a2.55,2.55,0,0,0-1.6-1.87c-2.61-.21-5.25-.09-8.29-.09,0,2.86.13,5.39-.07,7.88-.07.83-.92,2.24-1.5,2.29-2.9.23-5.83.1-8.84.1-.08-1-.17-1.56-.17-2.15,0-11.94.09-23.87,0-35.81,0-.92-.9-2.56-1.5-2.62-2.78-.28-5.61-.12-8.77-.12v20.62H184v9.83h9.61v10H183.36c0-2.59-.15-4.94,0-7.26s-.7-2.8-2.79-2.76c-4.89.12-9.8.16-14.68,0-2.44-.1-3,.86-2.85,3,.15,2.38,0,4.79,0,7.46H152.88v10.25h-9.8V459h5.43c4.64,0,4.64,0,4.63,4.63v15.44h20.19c0-6,0-11.84,0-17.64,0-1.68-.64-2.36-2.38-2.28-2.53.13-5.07,0-7.69,0V448.73c2.71,0,5.24.08,7.76,0,2.07-.09,2.63.86,2.52,2.77-.14,2.4,0,4.82,0,7.51ZM112.33,377.5V346.76H122v-10h-10c0-2.89.15-5.43,0-7.95-.16-2.14.74-2.65,2.64-2.56,2.41.11,4.83,0,7.31,0v-9.74H101.78v10.23H91.87c0,2.84-.09,5.38,0,7.91.08,1.79-.62,2.28-2.33,2.18-2.58-.14-5.17,0-7.72,0v40.8H102v9.6h19.91V377.5Zm244.53-41.18c0-2.7,0-5.22,0-7.74,0-1.63.65-2.31,2.39-2.34,2.56,0,6.24.53,7.39-.86,1.33-1.59.43-5.05.47-7.69a9.71,9.71,0,0,0-.23-1.44h-10.1V306.08H347V295.5h9.75v-9.83h-10V275.49H336.39v-9.87h-9.61v20h9.91a56.54,56.54,0,0,0,.08,7.64c.34,2.43-.72,2.81-2.68,2.76-2.4-.07-4.79,0-7.33,0v20.31H337v20Zm.47,30.55h40.15v-20H387.39v-20H367.33v10.08h-10ZM81.62,132.64H61.29c0,2.75.06,5.28,0,7.79-.06,1.7.58,2.36,2.31,2.35q12.86-.09,25.7,0c1.81,0,2.25-.82,2.2-2.44-.09-2.51,0-5,0-7.56h10.44c0,2.78-.14,5.34.09,7.86a2.86,2.86,0,0,0,1.83,2c2.6.24,5.24.1,8.26.1V132.51h9.85v-10H91.33v-10H61.57v9.69h3.22c4.79,0,9.59-.07,14.38.11.84,0,2.27,1.07,2.34,1.75C81.78,126.71,81.62,129.45,81.62,132.64Zm61,285.89c0-3.14.11-5.77-.07-8.39,0-.7-.95-1.91-1.48-1.92-6.08-.14-12.16-.09-18.34-.09v30.7h9.86v9.86c2.53,0,4.77-.15,7,0,2.38.21,3.21-.6,3.15-3-.15-5.67-.05-11.35-.05-17.44h9.84v-9.73ZM234.93,51.22v30a8.12,8.12,0,0,0,1.37.27c8.77,0,17.54,0,26.3.08,2.18,0,2.54-1,2.53-2.79-.06-6.11-.07-12.23-.08-18.35,0-3,0-6.07,0-9.19ZM81.31,235H51.11v29.77h30.2ZM92,255.15h20.33v20.16h10.19v10.14h9.71v-20h-6c-4.14,0-4.15,0-4.17-4.23,0-5.27,0-10.54,0-16.25H101.76v-10H92ZM234.88,448.68c9.71,0,19.07.05,28.43-.1.61,0,1.7-1.5,1.71-2.32.12-8.35,0-16.7.11-25.06,0-2.22-.76-2.74-2.81-2.71-7.54.09-15.08,0-22.62,0h-4.82Zm183.8-213.82v29.89a9.88,9.88,0,0,0,1.9.39c8.68,0,17.36-.05,26,0,2,0,2.09-1,2.08-2.52,0-8.57,0-17.14-.08-25.72a13.26,13.26,0,0,0-.32-2.06Zm29.88,183.86H418.73v29.74h29.83Zm-40.69,29.74V418.78H367.25c0,2.49.1,4.72,0,6.94-.11,2,.52,2.79,2.59,2.66,2.49-.14,5,0,7.77,0v10.16h9.86v-4.12c0-6.05,0-6.06,5.86-6,4.85,0,4.64-.82,4.61,4.52,0,5.17,0,10.34,0,15.58ZM163.05,346.72h20.12v-10h-10.1v-9.85h-9.95v10.05h-10V347h-10v19.83h9.82V356.7h10.15Zm10-60.83h-30v9.72c2.49,0,4.73.08,7,0s3.13.39,3,2.87c-.19,5.85-.06,11.71-.06,17.62H173v-10H163.2V295.68h9.88ZM305.72,143.13H285.79v29.92h9.85V163h10.08Zm-71-112.4c0,2.47.17,4.6,0,6.69-.27,2.52.54,3.33,3.15,3.29,11.41-.13,22.82-.05,34.23-.06,1,0,1.94-.1,2.95-.16V30.67H254.92v-10h-10c0,2.52-.16,4.85,0,7.15s-.81,3.07-3,3S237.37,30.73,234.77,30.73ZM102,305.66h30.25v-9.8H112v-10H102ZM244.39,112.18v-20h-20c0,6.1-.07,11.9.07,17.7,0,.77,1.07,2.16,1.66,2.18C232.09,112.24,238.09,112.18,244.39,112.18Zm112.44,163c0-2.79.09-5.22,0-7.64-.1-1.9.64-2.52,2.48-2.44,2.57.11,5.16,0,7.58,0v-9.94h-30V265h10.21v10.1Zm81.92,10.53v9.74h9.75V275.78H428.76v9.88ZM398.1,275.24c2.92,0,5.65.08,8.36-.06.55,0,1.51-.88,1.51-1.37.11-6.17.07-12.35.07-18.57H398.1Zm-40.63-40.3v9.46h19.78v-9.46Zm-30.67,9.41h19.81v-9.42H326.8ZM439,347v9.71H458.7V347ZM50.62,143.1H31v9.49H50.62ZM336.3,91.93c-2.91,0-5.62-.09-8.32.09-.49,0-1.27,1.21-1.28,1.87-.11,5.38-.13,10.77,0,16.15,0,.71.92,1.94,1.48,2,2.69.21,5.4.09,8.13.09ZM367,428.73h-9.55v19.7H367ZM92,173h9.61V153.44H92Zm285.66,72v19.8h9.56v-19.8Zm-.28,30.87c-9-1.8-10.66-.56-10.13,7.32,0,.3-.09.71.07.89.46.54,1,1.38,1.56,1.41,2.8.14,5.6.07,8.5.07ZM40.78,132.37h9.88V123c-8.92-2.08-10.2-1.11-10,7.44C40.67,131,40.73,131.59,40.78,132.37ZM408.08,321a9.63,9.63,0,0,1,0-1.52c.43-2.56-.64-3.29-3.17-3.25-7,.1-7,0-7,7,0,.31-.15.72,0,.9a7.35,7.35,0,0,0,2.1,2.16c.73.35,1.78,0,2.69,0C408.58,326.16,408.05,327.15,408.08,321ZM45.94,183.73c-5.42.13-5.65.14-5.22,7.28.34,5.61,4.85,2.08,7.32,2.59,3,.61,3.08.09,2.88-7.44C50.8,181.77,47.34,184.67,45.94,183.73ZM346.58,479.12v-9.63h-9.67v9.63Zm112.25-20c-2.94,0-5.65-.06-8.36.06a1.85,1.85,0,0,0-1.24,1.3c-.12,2.88-.06,5.77-.06,8.62h9.66ZM346.74,20.61h-9.83V30h9.83ZM224.19,336.67c-2.77,0-5.21-.14-7.62.08-.77.07-2,1.05-2.08,1.7-.24,2.69-.1,5.42-.1,8.21h9.8ZM152.62,163.39H143v9.7h9.61Zm183.73,0h-9.57v9.73h9.57ZM305.75,337h-9.67v9.64h9.67Zm173.56-82.11c0-2.93.59-5.81-.14-8.3-1-3.55-4.43-1-6.7-1.57-1.1-.28-3.07-.73-3.09,1.65,0,2.7,0,5.41,0,8.22Zm-255.1-173h-9.7v9.57h9.7Zm20.2,274.84v-9.54H235v9.54Zm82.34-163.16h9.49V184h-9.49ZM224.09,397.59V388h-9.53v9.56Zm-153-223.88H61.49v9.47h9.59ZM357.49,61.49V71.1h9.44V61.49Zm20.2,387.75v9.53h9.56v-9.53ZM305.63,71.09V61.51h-9.41v9.58Zm-91.76,255.7h-9.54v9.43h9.54ZM204.34,92.08v9.64h9.49V92.08Zm-142.79,0v9.62H71V92.07ZM183.33,408.33H173.7v9.78c2.73,0,5.27.12,7.78-.08a2.56,2.56,0,0,0,1.77-1.7C183.45,413.73,183.33,411.09,183.33,408.33ZM428.14,193.66v-9.74h-9.39v9.74Z"/><path class="cls-1" d="M500,71.27H428.51c0-3,0-5.85,0-8.66q0-29.82,0-59.66c0-1.74.12-2.9,2.37-2.89Q465.43.21,500,.23ZM489.33,60.8V10.26H439V60.8Z"/><path class="cls-1" d="M.17,500Q.09,480.11,0,460.23c0-9.59.07-19.18,0-28.77,0-2.2.52-3,2.9-3,19.89.09,39.78.06,59.67.07h8.65V500Zm60.45-10.51V438.92H10.23v50.57Z"/><path class="cls-1" d="M469.33,153.29h10.3V142.93H500v30l-10.44.67V184l.06-.06H469.33Z"/><path class="cls-1" d="M500,449.17V500h-9.8c-.25-3.39-.51-6.78-.78-10.5h-20V479.13l-.08.08h20.3V449.13l-.08.08Z"/><path class="cls-1" d="M500,132.52H489.9c-.07-1.17-.18-2.14-.18-3.12,0-11.31.09-22.62-.08-33.92,0-2.89,1-3.84,3.65-3.65,2.23.15,4.47.18,6.71.27Z"/><path class="cls-1" d="M285.61,500c0-2.64.07-5.27,0-7.91,0-1.57.26-2.43,2.15-2.41,8.63.09,17.25.07,25.88,0,1.93,0,2.73.65,2.61,2.69-.16,2.52,0,5.06,0,7.6Z"/><path class="cls-1" d="M183.93,500a80.22,80.22,0,0,1-.18-8.2,3.1,3.1,0,0,1,2.21-2c5.78-.17,11.58-.09,17.57-.09V500Z"/><path class="cls-1" d="M489.55,429,500,429v9.19l-10.46.59.09.07v-9.87Z"/><path class="cls-1" d="M255,500V490h9.8v10Z"/><path class="cls-1" d="M71,71.12H.22V.29H71ZM60.65,60.75V10.32H10.19V60.75Z"/><path class="cls-1" d="M469.43,153.4c-5.47-.07-10.94-.18-16.41-.2-4.39,0-4.39,0-4.39-4.24V132.55h-9.92v-9.83h10.22V112.44h10V102H428.54a65.14,65.14,0,0,1,.16-8.68c.09-.63,2.21-1.39,3.4-1.41,7.55-.11,15.1,0,22.64,0,1.31,0,2.63-.13,4.42-.23V81.8h20v9.66H469.5V102h9.65v20.17c-5.6,0-11.17.12-16.74,0-2.59-.08-3.79.54-3.5,3.36.23,2.21,0,4.45,0,7h10.47Z"/><path class="cls-1" d="M388,10H408V.38h9.81V30.26h-9.74V40.41h-10v-20H388Z"/><path class="cls-1" d="M40.32,408h-10v10H.27v-9.65H10V387.87c3,0,5.76-.14,8.45.09A2.83,2.83,0,0,1,20.14,390c.22,2.42.08,4.87.08,7.69h20.1Z"/><path class="cls-1" d="M111.29,40.34c.29.63.83,1.26.83,1.89,0,9.24,0,18.48-.06,27.72a4.63,4.63,0,0,1-.31,1.1l-10.12.48c0-3.31,0-6.62,0-10H92v9.88h9.66c0,2.74.2,5.5,0,8.23a2.54,2.54,0,0,1-1.68,1.8c-2.51.2-5,.08-8,.08-.2-3.56-.38-6.82-.57-10.3H81.89V61.16h10v-10h10c0-2.88.09-5.49,0-8.09-.09-1.86.56-2.52,2.44-2.47,2.32.07,4.64-.16,7-.26Z"/><path class="cls-1" d="M111.29,40.35c.24-2.91.54-5.82.63-8.74,0-.28-1.27-.84-2-.86-2.74-.08-5.48,0-8.22,0l.07.08V20.65h30.43v9.64c-2.24,0-4.47.15-6.66,0-2.61-.23-3.78.57-3.5,3.37.22,2.2,0,4.43,0,6.72H111.29Z"/><path class="cls-1" d="M101.74,30.75a2.59,2.59,0,0,1,.16.59c.28,9.3.28,9.3-9.07,9.3H81.89v-20h9.53V30.84h10.39Z"/><path class="cls-1" d="M387,51.31h10.65c0,6.23,0,12.39-.07,18.54,0,.47-1,1.31-1.54,1.32-3,0-6.05-.1-9.09-.18,0,0,.05,0,0,0l.09-19.8Z"/><path class="cls-1" d="M61.25,295.73c0-3-.12-5.67.09-8.27a2.53,2.53,0,0,1,1.79-1.7q8.26-.21,16.52,0c.63,0,1.24,1.08,1.83,1.7.09.1,0,.39,0,.59,0,7.61,0,7.62-7.63,7.69C69.75,295.76,65.7,295.73,61.25,295.73Z"/><path class="cls-1" d="M30.6,347.07H50.76c0,2.85.1,5.67-.09,8.46,0,.54-1.19,1.42-1.85,1.44-5.5.12-11,.13-16.51,0-.58,0-1.58-1.19-1.64-1.89C30.47,352.55,30.6,350,30.6,347.07Z"/><path class="cls-1" d="M91.25,469.1H81.87V449.37h9.38Z"/><path class="cls-1" d="M122.69,9.89V.32h19.74V9.89Z"/><path class="cls-1" d="M438.78,132.48V143h-9.86c-.18-3.32-.36-6.63-.56-10.49Z"/><path class="cls-1" d="M10.08,204.25V193.83c3,0,5.85-.12,8.65.09.59,0,1.51,1.21,1.57,1.92.21,2.53.11,5.09.13,7.63l.09-.11L10,204.14Z"/><path class="cls-1" d="M387.12,51.23h-9.51V40.57l-.11.11h9.55V51.31S387.12,51.23,387.12,51.23Z"/><path class="cls-1" d="M193.54,30V20.67h10.18V30H193.47Z"/><path class="cls-1" d="M367.49,9.79V.32h9.73V9.79Z"/><path class="cls-1" d="M377.61,40.57h-10V30.94h9.89v9.74Z"/><path class="cls-1" d="M20.56,367.65H30.1v9.64H20.56Z"/><path class="cls-1" d="M9.91,234.94l-9.85-.78c0-2.72-.09-5.35.08-8a2.32,2.32,0,0,1,1.52-1.66c2.61-.18,5.24-.08,8.18-.08V235Z"/><path class="cls-1" d="M71.19,408.07V418.2c-3,0-5.7.08-8.42-.07a2.07,2.07,0,0,1-1.44-1.43c-.15-2.71-.07-5.43-.07-8.52h10Z"/><path class="cls-1" d="M417.76,71.09h-9.6c0-2.77-.12-5.39.08-8,.05-.65,1.13-1.23,1.76-1.81.12-.1.4,0,.6,0C418.43,60.86,419.57,62.4,417.76,71.09Z"/><path class="cls-1" d="M9.83,377.71v9.53H.25v-9.53Z"/><path class="cls-1" d="M40.56,377.42v9.74H30.8v-9.63h9.86Z"/><path class="cls-1" d="M132.47,71.3h-9.69V61.58h9.59v9.83Z"/><path class="cls-1" d="M10,204.14v9.64H.25v-9.53h9.83Z"/><path class="cls-1" d="M326.27,9.9H316.5V.11c2.81,0,5.61-.08,8.39.07.49,0,1.29,1,1.32,1.56C326.35,4.36,326.27,7,326.27,9.9Z"/><path class="cls-1" d="M387.23,30.21h-9.48V20.65h9.48Z"/><path class="cls-1" d="M306.41,438.71H326.7V459H306v10.22h9.9v9.89H296.23V449.27h9.5Z"/><path class="cls-1" d="M238.2,238.36c8.17.15,12.73,4.75,12.61,12.76-.13,9.45-6.83,15.71-16.61,15.55-7.09-.12-12.27-5.17-12.16-11.83C222.2,244.93,228.81,238.19,238.2,238.36Zm-7.72,15.36c0,3.72,1.77,5.66,5.2,5.65,3.7,0,7-3.91,7-8.18a5.24,5.24,0,0,0-5.25-5.47C233.34,245.75,230.49,249,230.48,253.72Z"/><path class="cls-1" d="M227.63,227.71a57.73,57.73,0,0,1-1.21,6.95c-.17.58-1.61,1.05-2.5,1.1-2.33.16-4.67.06-7.43.06-.87,5.05-1.71,10-2.57,15-.76,4.4-1.63,8.78-2.25,13.2-.25,1.76-1,2.17-2.61,2.09-2-.09-4,0-6.38,0,1.68-10.32,3.28-20.18,4.95-30.4h-9.87c.36-2.53.6-4.71,1-6.86a1.7,1.7,0,0,1,1.26-1C209.08,227.7,218.12,227.71,227.63,227.71Z"/><path class="cls-1" d="M277.37,262.56l4.65-4.82c2.54,1,4.5,2.09,6.59,2.47.92.17,2.1-1.1,3.16-1.71a12.18,12.18,0,0,0-2-2.59,13.57,13.57,0,0,0-3.08-1.23c-2.75-1.14-5-2.74-5.39-6a8.45,8.45,0,0,1,4-8.36c5-3.46,13.76-2.36,17.07,2.4-1.51,1.37-3.05,2.77-4.53,4.13-1.73-.74-3.25-1.82-4.83-1.92-1.23-.08-2.54,1.06-3.81,1.66.83.83,1.61,1.71,2.49,2.47a4,4,0,0,0,1.42.5c4.8,1.57,6.76,3.83,6.78,7.84,0,4.45-2.21,7.54-6.91,8.89A15.25,15.25,0,0,1,277.37,262.56Z"/><path class="cls-1" d="M277.13,242.74l-4.29,3.81a43.3,43.3,0,0,0-6.51-1.58c-.75-.07-1.61,1.15-2.42,1.78a11.67,11.67,0,0,0,1.95,2.07,12.15,12.15,0,0,0,2.57.88c4.66,1.64,6.26,3.86,6.18,8.55-.07,3.77-2.6,6.83-6.68,8.06-6,1.84-12,.3-15.39-4.1l4.54-4.43c2,.86,3.88,2,5.89,2.38,1.08.19,2.41-.94,3.63-1.47a19.77,19.77,0,0,0-2.41-2.94,8.16,8.16,0,0,0-2.54-.94c-6.14-2.19-7.51-8.25-3.17-13.17C262.57,237,274.56,237.3,277.13,242.74Z"/><path class="cls-1" d="M255,163.1v10.51h-9.91c-.14,2.21-.27,4.27-.42,6.7-3.08,0-6,.07-8.91-.07a2.1,2.1,0,0,1-1.39-1.44,52.78,52.78,0,0,1-.07-5.58,59.57,59.57,0,0,1,7.47.06c2.59.35,2.92-.84,2.81-2.92-.11-2.3,0-4.62,0-7.26Z"/><path class="cls-1" d="M285.73,132.41H275.24c0-2.94-.08-5.85.07-8.75a2.11,2.11,0,0,1,1.49-1.42c2.81-.14,5.64-.06,8.84-.06V132.5Z"/><path class="cls-1" d="M224.53,152.73h2.06c8.31,0,8.31,0,8.16,8.39,0,.5-.08,1-.14,1.79H224.53Z"/><path class="cls-1" d="M163.05,194v10.17c-3,0-5.89.09-8.78-.08-.56,0-1.46-1.09-1.5-1.72-.16-2.71-.07-5.44-.07-8.37Z"/><path class="cls-1" d="M285.72,347v10a5.92,5.92,0,0,1-1.15.31c-9.94.23-9.94.23-9.17-10.47h10.14Z"/><path class="cls-1" d="M224.23,132.38v10.48c-2.94,0-5.85.11-8.74-.1-.55,0-1.38-1.32-1.43-2.08-.18-2.52-.07-5.06-.07-8.2h10.33Z"/><path class="cls-1" d="M193.9,132.28V122.19c3,0,5.78-.1,8.59.08a2.31,2.31,0,0,1,1.55,1.65c.17,2.72.08,5.45.08,8.36Z"/><path class="cls-1" d="M173.32,193.84h6.75v9.84c-.2.19-.27.31-.35.32-6.4.85-6.4.85-6.4-5.45Z"/><path class="cls-1" d="M469.37,194v2.79c0,8.23,0,8.27-8.41,7.25a2.81,2.81,0,0,1-1.9-1.9c-.23-2.61-.09-5.25-.09-8.14Z"/><path class="cls-1" d="M101.8,367.2H91.64V357.1H101.8Z"/><path class="cls-1" d="M173.76,377.31h9.92c0,3.23.06,6.13-.06,9,0,.49-.76,1-1.24,1.4-.19.16-.59.09-.89.08l-7.83-.4q.08-5.07.17-10.16Z"/><path class="cls-1" d="M244.58,71.12c0-3-.1-5.72.07-8.43A2.37,2.37,0,0,1,246.23,61c2.79-.18,5.61-.08,8.58-.08V71.12Z"/><path class="cls-1" d="M60.87,254.78v-8.19a.74.74,0,0,1,0-.3c1.94-3.65,5.24-.88,7.82-1.6,1.32-.37,2.64,0,2.57,2-.1,2.63,0,5.27,0,8.13Z"/><path class="cls-1" d="M254.82,438.64H244.64c0-2.95-.09-5.86.08-8.75,0-.55,1.12-1.42,1.77-1.46,2.71-.17,5.45-.07,8.33-.07Z"/><path class="cls-1" d="M428.46,254.75c0-.55-.11-.95-.11-1.35-.23-9.6.1-9.89,10.14-8.48v9.83Z"/><path class="cls-1" d="M438.55,438.62h-10v-10h10Z"/><path class="cls-1" d="M479.57,20.41V50.78H448.9V20.41Z"/><path class="cls-1" d="M50.83,479.59H20.42V448.88H50.83Z"/><path class="cls-1" d="M20.33,50.81V20.38H50.81V50.81Z"/></g></g></svg>