<svg fill="none" height="24" viewBox="0 0 24 24" width="24" xmlns="http://www.w3.org/2000/svg"><path clip-rule="evenodd" d="m19.3939 7.08085c.3677.15758.6061.51912.6061.91915v9c0 .4-.2384.7616-.6061.9191l-7 3c-.2515.1079-.5363.1079-.7878 0l-7.00002-3c-.36768-.1575-.60608-.5191-.60608-.9191v-9c0-.40003.2384-.76156.60608-.91914l7.00002-3c.2515-.10781.5363-.10781.7878-.00001zm-3.5 3.83835c.5076-.2176.7428-.8055.5252-1.31311-.2175-.50763-.8054-.74278-1.313-.52522l-3.1061 1.33113-3.10609-1.33113c-.50763-.21756-1.09551.01759-1.31307.52522-.21755.50761.0176 1.09551.52523 1.31311l2.89393 1.2402v4.3406c0 .5523.4477 1 1 1s1-.4477 1-1v-4.3406z" fill="#ff585d" fill-rule="evenodd"/></svg>