<svg width="340" height="128" viewBox="0 0 340 128" fill="none" xmlns="http://www.w3.org/2000/svg">
<path d="M16 56.6821C16 53.2795 18.1523 50.2492 21.365 49.1285L98.0883 22.3645C99.6687 21.8132 101.187 23.3313 100.635 24.9117L73.8715 101.635C72.7508 104.848 69.7205 107 66.3179 107H18C16.8954 107 16 106.105 16 105V56.6821Z" fill="url(#paint0_linear)"/>
<path d="M69.951 84.5208C69.3638 85.8457 68.1059 86.7495 66.6628 86.8831L34.199 89.889C33.5758 89.9467 33.0533 89.4242 33.111 88.8011L36.1169 56.3372C36.2505 54.8941 37.1542 53.6362 38.4792 53.049L92.6304 29.0501C93.4667 28.6795 94.3205 29.5333 93.9498 30.3696L69.951 84.5208Z" fill="white"/>
<path d="M113.92 98H120.592V88.016H125.92C133.216 88.016 138.592 82.448 138.592 75.488C138.592 68.528 133.216 62.96 125.968 62.96H113.92V98ZM125.488 69.152C129.28 69.152 131.872 71.984 131.872 75.488C131.872 78.992 129.28 81.824 125.488 81.824H120.592V69.152H125.488ZM151.387 98.48C154.507 98.48 157.051 97.184 158.635 95.312V98H165.211V74H158.635V76.352C157.051 74.672 154.603 73.52 151.483 73.52C146.059 73.52 139.819 77.504 139.819 86C139.819 94.448 146.299 98.48 151.387 98.48ZM152.683 92.432C149.035 92.432 146.251 89.648 146.251 85.952C146.251 82.256 149.035 79.52 152.683 79.52C156.235 79.52 158.827 82.4 158.827 85.952C158.827 89.504 156.235 92.432 152.683 92.432ZM168.091 79.904H172.171V87.584C172.171 95.408 174.667 98 182.299 98H183.259V91.856C179.227 91.856 178.747 91.28 178.747 87.536V79.904H183.259V74H178.747V64.784L172.171 68.384V74H168.091V79.904ZM186.618 98H193.194V84.896C193.194 80.864 195.258 79.136 197.754 79.136C200.682 79.136 202.17 81.008 202.17 84.272V98H208.842V83.36C208.842 77.168 205.434 73.52 199.77 73.52C197.034 73.52 194.73 74.72 193.146 76.64V62.96H186.618V98ZM226.083 98.48C231.171 98.48 237.603 94.448 237.603 86C237.603 77.504 231.411 73.52 225.987 73.52C222.771 73.52 220.323 74.864 218.787 76.736V74H212.211V109.04H218.787V95.648C220.323 97.424 222.915 98.48 226.083 98.48ZM224.739 92.432C221.187 92.432 218.595 89.504 218.595 85.952C218.595 82.4 221.187 79.52 224.739 79.52C228.387 79.52 231.171 82.256 231.171 85.952C231.171 89.648 228.387 92.432 224.739 92.432ZM252.001 98.48C258.913 98.48 264.433 92.912 264.433 86C264.433 79.088 258.913 73.52 252.001 73.52C245.089 73.52 239.569 79.088 239.569 86C239.569 92.912 245.089 98.48 252.001 98.48ZM252.001 92.24C248.593 92.24 246.001 89.408 246.001 86C246.001 82.592 248.593 79.76 252.001 79.76C255.361 79.76 258.049 82.592 258.049 86C258.049 89.408 255.361 92.24 252.001 92.24ZM267.055 98H273.631V86.672C273.631 82.208 275.167 80.384 278.671 80.384H282.847V74H280.207C276.943 74 274.783 75.44 273.583 77.936V74H267.055V98ZM285.325 79.904H289.405V87.584C289.405 95.408 291.901 98 299.533 98H300.493V91.856C296.461 91.856 295.981 91.28 295.981 87.536V79.904H300.493V74H295.981V64.784L289.405 68.384V74H285.325V79.904Z" fill="white"/>
<path d="M311.996 77.1328H308.984C309.555 76.3828 310.094 75.1641 310.602 73.4766L314.211 61.4414C314.641 59.9883 315.066 58.9141 315.488 58.2188C315.91 57.5156 316.547 56.9297 317.398 56.4609C318.258 55.9844 319.191 55.7461 320.199 55.7461C321.238 55.7461 322.086 56.0078 322.742 56.5312C323.406 57.0547 323.738 57.7344 323.738 58.5703C323.738 59.4141 323.441 60.2539 322.848 61.0898C322.262 61.918 321.387 62.543 320.223 62.9648C321.379 63.8008 321.957 64.8789 321.957 66.1992C321.957 67.1914 321.711 68.2031 321.219 69.2344C320.727 70.2578 320.074 71.0312 319.262 71.5547C318.457 72.0703 317.621 72.3281 316.754 72.3281C315.809 72.3281 314.992 71.9336 314.305 71.1445L313.648 73.4766C313.18 75.125 312.629 76.3438 311.996 77.1328ZM314.539 70.418C314.945 70.9336 315.406 71.1914 315.922 71.1914C316.773 71.1914 317.52 70.4805 318.16 69.0586C318.809 67.6367 319.133 66.082 319.133 64.3945C319.133 63.957 319.094 63.5781 319.016 63.2578C318.789 63.2969 318.609 63.3164 318.477 63.3164C318.289 63.3164 318.125 63.2578 317.984 63.1406C317.844 63.0234 317.773 62.8711 317.773 62.6836C317.773 62.2695 317.988 62.0625 318.418 62.0625C318.676 62.0625 318.965 62.168 319.285 62.3789C319.754 61.7617 320.172 60.9688 320.539 60C320.914 59.0234 321.102 58.1836 321.102 57.4805C321.102 56.7461 320.75 56.3789 320.047 56.3789C319.516 56.3789 319.094 56.6055 318.781 57.0586C318.477 57.5117 318.086 58.5469 317.609 60.1641L314.539 70.418Z" fill="white" fill-opacity="0.5"/>
<defs>
<linearGradient id="paint0_linear" x1="112" y1="11" x2="16" y2="107" gradientUnits="userSpaceOnUse">
<stop stop-color="#1496F4"/>
<stop offset="1" stop-color="#00C294"/>
</linearGradient>
</defs>
</svg>
