<svg xmlns="http://www.w3.org/2000/svg" viewBox="0 0 395.6 60"><defs><style>.cls-1{fill:#fff;}</style></defs><title>pic_logo</title><g id="레이어_2" data-name="레이어 2"><g id="레이어_1-2" data-name="레이어 1"><path class="cls-1" d="M80,16.42h5.14V38.5h9.77v4.92H80Z"/><path class="cls-1" d="M97.5,36.21V24.93h5.14V35.54c0,2.59,1.08,3.93,3.22,3.93,1.93,0,3.18-1.34,3.18-4.33V24.93h5.07V43.42h-5V41.28a5.65,5.65,0,0,1-4.85,2.51C100,43.79,97.5,41.09,97.5,36.21Z"/><path class="cls-1" d="M117.63,24.93h5v2a6.11,6.11,0,0,1,4.92-2.33,6.19,6.19,0,0,1,5.7,2.92,7,7,0,0,1,5.77-2.92c4.7,0,7,2.81,7,7.58V43.42h-5.14V32.81c0-2.48-1-3.93-3.22-3.93-1.92,0-3.33,1.34-3.33,4.44v10.1h-5.14V32.81c0-2.48-1-3.93-3.22-3.93-1.93,0-3.33,1.34-3.33,4.44v10.1h-5.07Z"/><path class="cls-1" d="M151.93,17A2.93,2.93,0,0,1,155,20a2.91,2.91,0,0,1-3.07,3,2.88,2.88,0,0,1-3-3A2.91,2.91,0,0,1,151.93,17Zm-2.52,8h5.07V43.42h-5.07Z"/><path class="cls-1" d="M157.81,24.93h5V27A6.37,6.37,0,0,1,168,24.56c4.36,0,7,2.81,7,7.58V43.42H169.8V32.81c0-2.48-1.15-3.93-3.41-3.93-1.92,0-3.51,1.34-3.51,4.44v10.1h-5.07Z"/><path class="cls-1" d="M177.72,34.17a9.58,9.58,0,1,1,9.58,9.62A9.56,9.56,0,0,1,177.72,34.17Zm14.24,0a4.74,4.74,0,0,0-4.66-4.8,4.81,4.81,0,0,0,0,9.61A4.74,4.74,0,0,0,192,34.17Z"/><path class="cls-1" d="M199.66,24.93h5V27a6.35,6.35,0,0,1,5.1-2.44c4.37,0,7,2.81,7,7.58V43.42h-5.15V32.81c0-2.48-1.14-3.93-3.4-3.93-1.92,0-3.51,1.34-3.51,4.44v10.1h-5.07Z"/><path class="cls-1" d="M229.37,29.92A13.77,13.77,0,0,1,243.5,16.05a13.53,13.53,0,0,1,13.06,10.13H251a7.79,7.79,0,0,0-7.73-5.07,8.81,8.81,0,0,0,0,17.62,7.85,7.85,0,0,0,7.59-4.85h5.69a13.86,13.86,0,0,1-27.15-4Z"/><path class="cls-1" d="M258.71,34.17c0-6.54,4.81-9.61,9-9.61a7.39,7.39,0,0,1,5.51,2.18V24.93h5.07V43.42h-5.07V41.35a7.18,7.18,0,0,1-5.59,2.44C263.7,43.79,258.71,40.69,258.71,34.17Zm14.65,0a4.78,4.78,0,0,0-4.74-5,5,5,0,1,0,4.74,5Z"/><path class="cls-1" d="M281.79,24.93h5V27a6.34,6.34,0,0,1,5.1-2.44c4.37,0,7,2.81,7,7.58V43.42h-5.15V32.81c0-2.48-1.14-3.93-3.4-3.93-1.93,0-3.52,1.34-3.52,4.44v10.1h-5.07Z"/><path class="cls-1" d="M301.7,34.17a9.59,9.59,0,1,1,9.58,9.62A9.57,9.57,0,0,1,301.7,34.17Zm14.24,0a4.74,4.74,0,0,0-4.66-4.8,4.81,4.81,0,0,0,0,9.61A4.74,4.74,0,0,0,315.94,34.17Z"/><path class="cls-1" d="M323.64,24.93h5V27a6.37,6.37,0,0,1,5.11-2.44c4.36,0,7,2.81,7,7.58V43.42h-5.14V32.81c0-2.48-1.15-3.93-3.41-3.93-1.92,0-3.51,1.34-3.51,4.44v10.1h-5.07Z"/><path class="cls-1" d="M343.55,34.17a9.58,9.58,0,1,1,19.16.08v1.63H348.39a4.56,4.56,0,0,0,4.74,3.59A3.83,3.83,0,0,0,357,37.25h5.41a9.7,9.7,0,0,1-18.87-3.08Zm5.18-2.4h8.73A4.33,4.33,0,0,0,353.17,29,4.84,4.84,0,0,0,348.73,31.77Z"/><path class="cls-1" d="M364.82,37.17h5.11v.15c0,1.52,1,2.07,2.25,2.07,1.45,0,2-.59,2-1.63s-2.25-1.33-4.55-2.11-4.55-2.07-4.55-5.47c0-3.22,2.55-5.62,6.77-5.62S379,26.63,379,30.88h-4.92v-.07c0-1.56-.85-2.07-2.11-2.07s-1.85.7-1.85,1.48c0,1.07,2.22,1.25,4.48,2s4.44,2.11,4.44,5.44-2.33,6.1-6.89,6.1C367.3,43.79,364.82,41.61,364.82,37.17Z"/><path class="cls-1" d="M381.36,37.17h5.11v.15c0,1.52,1,2.07,2.25,2.07,1.45,0,2-.59,2-1.63s-2.26-1.33-4.55-2.11-4.55-2.07-4.55-5.47c0-3.22,2.55-5.62,6.77-5.62s7.18,2.07,7.18,6.32h-4.92v-.07c0-1.56-.85-2.07-2.11-2.07s-1.85.7-1.85,1.48c0,1.07,2.22,1.25,4.47,2s4.44,2.11,4.44,5.44-2.33,6.1-6.88,6.1C383.84,43.79,381.36,41.61,381.36,37.17Z"/><path class="cls-1" d="M52.57,7.43C46.34,1.2,38.17,0,30,0S13.66,1.2,7.43,7.43,0,21.83,0,30,1.2,46.34,7.43,52.57,21.83,60,30,60s16.34-1.2,22.57-7.43S60,38.17,60,30,58.8,13.66,52.57,7.43ZM27.93,28.6a.42.42,0,0,1-.21.36L6.16,41.41a.42.42,0,0,1-.6-.24A37,37,0,0,1,4.14,30c0-7,1-14.08,6.41-19.45,4.73-4.74,10.76-6.1,17-6.36a.41.41,0,0,1,.43.41Zm4.14-24a.41.41,0,0,1,.43-.41c6.19.26,12.22,1.62,17,6.36a19.4,19.4,0,0,1,2.9,3.67.42.42,0,0,1-.15.58L32.69,26.09a.41.41,0,0,1-.62-.36ZM49.45,49.49c-4.73,4.73-10.76,6.1-17,6.36a.41.41,0,0,1-.43-.42v-24a.41.41,0,0,1,.21-.36L53.84,18.66a.41.41,0,0,1,.6.24A36.86,36.86,0,0,1,55.86,30C55.86,37.07,54.83,44.12,49.45,49.49Z"/></g></g></svg>