<svg xmlns="http://www.w3.org/2000/svg" viewBox="0 0 315.6 27.75"><defs><style>.cls-1{fill:#121212;}</style></defs><title>wordmark</title><g id="레이어_2" data-name="레이어 2"><g id="레이어_1-2" data-name="레이어 1"><path class="cls-1" d="M0,.37H5.14V22.46h9.77v4.92H0Z"/><path class="cls-1" d="M17.5,20.16V8.88h5.14V19.5c0,2.59,1.08,3.92,3.22,3.92,1.93,0,3.18-1.33,3.18-4.33V8.88h5.07v18.5h-5V25.23a5.64,5.64,0,0,1-4.85,2.52C20,27.75,17.5,25.05,17.5,20.16Z"/><path class="cls-1" d="M37.63,8.88h5v2a6.14,6.14,0,0,1,4.92-2.33,6.2,6.2,0,0,1,5.7,2.92,7,7,0,0,1,5.77-2.92c4.7,0,7,2.81,7,7.58V27.38H60.94V16.76c0-2.48-1-3.92-3.22-3.92-1.92,0-3.33,1.33-3.33,4.44v10.1H49.25V16.76c0-2.48-1-3.92-3.22-3.92-1.93,0-3.33,1.33-3.33,4.44v10.1H37.63Z"/><path class="cls-1" d="M71.93.93A2.93,2.93,0,0,1,75,4a2.9,2.9,0,0,1-3.07,3,2.87,2.87,0,0,1-3-3A2.9,2.9,0,0,1,71.93.93Zm-2.52,8h5.07v18.5H69.41Z"/><path class="cls-1" d="M77.81,8.88h5V11A6.37,6.37,0,0,1,88,8.51c4.36,0,7,2.81,7,7.58V27.38H89.8V16.76c0-2.48-1.15-3.92-3.41-3.92-1.92,0-3.51,1.33-3.51,4.44v10.1H77.81Z"/><path class="cls-1" d="M97.72,18.13a9.58,9.58,0,1,1,9.58,9.62A9.56,9.56,0,0,1,97.72,18.13Zm14.24,0a4.74,4.74,0,0,0-4.66-4.81,4.69,4.69,0,0,0-4.63,4.81,4.69,4.69,0,0,0,4.63,4.81A4.74,4.74,0,0,0,112,18.13Z"/><path class="cls-1" d="M119.66,8.88h5V11a6.35,6.35,0,0,1,5.1-2.44c4.37,0,7,2.81,7,7.58V27.38h-5.15V16.76c0-2.48-1.14-3.92-3.4-3.92-1.92,0-3.51,1.33-3.51,4.44v10.1h-5.07Z"/><path class="cls-1" d="M149.37,13.87A13.77,13.77,0,0,1,163.5,0a13.52,13.52,0,0,1,13.06,10.14H171a7.78,7.78,0,0,0-7.73-5.07,8.73,8.73,0,0,0-8.69,8.8,8.73,8.73,0,0,0,8.69,8.81,7.85,7.85,0,0,0,7.59-4.85h5.69a13.56,13.56,0,0,1-13,9.92A13.71,13.71,0,0,1,149.37,13.87Z"/><path class="cls-1" d="M178.71,18.13c0-6.55,4.81-9.62,9-9.62a7.43,7.43,0,0,1,5.51,2.18V8.88h5.07v18.5h-5.07V25.31a7.22,7.22,0,0,1-5.59,2.44C183.7,27.75,178.71,24.64,178.71,18.13Zm14.65,0a4.78,4.78,0,0,0-4.74-5,4.85,4.85,0,0,0-5,5,4.88,4.88,0,0,0,5,5A4.81,4.81,0,0,0,193.36,18.09Z"/><path class="cls-1" d="M201.79,8.88h5V11a6.34,6.34,0,0,1,5.1-2.44c4.37,0,7,2.81,7,7.58V27.38h-5.15V16.76c0-2.48-1.14-3.92-3.4-3.92-1.93,0-3.52,1.33-3.52,4.44v10.1h-5.07Z"/><path class="cls-1" d="M221.7,18.13a9.59,9.59,0,1,1,9.58,9.62A9.57,9.57,0,0,1,221.7,18.13Zm14.24,0a4.74,4.74,0,0,0-4.66-4.81,4.69,4.69,0,0,0-4.62,4.81,4.69,4.69,0,0,0,4.62,4.81A4.74,4.74,0,0,0,235.94,18.13Z"/><path class="cls-1" d="M243.64,8.88h5V11a6.37,6.37,0,0,1,5.11-2.44c4.36,0,7,2.81,7,7.58V27.38h-5.14V16.76c0-2.48-1.15-3.92-3.41-3.92-1.92,0-3.51,1.33-3.51,4.44v10.1h-5.07Z"/><path class="cls-1" d="M263.55,18.13a9.58,9.58,0,1,1,19.16.07v1.63H268.39a4.56,4.56,0,0,0,4.74,3.59A3.82,3.82,0,0,0,277,21.2h5.41a9.7,9.7,0,0,1-18.87-3.07Zm5.18-2.41h8.73A4.32,4.32,0,0,0,273.17,13,4.85,4.85,0,0,0,268.73,15.72Z"/><path class="cls-1" d="M284.82,21.13h5.11v.14a2,2,0,0,0,2.25,2.08c1.45,0,2-.6,2-1.63s-2.25-1.33-4.55-2.11-4.55-2.07-4.55-5.48c0-3.22,2.55-5.62,6.77-5.62S299,10.58,299,14.84h-4.92v-.08c0-1.55-.85-2.07-2.11-2.07s-1.85.7-1.85,1.48c0,1.07,2.22,1.26,4.48,2s4.44,2.1,4.44,5.43-2.33,6.11-6.89,6.11C287.3,27.75,284.82,25.57,284.82,21.13Z"/><path class="cls-1" d="M301.36,21.13h5.11v.14a2,2,0,0,0,2.25,2.08c1.45,0,2-.6,2-1.63s-2.26-1.33-4.55-2.11-4.55-2.07-4.55-5.48c0-3.22,2.55-5.62,6.77-5.62s7.18,2.07,7.18,6.33h-4.92v-.08c0-1.55-.85-2.07-2.11-2.07s-1.85.7-1.85,1.48c0,1.07,2.22,1.26,4.47,2s4.44,2.1,4.44,5.43-2.33,6.11-6.88,6.11C303.84,27.75,301.36,25.57,301.36,21.13Z"/></g></g></svg>