<svg fill="none" height="32" viewBox="0 0 32 32" width="32" xmlns="http://www.w3.org/2000/svg"><path clip-rule="evenodd" d="m3.12903 13.0048 5.2836-6.98074c.05404-.07123.12264-.13081.20149-.17497.07885-.04417.16624-.07198.25667-.08167l7.05691-.76353c.0482-.00519.0968-.00519.145 0l7.0569.76273c.0904.00969.1778.03749.2567.08166.0788.04417.1474.10375.2014.17498l5.2845 6.98154c.0884.1172.1333.2602.1273.4055-.006.1452-.0625.2842-.1603.3942l-12.4641 14.0289c-.0464.0523-.1038.0942-.1684.123-.0645.0287-.1347.0436-.2057.0436s-.1411-.0149-.2057-.0436c-.0645-.0288-.122-.0707-.1684-.123l-12.46656-14.0289c-.09764-.1101-.154-.2491-.15984-.3944-.00583-.1452.03919-.2881.1277-.4053zm14.68897-5.93731 4.9828 4.58111c.0483.0446.1093.0738.175.084.0657.0101.133.0007.1931-.0271.06-.0277.1101-.0725.1435-.1285.0335-.056.0487-.1205.0438-.185l-.239-3.2514c-.0033-.03978.0087-.07935.0337-.11097s.0612-.05304.1016-.06005c.0404-.00702.082.00087.1167.02211s.06.05432.071.09276l1.0927 3.72295c.0368.1254.1044.2401.197.3343s.2074.165.3345.2063l2.332.7563c.0372.0119.0688.0363.0892.0688.0204.0326.0282.0711.0221.1088-.0062.0376-.0259.0719-.0557.0967-.0297.0247-.0676.0384-.1067.0385h-2.2414c-.1385.0001-.2747.0341-.3962.099-.1214.0649-.224.1586-.2984.2723l-6.1093 9.3436c-.0342.0509-.0869.0874-.1477.102-.0607.0146-.1248.0063-.1795-.0233-.0546-.0296-.0957-.0783-.115-.1362-.0192-.0579-.0152-.1208.0113-.1759l4.3788-8.7902c.0366-.0733.0534-.1546.0489-.236-.0045-.0815-.0302-.1604-.0747-.2296-.0445-.0691-.1063-.1261-.1796-.1656-.0733-.0394-.1558-.0601-.2396-.0601h-11.6054c-.0838 0-.1663.0207-.2396.0601-.07332.0395-.13513.0965-.17962.1656-.04449.0692-.07019.1481-.0747.2296-.00452.0814.01231.1627.04891.236l4.37881 8.7902c.0275.0552.0323.1186.0133.1772-.0189.0586-.0602.1079-.1152.1378-.0551.0299-.1199.0382-.181.0232-.0612-.015-.1142-.0522-.148-.104l-6.10931-9.3436c-.07437-.114-.1771-.2079-.29868-.2729-.12157-.0651-.25806-.0992-.39679-.0992h-2.30973c-.03916-.0001-.07701-.0138-.10676-.0385-.02976-.0248-.04948-.0591-.05563-.0967-.00615-.0377.00168-.0762.02207-.1088.0204-.0325.05203-.0569.08923-.0688l2.39625-.7579c.12841-.0407.24457-.1115.33825-.2062.09369-.0947.16203-.2104.19901-.3368l1.09182-3.71895c.011-.03844.03633-.07152.07105-.09276.03471-.02124.07632-.02913.11668-.02211.04037.00701.0766.02843.10162.06005.02501.03162.03702.07119.03367.11097l-.23897 3.2514c-.00492.0645.01033.129.04377.185.03343.056.08348.1008.14357.1285.06008.0278.12739.0372.19308.0271.06569-.0102.12668-.0394.17497-.084l4.98283-4.58111c.0301-.02959.0709-.04662.1136-.04749.0428-.00088.0843.01447.1156.04281.0314.02833.0502.06742.0525.10901.0023.04158-.0122.0824-.0403.11382l-3.343 4.00446c-.0392.0471-.0639.104-.0713.1641s.0029.1211.0296.1758.0688.1009.1214.1333.1135.0497.1757.0497h9.3279c.0623 0 .1232-.0173.1758-.0497s.0947-.0786.1214-.1333.037-.1157.0296-.1758-.0321-.117-.0713-.1641l-3.3431-4.00446c-.028-.03142-.0425-.07224-.0402-.11382.0023-.04159.0211-.08068.0525-.10901.0313-.02834.0728-.04369.1155-.04281.0428.00087.0836.0179.1137.04749z" fill="#343434" fill-rule="evenodd"/></svg>