<svg fill="none" height="32" viewBox="0 0 32 32" width="32" xmlns="http://www.w3.org/2000/svg" xmlns:xlink="http://www.w3.org/1999/xlink"><clipPath id="a"><path d="m0 3h32v26h-32z"/></clipPath><g clip-path="url(#a)" clip-rule="evenodd" fill-rule="evenodd"><path d="m4.92017 20.9207-1.67404.6211-.08988 5.0579 5.79494-2.15c-1.9876-.6781-3.43906-1.8712-4.03102-3.529" fill="#5a5a5a"/><path d="m5.79613 15.571-5.808337 2.1551 3.258237 3.8157 1.67404-.6211c-.59023-1.6531-.22624-3.5217.87606-5.3497" fill="#4d4d4d"/><path d="m15.5706 8.27266c-7.39635 2.74424-12.16475 8.40684-10.65045 12.64794l26.78465-9.9376c-1.5143-4.24113-8.7378-5.45456-16.1342-2.71034z" fill="#666"/><path d="m21.0541 23.6311c7.3964-2.7442 12.1737-8.3818 10.6505-12.6479l-26.78468 9.9376c1.52324 4.2662 8.73778 5.4545 16.13418 2.7103z" fill="#343434"/><path d="m31.7046 10.9832-26.78468 9.9376c.52448 1.4689 2.52454 2.1926 5.33088 2.1926 2.7359 0 6.2381-.6873 9.8893-2.042 7.3964-2.7442 12.6003-7.1873 11.5645-10.0882" fill="#4d4d4d"/><path d="m26.3738 8.79053c-2.736 0-6.2382.68734-9.8894 2.04207-7.39641 2.7442-12.60027 7.1872-11.56445 10.0882l26.78465-9.9377c-.5245-1.46889-2.5245-2.19257-5.3308-2.19257" fill="#5a5a5a"/><g fill="#343434"><path d="m24.8946 26.8675h-.0002c-.7881 0-1.9507-.7229-3.4556-2.1487-1.7804-1.6869-3.8199-4.1576-5.7428-6.9569-1.9228-2.7993-3.5028-5.5979-4.4489-7.88034-1.0309-2.48731-1.1778-4.01667-.4369-4.54563.1625-.11586.3583-.17455.5821-.17455.6027 0 1.777.45574 3.9486 2.62699l.0475.04746-.0064.06748c-.0149.15598-.0285.31336-.0407.46783l-.0242.30672-.2131-.21799c-2.3398-2.3941-3.3698-2.65256-3.7041-2.65256-.0953 0-.1712.01969-.2256.05854-.3214.22936-.3421 1.35271.6573 3.76388.9292 2.24177 2.4863 4.99807 4.3843 7.76107 1.898 2.7633 3.9063 5.1974 5.6549 6.8541 1.8855 1.7864 2.7352 1.9793 3.013 1.9793.096 0 .1739-.0209.2317-.0622.3391-.2419.3395-1.4453-.775-4.0406l-.0512-.1191.112-.0623c.112-.0623.2203-.1236.3219-.1822l.1342-.0775.0619.1439c.7902 1.839 1.5289 4.1762.5603 4.8677-.1633.1165-.3601.1756-.585.1756zm-.0002-.2836h.0002l-.0002.1418z"/><path d="m21.2336 23.5534-.0112.1414c-.187 2.3499-.6794 5.1751-1.9631 5.2894-.0258.0023-.0526.0036-.0794.0036-.8721 0-1.6971-1.2691-2.4522-3.7719-.7144-2.3678-1.2688-5.547-1.561-8.9519-.2922-3.4041-.2878-6.6331.0123-9.09205.3272-2.6795.9501-4.07881 1.8514-4.15914.0266-.00249.0542-.00378.0815-.00378.6326 0 1.5861.72754 2.5622 4.11629l-.6374.12494c-.3259-1.13243-.681-2.05347-1.0336-2.68635-.3262-.58539-.6433-.90777-.893-.90777-.0082 0-.0165.00034-.0246.00105-.3907.03485-.9596.99719-1.2767 3.59466-.2948 2.41483-.2984 5.59545-.01 8.95585.2885 3.361.8338 6.4927 1.5354 8.8181.3142 1.0415.6589 1.8998.9967 2.4822.3115.5371.6129.8329.8488.8329.0081 0 .0162-.0004.0243-.0011.3737-.0332 1.0781-1.0347 1.3745-4.558z"/></g></g></svg>