<svg width="32" height="32" viewBox="0 0 32 32" fill="none" xmlns="http://www.w3.org/2000/svg">
<path d="M10.4344 28C21.7552 28 27.9472 18.7657 27.9472 10.7577C27.9472 10.4954 27.9472 10.2343 27.9292 9.97442C29.1338 9.11658 30.1736 8.0544 31 6.83764C29.8767 7.32771 28.685 7.6491 27.4648 7.79108C28.7497 7.03374 29.7113 5.84258 30.1708 4.43927C28.9626 5.14514 27.6408 5.6426 26.2624 5.91019C25.3344 4.93865 24.107 4.29533 22.7702 4.07976C21.4335 3.8642 20.0618 4.08842 18.8675 4.71772C17.6731 5.34702 16.7228 6.34631 16.1634 7.56097C15.6041 8.77563 15.4669 10.1379 15.7732 11.4371C13.3261 11.3163 10.9322 10.6902 8.74677 9.59941C6.56138 8.50864 4.6334 6.97757 3.088 5.10561C2.30091 6.43968 2.05984 8.01894 2.41387 9.52185C2.76791 11.0248 3.69043 12.3383 4.9936 13.1951C4.01409 13.1665 3.05594 12.9064 2.2 12.4366C2.2 12.4614 2.2 12.4874 2.2 12.5134C2.20039 13.9125 2.69231 15.2684 3.59234 16.3511C4.49236 17.4339 5.74508 18.1767 7.138 18.4538C6.23184 18.6971 5.2811 18.7327 4.3588 18.5577C4.75211 19.7619 5.51784 20.8148 6.54888 21.5694C7.57993 22.324 8.82474 22.7424 10.1092 22.7661C7.92968 24.4526 5.23727 25.3681 2.4652 25.3653C1.97548 25.3644 1.48624 25.3352 1 25.2779C3.81476 27.0563 7.0899 27.9997 10.4344 27.9953" fill="white"/>
</svg>
