<svg width="32" height="32" viewBox="0 0 32 32" fill="none" xmlns="http://www.w3.org/2000/svg">
<path fill-rule="evenodd" clip-rule="evenodd" d="M15.9541 1C7.69725 1 1 7.65452 1 15.8587C1 22.4221 5.31193 27.9827 11.1835 29.9882C11.9174 30.0794 12.1927 29.6236 12.1927 29.2589C12.1927 28.8943 12.1927 27.9827 12.1927 26.7065C8.06422 27.6181 7.14679 24.701 7.14679 24.701C6.50459 22.969 5.49541 22.5133 5.49541 22.5133C4.11927 21.6017 5.58716 21.6017 5.58716 21.6017C7.05505 21.6928 7.88073 23.1514 7.88073 23.1514C9.25688 25.4303 11.367 24.7922 12.1927 24.4276C12.2844 23.4248 12.7431 22.7867 13.1101 22.4221C9.80734 22.0575 6.3211 20.7813 6.3211 15.0383C6.3211 13.3975 6.87156 12.1213 7.88073 11.0274C7.78899 10.7539 7.23853 9.20421 8.06422 7.19874C8.06422 7.19874 9.34862 6.8341 12.1927 8.74842C13.3853 8.38379 14.6697 8.29263 15.9541 8.29263C17.2385 8.29263 18.5229 8.47495 19.7156 8.74842C22.5596 6.8341 23.844 7.19874 23.844 7.19874C24.6697 9.20421 24.1193 10.7539 24.0275 11.1185C24.945 12.1213 25.5872 13.4886 25.5872 15.1295C25.5872 20.8724 22.1009 22.0575 18.7982 22.4221C19.3486 22.8779 19.8073 23.7895 19.8073 25.1568C19.8073 27.1623 19.8073 28.712 19.8073 29.2589C19.8073 29.6236 20.0826 30.0794 20.8165 29.9882C26.7798 27.9827 31 22.4221 31 15.8587C30.9083 7.65452 24.211 1 15.9541 1Z" fill="white"/>
</svg>
