<svg width="32" height="32" viewBox="0 0 32 32" fill="none" xmlns="http://www.w3.org/2000/svg">
<path fill-rule="evenodd" clip-rule="evenodd" d="M24.5726 28.3106C28.458 25.5999 31 21.0968 31 16C31 7.71573 24.2843 1 16 1C7.71573 1 1 7.71573 1 16C1 21.1199 3.5651 25.6406 7.48027 28.3473C7.70397 27.5741 8.00865 26.805 8.35073 26.0961C9.06456 24.6166 10.0938 23.0824 11.3166 22.095L13.6855 25.1485C13.0719 25.644 12.3517 26.6212 11.7752 27.816C11.3556 28.6858 11.0914 29.5058 10.9768 30.1383C12.5473 30.6962 14.2382 31 16 31C17.7666 31 19.4619 30.6946 21.036 30.1337C20.8272 28.4543 20.0245 27.0336 18.9716 25.8705C17.7244 24.4927 16.217 23.5856 15.2806 23.1968L15.2462 23.1826L15.2125 23.1669C11.975 21.6708 9.71781 18.341 9.71781 14.4701C9.71781 10.78 11.7696 7.58142 14.7645 5.9952C15.5391 5.58494 16.4608 5.58493 17.2354 5.9952C20.2303 7.58142 22.2821 10.78 22.2821 14.4701C22.2821 17.107 21.2347 19.4927 19.5435 21.2188C20.2989 21.7749 21.0664 22.4449 21.7756 23.2283C22.974 24.5522 24.0501 26.2532 24.5726 28.3106ZM13.5348 14.4701C13.5348 16.4306 14.5122 18.1598 15.9999 19.1733C17.4877 18.1598 18.4651 16.4306 18.4651 14.4701C18.4651 12.5098 17.4884 10.781 15.9999 9.76697C14.5115 10.781 13.5348 12.5098 13.5348 14.4701Z" fill="white"/>
</svg>
