<svg width="32" height="32" viewBox="0 0 32 32" fill="none" xmlns="http://www.w3.org/2000/svg">
<path d="M9.60043 6C10.5514 6 11.4299 6.07165 12.236 6.28661C13.0421 6.42991 13.7033 6.72548 14.292 7.08374C14.8807 7.44201 15.3154 7.95253 15.6143 8.60636C15.9041 9.26019 16.0581 10.0573 16.0581 10.9261C16.0581 11.9382 15.8407 12.807 15.3245 13.4608C14.8807 14.1146 14.1561 14.6968 13.2685 15.1267C14.5184 15.485 15.4694 16.1388 16.049 17.0076C16.6287 17.8764 17 18.9601 17 20.1961C17 21.2082 16.7826 22.077 16.4113 22.8025C16.049 23.528 15.4603 24.1818 14.7991 24.6117C14.138 25.0506 13.3319 25.4089 12.4534 25.6238C11.5749 25.8388 10.6963 25.9821 9.81779 25.9821L0 26V6H9.60043ZM9.01172 14.1146C9.81779 14.1146 10.479 13.8997 10.9861 13.5325C11.4933 13.1652 11.7198 12.5204 11.7198 11.7232C11.7198 11.2844 11.6473 10.8545 11.5024 10.5678C11.3575 10.2812 11.1401 10.0573 10.8412 9.84236C10.5514 9.69906 10.2525 9.55575 9.89025 9.4841C9.52797 9.41245 9.15663 9.41245 8.7219 9.41245H4.47416V14.1236C4.47416 14.1146 9.01172 14.1146 9.01172 14.1146ZM9.22909 22.6682C9.67288 22.6682 10.1076 22.5965 10.479 22.5249C10.8412 22.4532 11.2126 22.3099 11.5024 22.086C11.7922 21.8621 12.0186 21.6471 12.236 21.2888C12.3809 20.9306 12.5258 20.4917 12.5258 19.9812C12.5258 18.9691 12.236 18.2436 11.6473 17.7331C11.0586 17.2942 10.2525 17.0793 9.30155 17.0793H4.47416V22.6592H9.22909V22.6682Z" fill="white"/>
<path d="M22.7331 22.1199C23.2997 22.6984 24.1452 22.9831 25.2696 22.9831C26.0454 22.9831 26.7514 22.7696 27.318 22.4047C27.8846 21.9686 28.2332 21.5415 28.3727 21.1054H31.8245C31.2579 22.8319 30.4124 24.06 29.2879 24.852C28.1635 25.5728 26.8212 26 25.1999 26C24.0754 26 23.0818 25.7864 22.1665 25.4215C21.2513 25.0656 20.5452 24.5583 19.9089 23.8375C19.2726 23.1878 18.7845 22.3958 18.4968 21.4614C18.1482 20.5269 18 19.5213 18 18.3644C18 17.2876 18.1395 16.2731 18.4968 15.3386C18.8542 14.4042 19.3423 13.6122 19.9787 12.8913C20.615 12.2417 21.3907 11.6632 22.2362 11.3073C23.1515 10.9513 24.0667 10.7288 25.1999 10.7288C26.4028 10.7288 27.4575 10.9424 28.3727 11.4496C29.2879 11.9569 29.994 12.5265 30.5606 13.3897C31.1271 14.1817 31.5455 15.1162 31.8332 16.1218C31.9726 17.1274 32.0424 18.1419 31.9726 19.2899H21.7481C21.7481 20.4646 22.1665 21.5415 22.7331 22.1199ZM27.1785 14.5555C26.6817 14.0482 25.9059 13.7635 24.9907 13.7635C24.3544 13.7635 23.8662 13.9059 23.4391 14.1194C23.012 14.333 22.7331 14.6267 22.4542 14.9115C22.1752 15.1963 22.027 15.5611 21.9573 15.9171C21.8876 16.2731 21.8179 16.5667 21.8179 16.8515H28.1635C28.024 15.7836 27.6667 15.0628 27.1785 14.5555ZM20.9723 7H28.8695V8.94005H20.9723V7Z" fill="white"/>
</svg>
