<svg width="32" height="32" viewBox="0 0 32 32" fill="none" xmlns="http://www.w3.org/2000/svg">
<path fill-rule="evenodd" clip-rule="evenodd" d="M4 2C2.89543 2 2 2.89543 2 4V28C2 29.1046 2.89543 30 4 30H28C29.1046 30 30 29.1046 30 28V4C30 2.89543 29.1046 2 28 2H4ZM20.9491 8.22141L19.3297 9.84081C16.6767 8.40523 13.2922 8.80845 11.0502 11.0505C8.80798 13.2927 8.40486 16.6775 9.84082 19.3306L8.22176 20.9496C7.44071 21.7307 7.44071 22.997 8.22176 23.7781C9.00281 24.5591 10.2691 24.5591 11.0502 23.7781L12.6692 22.1591C15.3223 23.5953 18.7074 23.1923 20.9497 20.95C23.1921 18.7075 23.5951 15.3221 22.1585 12.6689L23.7775 11.0498C24.5586 10.2688 24.5586 9.00246 23.7775 8.22141C22.9965 7.44036 21.7301 7.44036 20.9491 8.22141ZM13.8792 13.8789C15.0429 12.7152 16.9248 12.7074 18.0982 13.8554L18.1207 13.8783L18.1442 13.9015C19.2934 15.0748 19.2859 16.9575 18.1219 18.1215C16.9503 19.2931 15.0508 19.2931 13.8792 18.1215C12.7077 16.9499 12.7077 15.0504 13.8792 13.8789Z" fill="white"/>
</svg>
