<svg width="100" height="100" viewBox="0 0 100 100" fill="none" xmlns="http://www.w3.org/2000/svg">
<path d="M0 0V100H100V0H0ZM56.8821 66.9036L32.1429 81.1929C31.8858 81.3357 31.6211 81.4645 31.35 81.5786C31.1427 81.6681 30.9305 81.7456 30.7143 81.8107L30.6464 81.8321C30.45 81.8893 30.25 81.9429 30.05 81.9857L29.8857 82.0143C29.7143 82.0464 29.5286 82.075 29.3679 82.0929C29.2857 82.0929 29.2 82.0929 29.1143 82.0929C28.9679 82.0929 28.8214 82.1143 28.675 82.1179H28.5714C28.4893 82.1179 28.4107 82.1179 28.3286 82.1179C28.2464 82.1179 28.0893 82.1179 27.9714 82.0964C27.8536 82.075 27.7143 82.0714 27.5857 82.05C27.4571 82.0286 27.3857 82.025 27.2857 82.0071C27.1857 81.9893 27.0286 81.9536 26.9036 81.9214L26.5964 81.8429L26.275 81.7393C26.1464 81.6964 26.0214 81.65 25.9179 81.6036L25.7071 81.5143C25.5429 81.4393 25.3821 81.3643 25.225 81.2786L25.1607 81.2429C24.0103 80.6214 23.0538 79.6945 22.3964 78.5643C22.0151 77.8978 21.7438 77.1743 21.5929 76.4214C21.5946 76.4072 21.5946 76.3928 21.5929 76.3786C21.5536 76.1714 21.5214 75.9607 21.4964 75.75C21.4964 75.6821 21.4964 75.6143 21.4964 75.5429C21.4964 75.3857 21.475 75.2286 21.4714 75.0714C21.4714 75.0393 21.4714 75.0107 21.4714 74.9786V25C21.477 23.1147 22.2255 21.3076 23.5545 19.9705C24.8836 18.6334 26.6862 17.8741 28.5714 17.8571C30.4641 17.8628 32.2776 18.6172 33.6159 19.9555C34.9543 21.2938 35.7086 23.1073 35.7143 25V62.6286L49.7357 54.5321C51.3754 53.5999 53.3173 53.354 55.1376 53.8482C56.9579 54.3424 58.5088 55.5366 59.452 57.17C60.3951 58.8035 60.6538 60.7437 60.1717 62.5673C59.6896 64.3908 58.5058 65.9496 56.8786 66.9036H56.8821ZM78.5714 50.2643C78.5658 52.157 77.8114 53.9705 76.4731 55.3088C75.1348 56.6471 73.3212 57.4015 71.4286 57.4071C69.5359 57.4015 67.7224 56.6471 66.3841 55.3088C65.0457 53.9705 64.2914 52.157 64.2857 50.2643C64.2914 48.3716 65.0457 46.5581 66.3841 45.2198C67.7224 43.8814 69.5359 43.1271 71.4286 43.1214C73.3212 43.1271 75.1348 43.8814 76.4731 45.2198C77.8114 46.5581 78.5658 48.3716 78.5714 50.2643Z" fill="#385553"/>
</svg>
